<?xml version="1.0" encoding="UTF-8"?>
<svg version="1.1" xmlns="http://www.w3.org/2000/svg" width="1008" height="1183">
<path d="M0 0 C1.81129395 0.02900391 1.81129395 0.02900391 3.65917969 0.05859375 C19.09549771 0.33739046 34.37792146 1.21120593 49.75 2.5625 C67.84992791 4.14951457 85.78548861 4.63604425 103.9375 3.5 C136.90308581 1.44058359 167.31731882 1.72402391 197.16796875 17.06884766 C203.66477009 20.37092659 210.32799332 23.1341173 217.125 25.75 C229.79932734 30.74321159 241.15138741 37.02345436 251.89453125 45.40112305 C260.91425505 52.38051238 270.7632218 58.14958845 280.76171875 63.609375 C283.84123738 65.31010386 286.65036204 67.07162429 289.375 69.3125 C291.74555029 71.23445657 294.09323817 73.06285252 296.625 74.76953125 C303.99510404 79.7422577 309.2862325 85.53646106 314.75219727 92.44384766 C315.97497463 93.96879051 317.24697809 95.45384113 318.51953125 96.9375 C321.22645787 100.27959523 323.53042095 103.73734321 325.8125 107.375 C326.21919922 108.01566406 326.62589844 108.65632813 327.04492188 109.31640625 C328.03372018 110.8752177 329.01740665 112.43726984 330 114 C330.73863281 112.91203125 331.47726562 111.8240625 332.23828125 110.703125 C340.54771531 98.60688621 349.3115708 85.91981075 362 78 C362.66 78 363.32 78 364 78 C364.20625 77.319375 364.4125 76.63875 364.625 75.9375 C368.7994706 67.01931282 376.44117956 62.3074349 385.3125 58.625 C396.42357193 56.74176747 406.72845275 57.68181963 416.5390625 63.5078125 C422.04784737 67.46897887 425.75597434 72.07341467 429 78 C429.51046875 78.88558594 429.51046875 78.88558594 430.03125 79.7890625 C433.75393305 87.61359077 433.07473043 99.04622109 430.9375 107.25 C426.47891805 119.62569008 419.04430141 128.51284606 408.4375 136 C399.41003066 142.41621788 393.9113339 150.78753158 388 160 C388.67804687 159.96519531 389.35609375 159.93039063 390.0546875 159.89453125 C400.71896269 159.5843515 409.84792545 161.79874103 418 169 C425.43545963 177.88433935 426.97662275 186.60194717 426 198 C424.4615558 205.16712329 421.32229446 210.49469971 416.5859375 216.02734375 C415.04652532 217.94212983 414.00850985 219.76829751 413 222 C413.39832031 222.42410156 413.79664063 222.84820312 414.20703125 223.28515625 C414.73683594 223.87167969 415.26664063 224.45820313 415.8125 225.0625 C416.59560547 225.91521484 416.59560547 225.91521484 417.39453125 226.78515625 C421.33849113 232.2260936 422.45614893 237.50143674 422.7734375 244.109375 C422.87332752 245.67493063 422.97393984 247.2404403 423.07519531 248.8059082 C423.12341431 249.61387848 423.1716333 250.42184875 423.22131348 251.25430298 C424.03372757 264.44699793 425.08604423 277.0592885 429.23925781 289.67822266 C434.12927074 304.60249189 438.2192463 319.38480602 440 335 C440.11794922 336.02109863 440.23589844 337.04219727 440.35742188 338.09423828 C443.43505929 365.42222334 445.78540622 393.00754044 446.63807678 420.49923706 C446.82483327 425.94486657 447.18344205 431.33436888 447.73068237 436.75505066 C449.02799497 449.71433845 449.26869945 462.59149178 449.34768677 475.60671997 C449.52352643 498.65939749 450.4933612 521.2140458 454 544 C454.18435608 545.20955353 454.18435608 545.20955353 454.37243652 546.44354248 C458.86746265 575.76012833 464.59369523 604.865733 470.20727539 633.98364258 C474.36961086 655.58189786 478.35948478 677.20404642 482.11035156 698.87792969 C482.87029417 703.26532048 483.64457713 707.65006647 484.42189026 712.03440857 C487.33411217 728.48639694 490.1145575 744.90344767 492.0625 761.5 C494.81833614 784.71059009 497.94951944 807.23813737 507.16162109 828.87792969 C508.3768964 831.9539847 509.15145339 835.10370699 509.9375 838.3125 C512.6667921 848.46884802 518.39169501 857.56467941 524.5625 866 C528.76232629 871.80847535 531.77752693 878.1707792 534.85839844 884.61376953 C536.1276465 887.26681286 537.41153185 889.91255398 538.6953125 892.55859375 C539.61023862 894.45531282 540.52431048 896.35244422 541.4375 898.25 C541.87489502 899.15532471 542.31229004 900.06064941 542.76293945 900.9934082 C543.16988037 901.84636475 543.57682129 902.69932129 543.99609375 903.578125 C544.35888428 904.33512695 544.7216748 905.09212891 545.09545898 905.87207031 C548.6795003 914.30351542 548.52622113 927.06210321 545.5 935.6875 C542.47293706 941.89137458 537.52381312 945.52380742 531.6875 948.9375 C521.60978435 951.84124858 513.21452529 949.62288049 504 945 C493.83186217 939.26647187 485.3878974 932.04768897 477 924 C475.17288956 922.34726109 473.33991887 920.70096789 471.5 919.0625 C467.19354839 915.22258065 467.19354839 915.22258065 465.28125 913.0234375 C461.91581636 910.03834396 458.07155558 908.41634877 454 906.5625 C453.14712402 906.16780518 452.29424805 905.77311035 451.41552734 905.36645508 C448.94914098 904.23176796 446.47658909 903.11221555 444 902 C442.85789062 901.48695313 441.71578125 900.97390625 440.5390625 900.4453125 C427.1435962 894.66335519 415.31748237 890.63195453 401 895 C400.05125 895.28875 399.1025 895.5775 398.125 895.875 C395.87043232 896.80504302 395.87043232 896.80504302 395.0625 898.875 C393.47502239 902.04995523 391.00735796 903.24570785 388 905 C387.34 905 386.68 905 386 905 C385.74347656 905.56460938 385.48695313 906.12921875 385.22265625 906.7109375 C380.77090699 915.04552238 373.33238046 922.0712481 367 929 C364.76807725 931.47947756 362.54019484 933.96244299 360.31640625 936.44921875 C358.7432687 938.18152704 357.14579929 939.89198526 355.52734375 941.58203125 C344.16268917 953.57903138 336.38476414 967.37578866 330.55078125 982.77734375 C327.13856094 991.53693396 323.27848861 997.89183732 314.6328125 1002.171875 C307.06507031 1004.55223308 298.99631263 1003.94958018 291.875 1000.5625 C277.53531284 992.42273063 261.93571532 979.75161431 252.0625 966.375 C250.01075039 964.01237923 248.26116457 962.82358883 245.625 961.1875 C242.27462881 959.07233907 240.157607 957.15345937 237.9375 953.875 C232.98146318 946.74645389 225.00029537 945.23098823 217 943 C216.01 942.67 215.02 942.34 214 942 C206.62592136 943.94054701 201.73345046 948.12703477 196 953 C195.12601563 953.66257812 194.25203125 954.32515625 193.3515625 955.0078125 C190.55577433 957.37633736 189.2168955 959.722884 187.50390625 962.90234375 C186 965 186 965 183.27734375 967.12109375 C178.84886254 970.67538127 176.0802601 975.41826831 173 980.125 C171.67328055 982.10858451 170.34379689 984.09032264 169.01171875 986.0703125 C168.34317871 987.06450195 167.67463867 988.05869141 166.98583984 989.08300781 C160.25983097 998.96281529 153.25114394 1008.61488088 145.25 1017.5 C136.77135546 1027.01174455 130.06071742 1037.9656191 123.16699219 1048.64697266 C121.7872814 1050.78182484 120.40064757 1052.91223024 119.00488281 1055.03662109 C112.70922347 1064.62132729 107.27641286 1073.49890535 104.10546875 1084.5546875 C101.90772017 1091.4042078 98.45712788 1098.02984542 93.8671875 1103.578125 C91.95849986 1106.05382863 91.34685532 1107.61511844 90.6875 1110.625 C89.56079651 1114.84387864 87.90464157 1117.90123565 85.4375 1121.5 C82.43365859 1125.94920444 81.23295158 1129.45731633 80.44140625 1134.71484375 C79.338846 1140.42278843 76.29509272 1143.84310774 71.70703125 1147.28125 C68.40381863 1150.60713913 66.30278162 1154.97212446 64.02734375 1159.0390625 C61.88073732 1162.17418326 60.44944946 1163.48034925 57 1165 C52.29133109 1165.82830784 48.19944587 1165.51740802 43.8125 1163.625 C39.79423022 1159.87461487 36.97066817 1155.60226054 34 1151 C33.42121094 1150.12859375 32.84242188 1149.2571875 32.24609375 1148.359375 C26.51702506 1139.5927464 21.64465762 1130.38316733 17.01171875 1121 C13.56826129 1114.1928563 9.77585045 1107.5640459 6 1100.9375 C5.66033203 1100.34074463 5.32066406 1099.74398926 4.97070312 1099.12915039 C2.97266773 1095.63882033 0.88994979 1092.21696557 -1.25 1088.8125 C-4.35415815 1083.69827222 -8 1077.11558413 -8 1071 C-8.70125 1070.773125 -9.4025 1070.54625 -10.125 1070.3125 C-18.15808789 1066.64522075 -21.66762873 1060.3839423 -26 1053 C-26.36609375 1052.40654785 -26.7321875 1051.8130957 -27.109375 1051.20166016 C-33.15574113 1041.39395042 -37.47837173 1031.39802614 -41.375 1020.5625 C-45.53998656 1009.00569233 -50.58154016 999.0513194 -57.6171875 989.00341797 C-59.33771199 986.51072306 -60.93400024 983.95204811 -62.53125 981.37939453 C-66.54589082 974.93983897 -70.96103375 968.9080395 -75.66796875 962.96875 C-77.08456614 961.16537644 -78.47141684 959.33735767 -79.80078125 957.46875 C-83.63380831 952.126297 -87.86675937 948.7020111 -93.27734375 944.98828125 C-96.66240415 942.5162644 -99.47898402 939.71091106 -102.34375 936.6640625 C-105.18998791 933.80439893 -106.81932083 933.02039926 -110.875 932.5625 C-126.66285577 933.02011901 -143.05839452 944.51306712 -154.01171875 955.18359375 C-157.1281869 958.1960062 -160.49425069 960.81173314 -163.9375 963.4375 C-169.40490746 967.62703794 -174.50993247 972.07811018 -179.47436523 976.85327148 C-188.05019775 985.02454384 -196.02067672 988.83679396 -208 989 C-218.08189712 988.18742919 -227.32076156 983.40774263 -233.95703125 975.73828125 C-234.56933594 974.93777344 -235.18164062 974.13726563 -235.8125 973.3125 C-238.46323642 969.90298404 -241.18609104 966.66368212 -244.125 963.5 C-250.26795266 956.63857334 -254.12899407 948.81442225 -258.12231445 940.57519531 C-260.37390351 936.02484451 -262.97865224 931.81143133 -265.75 927.5625 C-273.59972423 915.432901 -279.40861648 902.07700944 -285.13427734 888.84228516 C-288.10537553 882.51969437 -294.03914278 877.45291718 -300.56640625 875.05859375 C-302.29162377 874.56751097 -304.02356165 874.09936137 -305.76171875 873.65625 C-308 873 -308 873 -310.5 871.3125 C-314.59693881 869.16160712 -318.47284778 869.33334341 -323 870 C-327.25892808 871.64382803 -331.12099688 873.83429698 -335.0625 876.125 C-336.08666016 876.69476562 -337.11082031 877.26453125 -338.16601562 877.8515625 C-346.71350527 882.65781866 -354.76405673 887.90034573 -362.4375 894 C-366.28438085 897.03214105 -370.08359008 899.73435155 -374.375 902.125 C-378.54553097 904.511992 -381.15349825 907.21484254 -384.16015625 910.921875 C-387.6257638 914.8363192 -391.85336044 917.84594188 -396 921 C-396.70511719 921.57105469 -397.41023438 922.14210938 -398.13671875 922.73046875 C-404.14613553 927.51202827 -410.01941201 930.65349826 -417.9296875 930.28125 C-425.21467772 929.29159095 -431.15743152 926.62241068 -436 921 C-441.27331469 912.68130601 -441.79320448 905.26203753 -439.875 895.75 C-437.27178834 885.20458241 -431.71843278 877.45378081 -425.15234375 868.96484375 C-423.16930986 866.23322357 -421.59870555 863.56092953 -420.0625 860.5625 C-417.86109741 856.3052421 -415.25443426 852.65071675 -412.25 848.9375 C-406.55984619 841.83748248 -402.29971314 834.08323514 -398.078125 826.04638672 C-397.15434272 824.29295759 -396.20470083 822.55319459 -395.25 820.81640625 C-387.02215874 805.36777721 -383.99641892 789.31481517 -381.25439453 772.23364258 C-379.85196006 763.56441791 -378.18250712 755.10895397 -375.875 746.625 C-372.54470719 734.25672221 -370.9363606 721.7389619 -369.38183594 709.04248047 C-369.07997637 706.63725418 -368.75248558 704.24306315 -368.3828125 701.84765625 C-366.56839196 689.88643774 -366.03911947 677.79347687 -365.24560547 665.73144531 C-364.86745741 659.9863013 -364.48127628 654.24233772 -364.0625 648.5 C-363.99998047 647.52949707 -363.93746094 646.55899414 -363.87304688 645.55908203 C-363.49188034 640.47365602 -362.74077134 635.79332488 -361.4375 630.859375 C-359.47510419 622.8068059 -359.74020633 614.97562843 -359.9375 606.75 C-360.14885768 597.05728572 -360.00883199 587.69866299 -358.74617004 578.07592773 C-357.90852314 571.62672721 -357.61737028 565.25576988 -357.625 558.75 C-357.62371094 557.52514893 -357.62242187 556.30029785 -357.62109375 555.03833008 C-357.72141478 545.91082608 -358.5861888 537.0075548 -359.71694946 527.95654297 C-363.61142956 496.73687894 -364.3992329 464.08377889 -359 433 C-358.64382046 430.86860824 -358.2883886 428.73709144 -357.93359375 426.60546875 C-357.33789147 423.04360256 -356.73619237 419.48326567 -356.11621094 415.92553711 C-354.67725414 407.54092758 -353.45163964 399.14425724 -352.33203125 390.7109375 C-352.18613556 389.62306442 -352.04023987 388.53519135 -351.8899231 387.41435242 C-351.00771785 380.82911775 -351.00771785 380.82911775 -350.15881348 374.23953247 C-348.65933222 362.36186184 -346.70211099 351.03662696 -343.2177124 339.57229614 C-340.55284658 330.76107332 -338.84743795 321.8798051 -337.3125 312.8125 C-337.16525482 311.96669373 -337.01800964 311.12088745 -336.86630249 310.24945068 C-334.63294736 297.35974956 -333.14608625 284.52026556 -332.14852905 271.48184204 C-329.64138731 238.7875954 -329.64138731 238.7875954 -319.5 227.125 C-317.03789719 225.03221261 -314.52719651 223.01333322 -312 221 C-312.96099609 220.27296875 -312.96099609 220.27296875 -313.94140625 219.53125 C-322.30604275 213.04896836 -330.09754993 206.90052474 -332 196 C-332.9762464 185.7150379 -331.42968647 177.00330549 -324.859375 168.85546875 C-319.24945109 163.25733039 -311.93570837 159.54423518 -304 159 C-299.97115663 159.14127746 -295.99918395 159.49925615 -292 160 C-292.46148437 159.59910156 -292.92296875 159.19820312 -293.3984375 158.78515625 C-295.60422423 156.86272157 -297.80217406 154.93153039 -300 153 C-300.82886719 152.278125 -301.65773438 151.55625 -302.51171875 150.8125 C-307.13028276 146.73854461 -311.33922336 142.61255367 -315.28515625 137.88671875 C-317.07674909 135.91555852 -318.98027449 134.34462087 -321.0625 132.6875 C-328.54681792 126.24953332 -331.77112235 117.84950115 -332.87890625 108.19921875 C-333.27550354 97.72137431 -329.63164601 89.24571091 -323.75 80.75 C-315.93491539 72.93491539 -307.01471333 69.04169768 -295.9375 68.625 C-276.96106812 69.31669245 -264.76304223 84.00186354 -252.4453125 96.67895508 C-251.78402344 97.3520874 -251.12273437 98.02521973 -250.44140625 98.71875 C-249.85045166 99.32654297 -249.25949707 99.93433594 -248.65063477 100.56054688 C-246.94906732 102.23097117 -246.94906732 102.23097117 -244 103 C-243.32130859 102.25169922 -243.32130859 102.25169922 -242.62890625 101.48828125 C-236.98616201 95.54686624 -230.84093635 90.70398949 -224.29541016 85.80224609 C-220.34293067 82.82986356 -216.55664352 79.817412 -212.9375 76.4375 C-198.39095617 63.02509349 -182.92619049 53.29974706 -163.90576172 47.78393555 C-156.61244973 45.64776978 -149.57031592 42.97813303 -142.48426819 40.2477417 C-135.90566238 37.71564832 -129.30354622 35.25977622 -122.67578125 32.859375 C-121.73996216 32.520271 -120.80414307 32.18116699 -119.83996582 31.83178711 C-116.99794124 30.80323557 -114.15532861 29.77632704 -111.3125 28.75 C-107.49538851 27.37173194 -103.67910927 25.99119186 -99.86328125 24.609375 C-99.01832596 24.30513611 -98.17337067 24.00089722 -97.30281067 23.68743896 C-93.06162638 22.15146111 -88.8384727 20.57406093 -84.63623047 18.93432617 C-83.84401093 18.62532883 -83.05179138 18.31633148 -82.23556519 17.99797058 C-79.97946527 16.99083316 -78.00902338 15.81228985 -75.95703125 14.44140625 C-71.76453011 11.69162183 -67.48045002 10.31273333 -62.6875 8.9375 C-60.99803867 8.43319287 -59.30922961 7.92669519 -57.62109375 7.41796875 C-56.81913574 7.17739746 -56.01717773 6.93682617 -55.19091797 6.68896484 C-52.48813849 5.83903798 -49.87576513 4.81215161 -47.25 3.75 C-32.31542053 -1.68075617 -15.61814422 -0.27926211 0 0 Z M280.875 322.9375 C275.72097642 326.88331729 270.38214867 330.28374522 264.77856445 333.55029297 C260.23837582 336.21124731 255.89515565 339.07802255 251.5625 342.0625 C243.48750604 347.58315914 234.81916663 352.16668429 225.78125 355.921875 C223.27972382 357.43595664 221.92652331 359.41241266 220.1875 361.75 C215.22807823 368.11079967 209.78241473 372.42550814 203.3125 377.1875 C198.4843753 380.77410692 194.04256266 384.58800075 189.6418457 388.69750977 C179.91809928 397.76996497 169.76524626 406.19223898 159 414 C160.36242426 417.06713244 161.89699705 419.11840293 164.3125 421.4375 C164.94027344 422.04851562 165.56804688 422.65953125 166.21484375 423.2890625 C167.09849609 424.13597656 167.09849609 424.13597656 168 425 C174.63555833 431.46093837 180.80681522 438.13156204 186 445.8125 C189.6474884 450.91898375 193.09268191 453.85374256 199 456 C199.66257812 456.25007812 200.32515625 456.50015625 201.0078125 456.7578125 C209.05808325 458.68620435 216.99732079 453.46487706 224 450 C225.33224609 449.35611328 225.33224609 449.35611328 226.69140625 448.69921875 C228.23828057 447.93755982 229.77868821 447.16263308 231.3125 446.375 C233.47045109 445.270932 235.63616268 444.19191536 237.8125 443.125 C241.27240294 441.42663558 244.71601028 439.69900098 248.14794922 437.94482422 C249.7617254 437.12155585 251.38226169 436.31156538 253.00390625 435.50390625 C258.72911603 432.41841151 261.92548603 429.00814227 265.33203125 423.46484375 C267 421 267 421 269.31640625 418.95703125 C273.38901568 414.46945434 275.58140866 409.21142679 278.125 403.75 C278.64964844 402.65558594 279.17429687 401.56117188 279.71484375 400.43359375 C284.30879539 390.72232889 287.42051594 382.59462236 287.6875 371.8125 C287.72020996 370.8428833 287.75291992 369.8732666 287.78662109 368.87426758 C288.04009881 360.31436544 288.09816603 351.750693 288.125 343.1875 C288.12975342 341.93106689 288.13450684 340.67463379 288.1394043 339.38012695 C288.12702124 332.52403982 287.86366362 325.80405606 287 319 C284.85716371 319 282.42908448 321.72531411 280.875 322.9375 Z M-187 320 C-193.94142069 347.20362439 -192.24311667 388.42485518 -178.48950195 413.46484375 C-176.55947797 416.53645962 -174.40931932 419.29267445 -172 422 C-171.3181665 422.78769775 -171.3181665 422.78769775 -170.62255859 423.59130859 C-165.14711131 429.79271838 -159.14451737 434.84927897 -152 439 C-151.15308594 439.57065186 -151.15308594 439.57065186 -150.2890625 440.15283203 C-135.70438816 449.97144315 -120.59495324 451.3024324 -103.52246094 452.67797852 C-101.12032895 452.89758013 -98.72371226 453.18559546 -96.33666992 453.53271484 C-93.61943974 453.91325034 -91.11257351 454.11761003 -88.37890625 454.09765625 C-87.58935547 454.09443359 -86.79980469 454.09121094 -85.98632812 454.08789062 C-85.18646484 454.07951172 -84.38660156 454.07113281 -83.5625 454.0625 C-82.32209961 454.05573242 -82.32209961 454.05573242 -81.05664062 454.04882812 C-79.03772854 454.03715811 -77.01885426 454.01922718 -75 454 C-74.50371094 452.98421875 -74.00742187 451.9684375 -73.49609375 450.921875 C-62.3961616 428.35880023 -62.3961616 428.35880023 -54.96875 419.71875 C-53.84084075 418.04296925 -53.84084075 418.04296925 -53.98828125 416.03125 C-55.51860999 412.95877531 -57.81168065 411.83164369 -60.6875 410 C-65.84061918 406.62253048 -70.51490127 402.95976042 -75.125 398.875 C-80.76805775 393.92741931 -86.53023207 389.82821695 -93 386 C-96.00421295 384.17355881 -99.00153163 382.33585353 -102 380.5 C-103.5676062 379.54149962 -105.13531231 378.5831626 -106.703125 377.625 C-107.44498047 377.17125 -108.18683594 376.7175 -108.95117188 376.25 C-110.66731417 375.20297325 -112.38782913 374.16311811 -114.109375 373.125 C-120.64693188 369.10188808 -126.58351112 364.49395181 -132.5703125 359.7109375 C-136.47410364 356.60143365 -140.49946497 353.67403533 -144.5546875 350.765625 C-146.73397669 349.19208073 -148.86966448 347.57621963 -151 345.9375 C-154.0238691 343.64799911 -157.15236768 341.62447636 -160.375 339.625 C-165.93323096 336.13673091 -170.94804086 332.17575998 -176 328 C-177.85098455 326.49607506 -179.70507622 324.99596489 -181.5625 323.5 C-182.80193359 322.49453125 -182.80193359 322.49453125 -184.06640625 321.46875 C-185.72802447 319.89918678 -185.72802447 319.89918678 -187 320 Z " fill="#000000" transform="translate(456,17)"/>
<path d="M0 0 C6.82056051 3.60990387 13.20760333 7.6910503 19.5625 12.0625 C20.52269043 12.7215332 21.48288086 13.38056641 22.47216797 14.05957031 C63.41110038 42.31637052 63.41110038 42.31637052 67.52734375 60.2109375 C69.30556102 70.70388899 66.89993585 80.32786337 64.48071289 90.5222168 C62.71904911 99.60252442 62.80289103 108.66569072 62.8125 117.875 C62.81191086 119.06619949 62.81191086 119.06619949 62.81130981 120.28146362 C62.81922435 133.68582617 63.4195326 146.94246752 64.74047852 160.28881836 C64.91188799 162.07950715 65.06381033 163.87218093 65.19506836 165.66625977 C67.84248054 200.62290628 81.98287375 232.15898703 108.62890625 255.28125 C117.37313368 262.5782409 126.59017292 268.52555597 136.5625 274 C137.87444336 274.7425 137.87444336 274.7425 139.21289062 275.5 C153.90661616 283.57786772 167.6540327 287.03599692 184.1875 288.8125 C186.81087645 289.11466775 189.43355327 289.42245093 192.05622864 289.7306366 C193.66951044 289.91805807 195.28333545 290.10088269 196.89775085 290.27827454 C200.6427837 290.69277352 204.32051869 291.18117301 208 292 C207.043419 293.77178053 206.08467012 295.54239076 205.125 297.3125 C204.59132813 298.29863281 204.05765625 299.28476562 203.5078125 300.30078125 C202 303 202 303 200 306 C199.5505968 307.36465119 199.13683754 308.74131187 198.75 310.125 C197.06770885 315.40480608 194.21637599 319.53828623 191 324 C189.22393226 326.66410162 188.57331627 328.20561736 187.75 331.1875 C183.25972328 344.97108577 169.87777352 352.82889969 158.37890625 360.3828125 C157.08576673 361.23411566 155.79280113 362.08568304 154.5 362.9375 C153.8488623 363.36506592 153.19772461 363.79263184 152.52685547 364.2331543 C148.84449534 366.67862386 145.42197847 369.24140044 142.0625 372.125 C137.69516117 375.70991657 133.02888286 378.14669566 127.96630859 380.56762695 C121.06249357 383.89153789 114.3761864 387.57716637 107.6875 391.3125 C106.5833374 391.92367676 105.4791748 392.53485352 104.34155273 393.16455078 C103.30458252 393.74575684 102.2676123 394.32696289 101.19921875 394.92578125 C99.80449341 395.70562378 99.80449341 395.70562378 98.3815918 396.5012207 C93.88471826 399.3311855 92.23075462 401.76929287 91 407 C91.20202068 411.94950675 92.64798966 414.42111925 96 418 C98.71933446 419.41783139 98.71933446 419.41783139 101.8125 420.375 C122.20931876 427.72520496 122.20931876 427.72520496 129.84765625 435.1796875 C133.63895038 438.38611774 138.08110197 440.56859231 142.4375 442.91015625 C150.00450138 447.18380785 156.12870446 452.83104454 162.1875 459 C162.87263672 459.68578125 163.55777344 460.3715625 164.26367188 461.078125 C167.19726284 464.03712724 170.05499197 466.99289937 172.67578125 470.234375 C174.95012876 472.94065742 177.24285593 475.04764711 180 477.25 C180.95777344 478.02085937 181.91554688 478.79171875 182.90234375 479.5859375 C185.00457034 481.22424271 187.11036841 482.83273271 189.25390625 484.4140625 C200.27502824 492.57520089 208.6274759 502.09513209 216.4296875 513.328125 C218.61239935 516.47028909 220.87295532 519.54659652 223.15844727 522.61450195 C227.56333531 528.5298124 231.68517461 534.52899489 235.57519531 540.79418945 C238.35654048 545.19550041 241.50537925 549.17229862 244.8125 553.1875 C248.71883582 557.97075481 251.42381233 562.27206438 253.12109375 568.3046875 C253.86685847 570.5916993 254.70522211 572.46388478 255.8046875 574.5859375 C258.48867476 579.81906908 260.55310935 585.27533639 262.6875 590.75 C265.78785983 598.61890736 269.00774427 606.38828033 272.5625 614.0625 C277.66979479 625.13660992 281.84396948 636.54199935 286 648 C288.51342478 654.92420445 291.04780002 661.83794673 293.64501953 668.73120117 C294.92140765 672.12114017 296.19136632 675.51287072 297.4375 678.9140625 C302.28843602 692.10715105 307.62966716 705.09624188 313.625 717.8125 C314.7508071 720.20795668 315.87565534 722.60385565 317 725 C317.56074219 726.19367187 318.12148438 727.38734375 318.69921875 728.6171875 C321.66228035 735.17466523 323.58128705 741.03897016 324.515625 748.16796875 C325.00047179 751.00275846 325.7991601 753.33936517 326.875 756 C331.33820003 767.50772844 332.83200317 780.27116685 334.4375 792.44140625 C335.23394726 797.48004133 336.38526458 802.42138367 337.54125977 807.38793945 C338.56796225 811.85321224 339.36040584 816.26170036 339.9375 820.8125 C340.75248087 826.5828556 342.5501358 831.61049507 344.77734375 836.98046875 C345.861255 839.6573486 346.70594774 842.29012327 347.5 845.0625 C348.79959167 848.99737479 350.25947124 850.95971159 354 853 C358.02637905 854.09810338 360.27345095 854.23752565 364.25 852.9375 C370.47308335 848.55305491 371.84918336 840.03703507 373.375 832.9375 C374.91291326 826.16609087 376.83317045 819.59501477 379 813 C379.2259082 812.29697754 379.45181641 811.59395508 379.68457031 810.86962891 C380.41993729 808.59511031 381.17608652 806.3284196 381.9375 804.0625 C382.16606689 803.35254883 382.39463379 802.64259766 382.63012695 801.91113281 C384.32262766 796.99024668 386.55625249 793.88954007 390 790 C392.25475911 785.90863711 393.13936135 781.47677573 393.875 776.8984375 C394.8873061 771.18705491 396.4828698 765.80881402 398.3125 760.3125 C398.94611412 758.37916878 399.57892183 756.4455731 400.2109375 754.51171875 C400.51870117 753.57376465 400.82646484 752.63581055 401.14355469 751.66943359 C401.89861214 749.31601335 402.60896847 746.95796556 403.2890625 744.58203125 C405.48092841 736.97870832 408.26269469 730.2706439 411.98364258 723.28637695 C415.14428969 717.15652423 416.99869635 710.84380125 418.84912109 704.22070312 C420.53196499 698.28664501 422.7301547 692.92199738 425.48706055 687.39306641 C427.06780399 683.84793611 428.17658128 680.27823308 429.2421875 676.55859375 C431.74642316 668.2292895 435.19766978 660.58625624 439.0625 652.8125 C439.72614489 651.45767538 440.38963542 650.10277514 441.05297852 648.74780273 C445.78554897 639.14744553 450.92655026 629.83261841 456.3515625 620.60546875 C459.24402569 615.65598181 461.76796158 610.55913143 464.26855469 605.40405273 C466.66340586 600.52413339 469.43445737 596.02286682 472.42578125 591.4921875 C473.91869283 589.12871954 475.16555526 586.76795663 476.375 584.25 C478.80064119 579.21519872 481.65407706 574.50163219 484.56640625 569.73925781 C487.00303838 565.73248567 489.23749043 561.6773925 491.375 557.5 C494.02639666 552.46851238 497.08049335 548.0195805 500.5 543.5 C504.61654267 538.05716954 508.00123068 532.58868918 511.140625 526.51171875 C517.15680484 515.14922784 523.82800412 504.62851501 532.3828125 495.0234375 C534.96180392 492.04412502 537.22465914 488.96462748 539.5 485.75 C543.23709899 480.6782228 547.3295651 476.92701664 552.30078125 473.0859375 C554.86284457 471.10599277 557.27961728 469.0383645 559.6875 466.875 C560.41582031 466.22144531 561.14414062 465.56789063 561.89453125 464.89453125 C562.58933594 464.26933594 563.28414062 463.64414062 564 463 C569.30640768 458.26783283 574.75215536 453.74110605 580.2734375 449.26171875 C582.76734097 447.19299366 585.17055794 445.05986581 587.5625 442.875 C593.17286758 437.84570621 599.12954244 433.22816354 606 430.0625 C612.31580701 427.06538588 618.13337591 422.69013471 622.125 416.9375 C624.02743468 410.55075499 622.92286417 406.04350835 620.36328125 400.11328125 C618.6233605 397.41615482 616.56705151 395.91688126 614 394 C612.25 392.54166667 610.5 391.08333333 608.75 389.625 C604.69239253 386.29623891 600.572148 383.2943965 596.16796875 380.44921875 C593.14034623 378.42534856 590.31158964 376.17957068 587.453125 373.92578125 C578.3842249 366.72765088 578.3842249 366.72765088 568.6875 360.4375 C564.98029818 358.21471717 562.45081278 355.40100035 559.73828125 352.0625 C557.0912597 348.92176431 554.14090379 346.10861551 551.19702148 343.24804688 C549.14668805 341.25425164 547.10457131 339.25225377 545.0625 337.25 C544.02706055 336.25226563 544.02706055 336.25226563 542.97070312 335.234375 C538.78752236 331.11067074 535.436256 326.92822166 532.28491211 321.97314453 C530.80296298 319.69742481 529.13286432 317.76618002 527.25 315.8125 C523.72708613 311.94071505 520.53546831 307.90115113 517.4375 303.6875 C516.7563916 302.78898315 516.7563916 302.78898315 516.06152344 301.87231445 C513.01117231 297.64687678 513.01117231 297.64687678 512.9609375 294.73828125 C514.35374183 292.40821385 515.76402473 291.70158908 518.1875 290.5 C520.87124274 289.14669872 523.33923725 287.77103822 525.8359375 286.0859375 C529.2687359 283.82283337 532.759724 281.94985414 536.4375 280.125 C537.13198242 279.77767822 537.82646484 279.43035645 538.54199219 279.07250977 C543.19703242 276.78344799 547.90541312 274.7861089 552.75 272.9375 C558.56521712 270.69057318 563.68329611 267.9580168 568.98828125 264.70703125 C572.16720273 262.9052301 575.36003659 261.54731583 578.75 260.1875 C594.20203968 253.77344579 606.09029783 245.29823571 614.80639648 230.97363281 C617.55827811 226.47360672 620.15707879 223.11432445 624.6875 220.375 C629.63329693 217.19466476 633.24075693 212.44888839 637 208 C637.57234375 207.33742188 638.1446875 206.67484375 638.734375 205.9921875 C642.47971029 201.37808887 644.6221946 196.52699809 646.78125 191.01171875 C647.90930515 188.22412092 649.17302318 185.60207598 650.5625 182.9375 C651.38024688 181.29426732 652.19285605 179.64846664 653 178 C653.38542969 177.24332031 653.77085937 176.48664063 654.16796875 175.70703125 C656.77830901 169.77957989 657.36611054 164.1499818 657.609375 157.76953125 C657.64844971 156.82852066 657.68752441 155.88751007 657.7277832 154.91798401 C658.26242568 140.10067629 658.06716341 125.26164903 658 110.4375 C657.8451246 76.2246121 657.8451246 76.2246121 658.390625 63.8203125 C658.42357666 63.01416 658.45652832 62.20800751 658.49047852 61.37742615 C659.05533593 50.74759483 661.91739292 42.1551384 669.75 34.6875 C675.23124925 29.80837578 681.28407047 26.45847501 687.83203125 23.22143555 C693.27585119 20.50752395 697.70360397 17.28042713 702.3046875 13.27734375 C705.37848303 10.68020927 708.57153399 8.35538458 711.875 6.0625 C712.92429687 5.33160156 713.97359375 4.60070312 715.0546875 3.84765625 C717.67090489 2.20644826 720.0966894 1.02312237 723 0 C724.11561831 1.17674808 725.21689898 2.36709267 726.3125 3.5625 C726.92738281 4.22378906 727.54226563 4.88507813 728.17578125 5.56640625 C732.29615672 11.06318123 733.44919772 16.35666901 733.7734375 23.109375 C733.87332752 24.67493063 733.97393984 26.2404403 734.07519531 27.8059082 C734.1475238 29.01786362 734.1475238 29.01786362 734.22131348 30.25430298 C735.03372757 43.44699793 736.08604423 56.0592885 740.23925781 68.67822266 C745.12927074 83.60249189 749.2192463 98.38480602 751 114 C751.11794922 115.02109863 751.23589844 116.04219727 751.35742188 117.09423828 C754.43505929 144.42222334 756.78540622 172.00754044 757.63807678 199.49923706 C757.82483327 204.94486657 758.18344205 210.33436888 758.73068237 215.75505066 C760.02799497 228.71433845 760.26869945 241.59149178 760.34768677 254.60671997 C760.52352643 277.65939749 761.4933612 300.2140458 765 323 C765.12290405 323.80636902 765.24580811 324.61273804 765.37243652 325.44354248 C769.86746265 354.76012833 775.59369523 383.865733 781.20727539 412.98364258 C785.36961086 434.58189786 789.35948478 456.20404642 793.11035156 477.87792969 C793.87029417 482.26532048 794.64457713 486.65006647 795.42189026 491.03440857 C798.33411217 507.48639694 801.1145575 523.90344767 803.0625 540.5 C805.81833614 563.71059009 808.94951944 586.23813737 818.16162109 607.87792969 C819.3768964 610.9539847 820.15145339 614.10370699 820.9375 617.3125 C823.6667921 627.46884802 829.39169501 636.56467941 835.5625 645 C839.76232629 650.80847535 842.77752693 657.1707792 845.85839844 663.61376953 C847.1276465 666.26681286 848.41153185 668.91255398 849.6953125 671.55859375 C850.61023862 673.45531282 851.52431048 675.35244422 852.4375 677.25 C852.87489502 678.15532471 853.31229004 679.06064941 853.76293945 679.9934082 C854.16988037 680.84636475 854.57682129 681.69932129 854.99609375 682.578125 C855.35888428 683.33512695 855.7216748 684.09212891 856.09545898 684.87207031 C859.6795003 693.30351542 859.52622113 706.06210321 856.5 714.6875 C853.47293706 720.89137458 848.52381312 724.52380742 842.6875 727.9375 C832.60978435 730.84124858 824.21452529 728.62288049 815 724 C804.83186217 718.26647187 796.3878974 711.04768897 788 703 C786.17288956 701.34726109 784.33991887 699.70096789 782.5 698.0625 C778.19354839 694.22258065 778.19354839 694.22258065 776.28125 692.0234375 C772.91581636 689.03834396 769.07155558 687.41634877 765 685.5625 C764.14712402 685.16780518 763.29424805 684.77311035 762.41552734 684.36645508 C759.94914098 683.23176796 757.47658909 682.11221555 755 681 C753.85789062 680.48695313 752.71578125 679.97390625 751.5390625 679.4453125 C738.1435962 673.66335519 726.31748237 669.63195453 712 674 C711.05125 674.28875 710.1025 674.5775 709.125 674.875 C706.87043232 675.80504302 706.87043232 675.80504302 706.0625 677.875 C704.47502239 681.04995523 702.00735796 682.24570785 699 684 C698.34 684 697.68 684 697 684 C696.74347656 684.56460938 696.48695313 685.12921875 696.22265625 685.7109375 C691.77090699 694.04552238 684.33238046 701.0712481 678 708 C675.76807725 710.47947756 673.54019484 712.96244299 671.31640625 715.44921875 C669.7432687 717.18152704 668.14579929 718.89198526 666.52734375 720.58203125 C655.16268917 732.57903138 647.38476414 746.37578866 641.55078125 761.77734375 C638.13856094 770.53693396 634.27848861 776.89183732 625.6328125 781.171875 C618.06507031 783.55223308 609.99631263 782.94958018 602.875 779.5625 C588.53531284 771.42273063 572.93571532 758.75161431 563.0625 745.375 C561.01075039 743.01237923 559.26116457 741.82358883 556.625 740.1875 C553.27462881 738.07233907 551.157607 736.15345937 548.9375 732.875 C543.98146318 725.74645389 536.00029537 724.23098823 528 722 C527.01 721.67 526.02 721.34 525 721 C517.62592136 722.94054701 512.73345046 727.12703477 507 732 C506.12601563 732.66257812 505.25203125 733.32515625 504.3515625 734.0078125 C501.55577433 736.37633736 500.2168955 738.722884 498.50390625 741.90234375 C497 744 497 744 494.27734375 746.12109375 C489.84886254 749.67538127 487.0802601 754.41826831 484 759.125 C482.67328055 761.10858451 481.34379689 763.09032264 480.01171875 765.0703125 C479.34317871 766.06450195 478.67463867 767.05869141 477.98583984 768.08300781 C471.25983097 777.96281529 464.25114394 787.61488088 456.25 796.5 C447.77135546 806.01174455 441.06071742 816.9656191 434.16699219 827.64697266 C432.7872814 829.78182484 431.40064757 831.91223024 430.00488281 834.03662109 C423.70922347 843.62132729 418.27641286 852.49890535 415.10546875 863.5546875 C412.90772017 870.4042078 409.45712788 877.02984542 404.8671875 882.578125 C402.95849986 885.05382863 402.34685532 886.61511844 401.6875 889.625 C400.56079651 893.84387864 398.90464157 896.90123565 396.4375 900.5 C393.43365859 904.94920444 392.23295158 908.45731633 391.44140625 913.71484375 C390.338846 919.42278843 387.29509272 922.84310774 382.70703125 926.28125 C379.40381863 929.60713913 377.30278162 933.97212446 375.02734375 938.0390625 C372.88073732 941.17418326 371.44944946 942.48034925 368 944 C363.29133109 944.82830784 359.19944587 944.51740802 354.8125 942.625 C350.79423022 938.87461487 347.97066817 934.60226054 345 930 C344.42121094 929.12859375 343.84242188 928.2571875 343.24609375 927.359375 C337.51702506 918.5927464 332.64465762 909.38316733 328.01171875 900 C324.56826129 893.1928563 320.77585045 886.5640459 317 879.9375 C316.49049805 879.04236694 316.49049805 879.04236694 315.97070312 878.12915039 C313.97266773 874.63882033 311.88994979 871.21696557 309.75 867.8125 C306.64584185 862.69827222 303 856.11558413 303 850 C302.29875 849.773125 301.5975 849.54625 300.875 849.3125 C292.84191211 845.64522075 289.33237127 839.3839423 285 832 C284.63390625 831.40654785 284.2678125 830.8130957 283.890625 830.20166016 C277.84425887 820.39395042 273.52162827 810.39802614 269.625 799.5625 C265.46001344 788.00569233 260.41845984 778.0513194 253.3828125 768.00341797 C251.66228801 765.51072306 250.06599976 762.95204811 248.46875 760.37939453 C244.45410918 753.93983897 240.03896625 747.9080395 235.33203125 741.96875 C233.91543386 740.16537644 232.52858316 738.33735767 231.19921875 736.46875 C227.36619169 731.126297 223.13324063 727.7020111 217.72265625 723.98828125 C214.33759585 721.5162644 211.52101598 718.71091106 208.65625 715.6640625 C205.81001209 712.80439893 204.18067917 712.02039926 200.125 711.5625 C184.33714423 712.02011901 167.94160548 723.51306712 156.98828125 734.18359375 C153.8718131 737.1960062 150.50574931 739.81173314 147.0625 742.4375 C141.59509254 746.62703794 136.49006753 751.07811018 131.52563477 755.85327148 C122.94980225 764.02454384 114.97932328 767.83679396 103 768 C92.91810288 767.18742919 83.67923844 762.40774263 77.04296875 754.73828125 C76.43066406 753.93777344 75.81835938 753.13726563 75.1875 752.3125 C72.53676358 748.90298404 69.81390896 745.66368212 66.875 742.5 C60.73204734 735.63857334 56.87100593 727.81442225 52.87768555 719.57519531 C50.62609649 715.02484451 48.02134776 710.81143133 45.25 706.5625 C37.40027577 694.432901 31.59138352 681.07700944 25.86572266 667.84228516 C22.89462447 661.51969437 16.96085722 656.45291718 10.43359375 654.05859375 C8.70837623 653.56751097 6.97643835 653.09936137 5.23828125 652.65625 C3 652 3 652 0.5 650.3125 C-3.59693881 648.16160712 -7.47284778 648.33334341 -12 649 C-16.25892808 650.64382803 -20.12099688 652.83429698 -24.0625 655.125 C-25.08666016 655.69476562 -26.11082031 656.26453125 -27.16601562 656.8515625 C-35.71350527 661.65781866 -43.76405673 666.90034573 -51.4375 673 C-55.28438085 676.03214105 -59.08359008 678.73435155 -63.375 681.125 C-67.54553097 683.511992 -70.15349825 686.21484254 -73.16015625 689.921875 C-76.6257638 693.8363192 -80.85336044 696.84594188 -85 700 C-85.70511719 700.57105469 -86.41023438 701.14210938 -87.13671875 701.73046875 C-93.14613553 706.51202827 -99.01941201 709.65349826 -106.9296875 709.28125 C-114.21467772 708.29159095 -120.15743152 705.62241068 -125 700 C-130.27331469 691.68130601 -130.79320448 684.26203753 -128.875 674.75 C-126.27178834 664.20458241 -120.71843278 656.45378081 -114.15234375 647.96484375 C-112.16930986 645.23322357 -110.59870555 642.56092953 -109.0625 639.5625 C-106.86109741 635.3052421 -104.25443426 631.65071675 -101.25 627.9375 C-95.55984619 620.83748248 -91.29971314 613.08323514 -87.078125 605.04638672 C-86.15434272 603.29295759 -85.20470083 601.55319459 -84.25 599.81640625 C-76.02215874 584.36777721 -72.99641892 568.31481517 -70.25439453 551.23364258 C-68.85196006 542.56441791 -67.18250712 534.10895397 -64.875 525.625 C-61.54470719 513.25672221 -59.9363606 500.7389619 -58.38183594 488.04248047 C-58.07997637 485.63725418 -57.75248558 483.24306315 -57.3828125 480.84765625 C-55.56839196 468.88643774 -55.03911947 456.79347687 -54.24560547 444.73144531 C-53.86745741 438.9863013 -53.48127628 433.24233772 -53.0625 427.5 C-52.99998047 426.52949707 -52.93746094 425.55899414 -52.87304688 424.55908203 C-52.49188034 419.47365602 -51.74077134 414.79332488 -50.4375 409.859375 C-48.47510419 401.8068059 -48.74020633 393.97562843 -48.9375 385.75 C-49.14885768 376.05728572 -49.00883199 366.69866299 -47.74617004 357.07592773 C-46.90852314 350.62672721 -46.61737028 344.25576988 -46.625 337.75 C-46.62371094 336.52514893 -46.62242188 335.30029785 -46.62109375 334.03833008 C-46.72141478 324.91082608 -47.5861888 316.0075548 -48.71694946 306.95654297 C-52.61142956 275.73687894 -53.3992329 243.08377889 -48 212 C-47.64382046 209.86860824 -47.2883886 207.73709144 -46.93359375 205.60546875 C-46.33789147 202.04360256 -45.73619237 198.48326567 -45.11621094 194.92553711 C-43.67725414 186.54092758 -42.45163964 178.14425724 -41.33203125 169.7109375 C-41.18613556 168.62306442 -41.04023987 167.53519135 -40.8899231 166.41435242 C-40.00771785 159.82911775 -40.00771785 159.82911775 -39.15881348 153.23953247 C-37.65933222 141.36186184 -35.70211099 130.03662696 -32.2177124 118.57229614 C-29.55284658 109.76107332 -27.84743795 100.8798051 -26.3125 91.8125 C-26.16525482 90.96669373 -26.01800964 90.12088745 -25.86630249 89.24945068 C-23.63294736 76.35974956 -22.14608625 63.52026556 -21.14852905 50.48184204 C-18.66038434 18.03532511 -18.66038434 18.03532511 -8.5625 6.125 C-5.80695693 3.83991551 -3.02990292 1.90249718 0 0 Z " fill="#566548" transform="translate(145,238)"/>
<path d="M0 0 C1.81129395 0.02900391 1.81129395 0.02900391 3.65917969 0.05859375 C19.09549771 0.33739046 34.37792146 1.21120593 49.75 2.5625 C67.84992791 4.14951457 85.78548861 4.63604425 103.9375 3.5 C136.90308581 1.44058359 167.31731882 1.72402391 197.16796875 17.06884766 C203.66477009 20.37092659 210.32799332 23.1341173 217.125 25.75 C229.79932734 30.74321159 241.15138741 37.02345436 251.89453125 45.40112305 C260.91425505 52.38051238 270.7632218 58.14958845 280.76171875 63.609375 C283.84123738 65.31010386 286.65036204 67.07162429 289.375 69.3125 C291.74555029 71.23445657 294.09323817 73.06285252 296.625 74.76953125 C303.99510404 79.7422577 309.2862325 85.53646106 314.75219727 92.44384766 C315.97497463 93.96879051 317.24697809 95.45384113 318.51953125 96.9375 C321.22645787 100.27959523 323.53042095 103.73734321 325.8125 107.375 C326.21919922 108.01566406 326.62589844 108.65632813 327.04492188 109.31640625 C328.03372018 110.8752177 329.01740665 112.43726984 330 114 C330.73863281 112.91203125 331.47726562 111.8240625 332.23828125 110.703125 C340.54771531 98.60688621 349.3115708 85.91981075 362 78 C362.66 78 363.32 78 364 78 C364.20625 77.319375 364.4125 76.63875 364.625 75.9375 C368.7994706 67.01931282 376.44117956 62.3074349 385.3125 58.625 C396.42357193 56.74176747 406.72845275 57.68181963 416.5390625 63.5078125 C422.04784737 67.46897887 425.75597434 72.07341467 429 78 C429.51046875 78.88558594 429.51046875 78.88558594 430.03125 79.7890625 C433.75393305 87.61359077 433.07473043 99.04622109 430.9375 107.25 C426.47891805 119.62569008 419.04430141 128.51284606 408.4375 136 C401.74249336 140.76109826 397.33531771 145.92367031 392.87036133 152.79052734 C388.84849198 158.92718656 384.70097645 163.28609173 378.48046875 167.31640625 C374.79469256 169.81809056 372.11595417 172.79440502 369.4375 176.3125 C366.09092414 180.28762056 362.0617964 182.6593094 357.64453125 185.3203125 C355.41015274 186.7394894 353.64980668 188.12114736 351.75 189.9375 C348.44129551 192.95121156 344.65174238 194.81236838 340.6875 196.8125 C334.96558166 199.73236942 330.54685088 202.89716968 325.91015625 207.39453125 C322.05174312 210.8489763 317.89127541 213.79505607 313.6875 216.8125 C307.25867807 221.45269302 301.28405913 226.25774631 295.56665039 231.74584961 C292.09094887 235.06238401 288.48382863 238.01634893 284.625 240.875 C278.81594066 245.18680599 273.57222344 249.97472598 268.37548828 255.00341797 C264.68533088 258.54698705 260.88166268 261.70090943 256.72924805 264.69287109 C254.8088972 266.08209313 254.8088972 266.08209313 252.625 268.375 C246.21665649 274.78334351 239.16722375 279.65140001 231.2487793 283.99487305 C227.39799222 286.12897496 223.87977676 288.46480869 220.375 291.125 C214.02769618 295.88315455 207.1340844 299.135197 199.92578125 302.38671875 C190.29098095 306.88953835 183.54287592 313.00159409 176.625 321 C172.55937839 325.6300928 168.09875203 329.1247717 163.109375 332.71484375 C159.93605664 335.04699355 156.93996735 337.5150698 153.9375 340.0625 C149.28116726 343.99451431 144.48085313 347.59813683 139.51953125 351.1328125 C136.52024958 353.35553597 133.78862854 355.79457751 131.01953125 358.29296875 C128.0408969 360.81069256 124.80805351 362.91579557 121.57421875 365.08984375 C118.77362627 367.16797687 116.41330195 369.48472877 113.9375 371.9375 C110.80871038 374.79698848 108.67440043 376.64251541 104.375 376.9375 C99.13007353 376.35677879 95.85809608 373.35684738 92 370 C90.57117389 368.90525194 89.13381331 367.82153869 87.6875 366.75 C87.05199219 366.27046875 86.41648437 365.7909375 85.76171875 365.296875 C81.73839203 362.3351356 79.06917986 361.55944229 74.125 360.9375 C67.24370192 360.05359653 67.24370192 360.05359653 64.67211914 359.48803711 C43.48141354 355.61775657 22.56671125 359.37307278 3.82910156 369.40820312 C-1.76804686 372.31125372 -6.11096653 372.7220681 -12.3984375 371.5546875 C-27.05058528 366.5162019 -38.78113911 355.67908751 -50.2109375 345.5625 C-56.7755965 339.82917336 -63.79993372 335.18108675 -71.20068359 330.61962891 C-76.01363189 327.64449581 -80.57907859 324.53673713 -85 321 C-87.28898118 319.18409452 -89.58158618 317.37280273 -91.875 315.5625 C-92.7885022 314.83969849 -92.7885022 314.83969849 -93.72045898 314.10229492 C-97.90084402 310.8123067 -102.1863226 307.73958752 -106.58203125 304.7421875 C-109.29787739 302.78537429 -111.82142899 300.66379626 -114.375 298.5 C-118.05360506 295.4310514 -121.67923763 292.9326693 -125.875 290.625 C-130.98309207 287.76682301 -135.28081578 284.38418569 -139.65185547 280.53955078 C-144.40076186 276.40358626 -149.40094715 272.69189732 -154.5 269 C-160.67957322 264.51467855 -166.64693727 259.91102222 -172.41870117 254.91333008 C-178.08416291 250.0181604 -184.02730847 245.51112019 -190 241 C-190.80953125 240.37738281 -191.6190625 239.75476563 -192.453125 239.11328125 C-193.14921875 238.58089844 -193.8453125 238.04851562 -194.5625 237.5 C-195.14128906 237.0565625 -195.72007812 236.613125 -196.31640625 236.15625 C-197.99982351 234.92932396 -197.99982351 234.92932396 -200.046875 234.0625 C-202.32825574 232.82142888 -203.23080899 231.63473036 -204.6875 229.5 C-211.34966988 220.28955014 -219.03990477 212.94766743 -228 206 C-229.44632813 204.84757812 -229.44632813 204.84757812 -230.921875 203.671875 C-241.6494025 195.23143458 -252.96114401 187.60232536 -264.375 180.125 C-265.05256348 179.67962891 -265.73012695 179.23425781 -266.42822266 178.77539062 C-267.67931055 177.95576645 -268.93392908 177.14149271 -270.19287109 176.33398438 C-273.91884969 173.89764452 -276.87043562 171.14478106 -280 168 C-281.69538844 166.86453247 -283.42618958 165.78024952 -285.1875 164.75 C-291.09211414 161.09627232 -295.94873453 156.73197964 -301 152 C-302.55970808 150.64261858 -304.12211956 149.28833592 -305.6875 147.9375 C-309.20511322 144.82718936 -312.23965359 141.51756654 -315.25 137.921875 C-317.05569309 135.93883705 -318.96578628 134.35534046 -321.0625 132.6875 C-328.54681792 126.24953332 -331.77112235 117.84950115 -332.87890625 108.19921875 C-333.27550354 97.72137431 -329.63164601 89.24571091 -323.75 80.75 C-315.93491539 72.93491539 -307.01471333 69.04169768 -295.9375 68.625 C-276.96106812 69.31669245 -264.76304223 84.00186354 -252.4453125 96.67895508 C-251.78402344 97.3520874 -251.12273437 98.02521973 -250.44140625 98.71875 C-249.85045166 99.32654297 -249.25949707 99.93433594 -248.65063477 100.56054688 C-246.94906732 102.23097117 -246.94906732 102.23097117 -244 103 C-243.54753906 102.50113281 -243.09507812 102.00226563 -242.62890625 101.48828125 C-236.98616201 95.54686624 -230.84093635 90.70398949 -224.29541016 85.80224609 C-220.34293067 82.82986356 -216.55664352 79.817412 -212.9375 76.4375 C-198.39095617 63.02509349 -182.92619049 53.29974706 -163.90576172 47.78393555 C-156.61244973 45.64776978 -149.57031592 42.97813303 -142.48426819 40.2477417 C-135.90566238 37.71564832 -129.30354622 35.25977622 -122.67578125 32.859375 C-121.73996216 32.520271 -120.80414307 32.18116699 -119.83996582 31.83178711 C-116.99794124 30.80323557 -114.15532861 29.77632704 -111.3125 28.75 C-107.49538851 27.37173194 -103.67910927 25.99119186 -99.86328125 24.609375 C-99.01832596 24.30513611 -98.17337067 24.00089722 -97.30281067 23.68743896 C-93.06162638 22.15146111 -88.8384727 20.57406093 -84.63623047 18.93432617 C-83.44790115 18.47083015 -83.44790115 18.47083015 -82.23556519 17.99797058 C-79.97946527 16.99083316 -78.00902338 15.81228985 -75.95703125 14.44140625 C-71.76453011 11.69162183 -67.48045002 10.31273333 -62.6875 8.9375 C-60.99803867 8.43319287 -59.30922961 7.92669519 -57.62109375 7.41796875 C-56.81913574 7.17739746 -56.01717773 6.93682617 -55.19091797 6.68896484 C-52.48813849 5.83903798 -49.87576513 4.81215161 -47.25 3.75 C-32.31542053 -1.68075617 -15.61814422 -0.27926211 0 0 Z " fill="#566548" transform="translate(456,17)"/>
<path d="M0 0 C1.72826221 1.27957875 3.41202696 2.08245147 5.375 2.953125 C11.17343794 5.76313723 15.82753338 9.96068444 20.625 14.203125 C21.13675781 14.64156738 21.64851562 15.08000977 22.17578125 15.53173828 C29.8973794 22.21628556 34.20770116 28.5361625 37.90234375 38.01953125 C39.68057478 42.53268373 41.96273133 46.6892044 44.375 50.890625 C44.75229248 51.5496582 45.12958496 52.20869141 45.51831055 52.88769531 C47.04298884 55.52833303 48.58433371 58.14075698 50.25 60.6953125 C51.99291498 63.87415175 52.90607079 67.17142257 53.875 70.640625 C55.89391814 77.50085853 58.60663588 83.44779478 61.9453125 89.78125 C63.60773478 93.16795214 64.82505411 96.49656579 66 100.078125 C69.94251954 111.59545258 76.27954848 121.61816909 83.6171875 131.2578125 C86.01899686 134.78108926 87.8525465 138.45517925 89.75 142.265625 C94.39661194 151.49633841 100.51758452 159.38276335 107.08398438 167.32568359 C108.399778 168.92873381 109.66628592 170.57202639 110.921875 172.22265625 C113.80079194 175.67677321 117.37069868 178.23631386 120.90087891 180.99023438 C125.65469131 184.85190812 129.97079845 189.14021882 134.3125 193.453125 C135.22966797 194.33742188 136.14683594 195.22171875 137.09179688 196.1328125 C137.95224609 196.98617187 138.81269531 197.83953125 139.69921875 198.71875 C140.86843872 199.86778809 140.86843872 199.86778809 142.0612793 201.04003906 C143.625 203.203125 143.625 203.203125 143.52636719 205.25366211 C140.0244981 212.82744995 133.43071589 218.64757204 127.5625 224.390625 C126.77294922 225.17115234 125.98339844 225.95167969 125.16992188 226.75585938 C123.65483085 228.25317062 122.13745463 229.74817428 120.61743164 231.24047852 C118.97937775 232.8540449 117.3568116 234.48030102 115.7421875 236.1171875 C113.625 238.203125 113.625 238.203125 110.8125 240.390625 C105.72266168 244.54424953 101.44486528 250.09019755 98.140625 255.7421875 C96.52013709 258.3733921 94.70811608 260.35852216 92.5625 262.578125 C87.77313309 267.80147984 84.00774221 273.41589733 80.16796875 279.33984375 C77.7377021 283.0783556 75.13673298 286.67127762 72.5 290.265625 C68.7252813 295.4357304 65.52669099 300.76589523 62.45263672 306.37524414 C60.61606989 309.66293125 58.70596203 312.46485829 56.125 315.203125 C52.10452418 319.47886912 49.47858525 324.45153925 46.66796875 329.55078125 C44.73319406 333.05564647 42.63480789 336.44089648 40.5 339.828125 C35.75206441 347.50860904 31.45573438 355.14204215 28.875 363.828125 C25.25680115 375.3820373 18.10076613 386.00696948 11.78125 396.2578125 C10.58551366 398.19388446 10.58551366 398.19388446 9.6484375 400.3125 C8.30813773 402.78847363 6.31781964 404.12635609 4.14453125 405.85546875 C1.01397036 408.6319302 -0.87197531 412.17312207 -2.6875 415.890625 C-4.25484837 418.96727179 -5.99173307 421.75058015 -7.875 424.640625 C-10.521624 428.7364575 -12.65398055 432.64748528 -14.375 437.203125 C-16.78471688 434.98708137 -18.34452012 432.76505881 -19.94140625 429.9140625 C-20.42182373 429.06336182 -20.90224121 428.21266113 -21.3972168 427.33618164 C-22.15965698 425.9709436 -22.15965698 425.9709436 -22.9375 424.578125 C-24.01744647 422.66752613 -25.09818663 420.75737568 -26.1796875 418.84765625 C-26.71819336 417.89455566 -27.25669922 416.94145508 -27.81152344 415.95947266 C-30.03241565 412.04412707 -32.28550625 408.14857942 -34.5625 404.265625 C-35.17049438 403.2281311 -35.17049438 403.2281311 -35.79077148 402.16967773 C-38.40765169 397.74220503 -41.16642124 393.43154252 -44 389.140625 C-50.00410464 379.98894192 -54.80355994 370.20425831 -58.9375 360.078125 C-64.73171733 345.9440342 -72.18019593 334.31575439 -81.375 322.203125 C-81.84405762 321.5848584 -82.31311523 320.9665918 -82.79638672 320.32958984 C-86.3771289 315.62697857 -90.0035867 310.95995273 -93.640625 306.30078125 C-97.91339505 300.73572236 -101.78019688 295.05652958 -105.4375 289.078125 C-108.77697455 283.6197497 -112.27580283 278.54455715 -116.3828125 273.62109375 C-118.62310009 270.9019996 -120.71673193 268.09745002 -122.8125 265.265625 C-131.4793591 253.66008906 -140.14530617 243.33537822 -151.8125 234.703125 C-167.59705907 222.96112721 -167.59705907 222.96112721 -172.4375 215.578125 C-175.64876578 210.95517406 -178.57333314 208.10413206 -183.375 205.203125 C-183.04635216 202.26501332 -182.45787618 201.28034358 -180.2578125 199.23046875 C-179.34773438 198.54082031 -178.43765625 197.85117187 -177.5 197.140625 C-161.69299286 184.57660384 -150.04982628 169.77464949 -141.50439453 151.55664062 C-135.96317751 140.0094439 -130.13340427 128.39653018 -123.01953125 117.734375 C-120.60922857 114.02445544 -118.45744336 110.1722661 -116.28637695 106.31982422 C-114.36674574 102.91885506 -112.38110465 99.57759308 -110.3125 96.265625 C-102.85556477 83.91823361 -97.39822512 69.99169176 -92.1784668 56.59667969 C-87.29290904 44.11154428 -81.54347521 32.91529205 -73.375 22.203125 C-72.63354319 21.08618685 -71.90165672 19.96271268 -71.1875 18.828125 C-65.33168684 10.34729215 -56.03625475 4.52877056 -47.6484375 -1.2265625 C-45.83851184 -2.47671733 -44.06795847 -3.78382472 -42.3125 -5.109375 C-29.61276175 -12.40496931 -11.09826951 -8.85727278 0 0 Z " fill="#38432E" transform="translate(526.375,443.796875)"/>
</svg>
