<?xml version="1.0" encoding="UTF-8"?>
<svg version="1.1" xmlns="http://www.w3.org/2000/svg" width="1056" height="1056">
<path d="M0 0 C2.74615679 -0.00180141 5.49229935 -0.00811004 8.23844957 -0.01418173 C14.17410447 -0.02493675 20.10967727 -0.02473795 26.04533577 -0.01704025 C34.87232296 -0.0056244 43.69924176 -0.01152926 52.52622859 -0.02066517 C68.2973754 -0.03641237 84.0684856 -0.03511324 99.83963583 -0.02642844 C113.6416754 -0.01886579 127.44370159 -0.0169191 141.2457428 -0.02049637 C142.62188698 -0.0208401 142.62188698 -0.0208401 144.02583206 -0.02119078 C147.75047837 -0.02212488 151.47512467 -0.02308008 155.19977096 -0.02407007 C190.10163063 -0.03323603 225.00346707 -0.02494422 259.90532316 -0.00877938 C290.87712079 0.00545621 321.8488814 0.00418227 352.82067871 -0.01016235 C387.6608911 -0.02624491 422.50108299 -0.03258585 457.34129858 -0.02332556 C461.05894819 -0.02236349 464.77659781 -0.02142496 468.49424744 -0.02049637 C469.86720145 -0.02014052 469.86720145 -0.02014052 471.26789192 -0.01977748 C485.05734883 -0.01637277 498.84679087 -0.0203415 512.63624573 -0.02793503 C528.32389777 -0.03653106 544.01150767 -0.03432949 559.6991545 -0.0180928 C568.4664847 -0.00931663 577.23372353 -0.00866135 586.00105127 -0.02003132 C591.87117381 -0.02680102 597.7412237 -0.02249573 603.61133555 -0.00951701 C606.94657532 -0.00244057 610.28148825 -0.00149944 613.6167441 -0.01073496 C632.38916731 -0.05870136 650.65462911 1.06935264 668.93249512 5.63095093 C669.79068848 5.84292114 670.64888184 6.05489136 671.53308105 6.27328491 C715.99903897 17.63382465 756.71222468 43.49555938 785.36999512 79.38095093 C786.02870605 80.1724353 786.68741699 80.96391968 787.36608887 81.77938843 C820.6775662 122.12850181 833.89325204 171.619494 833.75094604 223.01095581 C833.75274746 225.7571126 833.75905609 228.50325516 833.76512778 231.24940538 C833.7758828 237.18506028 833.775684 243.12063308 833.7679863 249.05629158 C833.75657044 257.88327877 833.7624753 266.71019757 833.77161122 275.5371844 C833.78735842 291.30833121 833.78605928 307.07944141 833.77737448 322.85059164 C833.76981183 336.65263121 833.76786514 350.4546574 833.77144241 364.25669861 C833.77167157 365.17412807 833.77190072 366.09155752 833.77213682 367.03678787 C833.77307092 370.76143418 833.77402613 374.48608048 833.77501611 378.21072677 C833.78418208 413.11258644 833.77589026 448.01442288 833.75972542 482.91627897 C833.74548984 513.8880766 833.74676377 544.85983721 833.7611084 575.83163452 C833.77719096 610.67184691 833.78353189 645.5120388 833.77427161 680.35225439 C833.77330953 684.069904 833.77237101 687.78755362 833.77144241 691.50520325 C833.77108657 692.87815727 833.77108657 692.87815727 833.77072353 694.27884773 C833.76731881 708.06830465 833.77128754 721.85774668 833.77888107 735.64720154 C833.78747711 751.33485358 833.78527553 767.02246348 833.76903884 782.71011031 C833.76026267 791.47744051 833.75960739 800.24467934 833.77097736 809.01200708 C833.77774706 814.88212962 833.77344177 820.75217951 833.76046306 826.62229136 C833.75338662 829.95753113 833.75244548 833.29244406 833.76168101 836.62769991 C833.80964741 855.40012312 832.6815934 873.66558492 828.11999512 891.94345093 C827.9080249 892.80164429 827.69605469 893.65983765 827.47766113 894.54403687 C816.11712139 939.00999478 790.25538667 979.72318049 754.36999512 1008.38095093 C753.57851074 1009.03966187 752.78702637 1009.6983728 751.97155762 1010.37704468 C711.62244423 1043.68852201 662.13145205 1056.90420785 610.73999023 1056.76190186 C607.99383345 1056.76370327 605.24769088 1056.7700119 602.50154066 1056.77608359 C596.56588577 1056.78683861 590.63031297 1056.78663981 584.69465446 1056.77894211 C575.86766727 1056.76752625 567.04074847 1056.77343111 558.21376164 1056.78256703 C542.44261484 1056.79831423 526.67150463 1056.7970151 510.9003544 1056.78833029 C497.09831484 1056.78076764 483.29628865 1056.77882095 469.49424744 1056.78239822 C468.11810325 1056.78274196 468.11810325 1056.78274196 466.71415817 1056.78309263 C462.98951187 1056.78402673 459.26486557 1056.78498194 455.54021928 1056.78597193 C420.6383596 1056.79513789 385.73652316 1056.78684607 350.83466708 1056.77068123 C319.86286945 1056.75644565 288.89110883 1056.75771958 257.91931152 1056.77206421 C223.07909913 1056.78814677 188.23890724 1056.7944877 153.39869165 1056.78522742 C149.68104204 1056.78426534 145.96339242 1056.78332682 142.2457428 1056.78239822 C140.87278878 1056.78204238 140.87278878 1056.78204238 139.47209832 1056.78167934 C125.6826414 1056.77827462 111.89319936 1056.78224335 98.10374451 1056.78983688 C82.41609246 1056.79843292 66.72848256 1056.79623134 51.04083574 1056.77999465 C42.27350553 1056.77121849 33.5062667 1056.7705632 24.73893896 1056.78193317 C18.86881642 1056.78870287 12.99876653 1056.78439759 7.12865468 1056.77141887 C3.79341492 1056.76434243 0.45850199 1056.7634013 -2.87675387 1056.77263682 C-21.64917708 1056.82060322 -39.91463888 1055.69254921 -58.19250488 1051.13095093 C-59.05069824 1050.91898071 -59.9088916 1050.7070105 -60.79309082 1050.48861694 C-105.25904873 1039.1280772 -145.97223445 1013.26634248 -174.63000488 977.38095093 C-175.61807129 976.19372437 -175.61807129 976.19372437 -176.62609863 974.98251343 C-209.93757596 934.63340004 -223.1532618 885.14240786 -223.01095581 833.75094604 C-223.01275722 831.00478926 -223.01906585 828.25864669 -223.02513754 825.51249647 C-223.03589257 819.57684158 -223.03569376 813.64126878 -223.02799606 807.70561028 C-223.01658021 798.87862308 -223.02248507 790.05170428 -223.03162098 781.22471745 C-223.04736818 765.45357065 -223.04606905 749.68246044 -223.03738425 733.91131021 C-223.0298216 720.10927065 -223.02787491 706.30724446 -223.03145218 692.50520325 C-223.03168133 691.58777379 -223.03191049 690.67034433 -223.03214659 689.72511398 C-223.03308069 686.00046768 -223.0340359 682.27582138 -223.03502588 678.55117509 C-223.04419184 643.64931541 -223.03590003 608.74747897 -223.01973519 573.84562289 C-223.0054996 542.87382526 -223.00677354 511.90206464 -223.02111816 480.93026733 C-223.03720072 446.09005494 -223.04354166 411.24986306 -223.03428137 376.40964746 C-223.0333193 372.69199785 -223.03238077 368.97434823 -223.03145218 365.25669861 C-223.03121495 364.34139593 -223.03097771 363.42609325 -223.03073329 362.48305413 C-223.02732858 348.69359721 -223.03129731 334.90415517 -223.03889084 321.11470032 C-223.04748687 305.42704827 -223.0452853 289.73943837 -223.02904861 274.05179155 C-223.02027244 265.28446134 -223.01961716 256.51722251 -223.03098713 247.74989477 C-223.03775683 241.87977224 -223.03345154 236.00972234 -223.02047282 230.13961049 C-223.01339638 226.80437073 -223.01245525 223.4694578 -223.02169077 220.13420194 C-223.06965717 201.36177873 -221.94160317 183.09631693 -217.38000488 164.81845093 C-217.16803467 163.96025757 -216.95606445 163.10206421 -216.7376709 162.21786499 C-205.37713116 117.75190708 -179.51539643 77.03872136 -143.63000488 48.38095093 C-142.83852051 47.72223999 -142.04703613 47.06352905 -141.23156738 46.38485718 C-100.882454 13.07337985 -51.39146181 -0.14230599 0 0 Z " fill="#38432E" transform="translate(222.6300048828125,-0.380950927734375)"/>
<path d="M0 0 C1.6428673 0.03103602 3.2860616 0.04407489 4.92919922 0.05273438 C8.92562481 0.23892392 10.63482683 0.69934252 13.46435547 3.59960938 C16.84686871 11.35120222 16.15452385 20.19353405 16.24560547 28.50976562 C16.27377667 30.51977592 16.30195135 32.52978616 16.33029938 34.53979397 C16.36895974 37.35445986 16.40368627 40.1691685 16.43829346 42.98388672 C16.64507889 59.77079633 16.86473908 76.55626166 17.37086487 93.33730888 C17.41204166 94.7073596 17.45180799 96.07745351 17.49009705 97.44758797 C17.54378178 99.33881728 17.60448457 101.22984348 17.66552734 103.12084961 C17.69900269 104.1942308 17.73247803 105.267612 17.76696777 106.3735199 C17.86253747 109.14040909 17.86253747 109.14040909 18.96435547 112.03710938 C19.29166639 116.70129007 19.03733203 120.17870236 17.52685547 124.59960938 C15.72036111 130.0781834 15.47878928 135.39228797 15.27294922 141.13085938 C15.03481102 144.14526698 14.6286996 146.68469642 13.96044922 149.59960938 C12.30836025 157.40381952 12.60638848 165.3938292 12.57373047 173.33789062 C12.44276509 180.28633151 11.73440495 185.5501389 8.83300781 191.86914062 C7.54895683 195.07385471 7.71982359 197.87894636 7.96435547 201.28710938 C8.16827638 208.02329691 7.03561178 213.40384326 4.98388672 219.79101562 C3.8055622 223.54269253 3.04388438 227.27976859 2.35888672 231.14648438 C1.96435547 233.03710938 1.96435547 233.03710938 0.96435547 235.03710938 C0.61798421 237.36565563 0.31189426 239.70026244 0.02685547 242.03710938 C-0.5078726 246.30538521 -1.07857923 250.52708676 -2.03564453 254.72460938 C-3.31564247 260.65459983 -3.74568799 266.69482224 -4.25048828 272.73120117 C-4.72256277 278.0342748 -5.64623167 282.89736726 -7.03564453 288.03710938 C-8.30555263 294.04271643 -9.17416404 300.06999445 -9.91064453 306.16210938 C-11.37798359 317.40788765 -13.6506586 328.49547196 -18.17236328 338.93554688 C-19.20291654 341.44431453 -19.80959001 344.00113848 -20.40673828 346.64257812 C-21.28720527 349.99491515 -22.41872274 353.25802883 -23.53564453 356.53710938 C-24.87948668 360.48600474 -26.21057881 364.40865017 -27.16064453 368.47460938 C-27.94788723 371.67981178 -28.98792873 374.64339157 -30.18798828 377.71289062 C-31.23403019 380.58107005 -32.09873893 383.48713693 -32.97314453 386.41210938 C-34.1393124 390.26266364 -35.36476168 394.01064186 -36.91064453 397.72460938 C-38.82042667 402.32002264 -40.36977153 406.99662731 -41.91064453 411.72460938 C-49.70367424 435.49347413 -49.70367424 435.49347413 -55.61376953 443.05664062 C-57.1731316 445.22860922 -57.9238051 447.20007028 -58.78564453 449.72460938 C-61.07604265 455.67083525 -64.47811501 461.53012549 -69.78173828 465.26757812 C-73.03260177 466.37749166 -76.20221363 466.37629567 -79.59814453 466.34960938 C-80.31341309 466.34614502 -81.02868164 466.34268066 -81.765625 466.33911133 C-86.88573863 466.23495977 -91.388083 465.45725608 -96.27783203 463.88085938 C-99.42074707 462.91928764 -102.55601885 462.3315189 -105.78564453 461.72460938 C-112.46037292 460.34261715 -118.41068453 458.08625731 -124.66064453 455.43945312 C-127.75527188 454.15360681 -130.85604472 453.08835918 -134.03564453 452.03710938 C-144.42946129 447.81955759 -154.13182889 442.42524128 -162.96533203 435.51367188 C-166.26994961 433.15679368 -169.83381439 431.31679728 -173.42236328 429.43164062 C-180.41577163 425.69973214 -180.41577163 425.69973214 -182.84814453 423.09960938 C-185.23542358 420.84874627 -187.70681094 419.65904252 -190.63500977 418.23022461 C-195.20916608 415.95686939 -199.67651405 413.48189847 -204.16064453 411.03710938 C-205.12357422 410.51632812 -206.08650391 409.99554687 -207.07861328 409.45898438 C-212.85108949 406.31469197 -218.42778775 403.15421862 -223.54736328 398.99804688 C-226.19735461 396.90967066 -228.90386146 395.3059686 -231.84814453 393.66210938 C-236.89142185 390.7643828 -241.4840492 387.64351455 -246.03564453 384.03710938 C-246.79876953 383.45832031 -247.56189453 382.87953125 -248.34814453 382.28320312 C-252.54651453 379.08608913 -256.34455853 375.81822186 -260.03564453 372.03710938 C-261.65612696 370.59451867 -263.28167653 369.1576113 -264.91064453 367.72460938 C-272.80729379 360.60601232 -278.77695568 352.76804229 -284.7734375 344.02734375 C-286.85642722 341.01017709 -288.70176016 338.34148514 -291.42236328 335.86132812 C-293.03564453 334.03710938 -293.03564453 334.03710938 -293.19970703 331.47851562 C-290.30485263 316.01831497 -282.62689308 302.70782117 -271.03564453 292.03710938 C-270.04564453 291.70710938 -269.05564453 291.37710937 -268.03564453 291.03710938 C-267.3263719 289.72594403 -266.66538445 288.38827548 -266.03564453 287.03710938 C-264.97484283 285.66902255 -263.86743508 284.33617093 -262.72314453 283.03710938 C-262.14951172 282.37710937 -261.57587891 281.71710938 -260.98486328 281.03710938 C-259.03564453 279.03710938 -259.03564453 279.03710938 -256.60986328 277.21289062 C-253.46493026 274.55473024 -251.44286815 271.62021179 -249.16064453 268.22460938 C-245.97197032 263.61762897 -242.80288104 259.44934622 -238.68798828 255.61523438 C-236.15565138 253.1966431 -233.93493263 250.52144866 -231.65283203 247.86914062 C-230.34442987 246.38691692 -228.95124459 244.97981943 -227.53564453 243.59960938 C-225.44308384 241.45473467 -223.71109262 239.35529666 -221.91064453 236.97460938 C-219.03712823 233.19531076 -215.92007096 229.73151964 -212.66064453 226.28710938 C-206.37107285 219.58268673 -201.29994414 212.25840414 -196.42626953 204.46289062 C-193.42885008 199.7169765 -190.31538359 196.28166811 -185.97314453 192.72070312 C-184.09281612 191.08678872 -182.59512896 189.41125172 -181.03564453 187.47460938 C-178.42903173 184.30743469 -175.56598505 182.13599681 -172.23876953 179.76757812 C-168.68016447 176.97243266 -165.64914722 173.66857285 -162.50048828 170.42773438 C-160.2958613 168.28949077 -158.11086198 166.53909586 -155.59814453 164.78710938 C-152.87465053 162.86337155 -152.09295257 162.15670876 -150.59814453 159.03710938 C-148.89407223 155.76529056 -147.90159616 155.10964839 -144.84814453 153.22460938 C-137.50731437 148.65751308 -131.55440505 141.95432053 -128.03564453 134.03710938 C-127.35767285 128.71018898 -128.32400994 123.69140756 -131.03564453 119.03710938 C-134.59596914 115.75766326 -137.38788937 115.22875908 -142.12548828 115.36132812 C-148.27086288 116.78837484 -153.12576803 121.25747672 -158.03564453 125.03710938 C-159.69586509 126.19226283 -161.36203273 127.33894422 -163.03564453 128.47460938 C-171.43433611 134.37010786 -179.56129753 140.61768747 -187.21533203 147.45507812 C-194.08735722 153.42754637 -201.80203449 158.36514378 -209.48486328 163.21679688 C-218.57467255 169.02526208 -226.30735487 175.5386309 -234.03564453 183.03710938 C-243.69403297 192.34242682 -253.33083052 200.65233982 -265.34814453 206.84960938 C-274.48457858 211.63919375 -282.81345748 218.32752437 -290.57470703 225.09179688 C-293.94957315 228.01858755 -297.49770119 230.61012467 -301.16064453 233.16210938 C-308.14200483 237.92156392 -308.14200483 237.92156392 -314.45507812 243.49707031 C-316.07260499 245.07312213 -317.71431727 246.29484724 -319.58251953 247.56054688 C-320.26314453 248.02460937 -320.94376953 248.48867188 -321.64501953 248.96679688 C-322.35142578 249.44375 -323.05783203 249.92070313 -323.78564453 250.41210938 C-325.17670323 251.35678356 -326.56733151 252.30209187 -327.95751953 253.24804688 C-328.63911133 253.71033691 -329.32070313 254.17262695 -330.02294922 254.64892578 C-331.96906304 255.99118721 -333.87803545 257.37526166 -335.78564453 258.77148438 C-338.34302552 260.55427401 -340.41535713 261.815976 -343.28564453 262.91210938 C-346.97605357 264.45605601 -350.19128676 266.34179073 -353.53564453 268.53710938 C-357.53089655 271.15238577 -361.43367958 273.23853863 -365.83642578 275.06445312 C-369.02300333 276.47379204 -371.99211982 278.22097371 -374.99267578 279.98632812 C-378.54038956 281.81106045 -381.77333902 282.16437122 -385.73095703 282.16992188 C-387.05160156 282.17185547 -387.05160156 282.17185547 -388.39892578 282.17382812 C-389.76597656 282.16802734 -389.76597656 282.16802734 -391.16064453 282.16210938 C-392.07974609 282.16597656 -392.99884766 282.16984375 -393.94580078 282.17382812 C-394.82365234 282.17253906 -395.70150391 282.17125 -396.60595703 282.16992188 C-397.40791504 282.16879395 -398.20987305 282.16766602 -399.03613281 282.16650391 C-401.03564453 282.03710938 -401.03564453 282.03710938 -403.03564453 281.03710938 C-405.72609342 280.92835332 -408.39519733 280.87569427 -411.08642578 280.86132812 C-412.75245351 280.83809144 -414.41846911 280.81397267 -416.08447266 280.7890625 C-418.69954067 280.75425983 -421.3141743 280.72478609 -423.92944336 280.71118164 C-434.68871773 280.64431551 -443.84476992 279.86866782 -454.03564453 276.03710938 C-455.34610021 275.63492003 -456.6605871 275.24529209 -457.98095703 274.87695312 C-460.21809339 274.2420901 -462.455057 273.60661822 -464.69189453 272.97070312 C-467.67615648 272.13748046 -470.66627893 271.33302552 -473.66064453 270.53710938 C-478.57303854 269.20787335 -483.38499041 267.64420963 -488.19970703 265.99804688 C-489.91567069 265.41660464 -491.6382837 264.85369745 -493.37158203 264.32617188 C-502.04807709 261.66370949 -514.44764589 257.40885488 -519.72314453 249.66210938 C-520.11888672 249.0975 -520.51462891 248.53289062 -520.92236328 247.95117188 C-525.53866095 240.01437939 -525.28149038 229.82511604 -523.03564453 221.03710938 C-520.30366538 217.396329 -517.05134575 216.02588949 -513.03564453 214.03710938 C-511.18742983 212.58134199 -509.37520373 211.07893196 -507.59814453 209.53710938 C-499.32885119 202.70393981 -490.58519461 197.74879909 -480.97705078 193.04492188 C-470.88566835 187.99275352 -460.98405532 182.28869 -451.84814453 175.66210938 C-442.99617249 169.32451072 -433.21790347 164.48776932 -423.60009766 159.42822266 C-421.83448762 158.47044981 -420.09524724 157.46296024 -418.38085938 156.41625977 C-415.68366122 154.83011857 -413.18505841 154.13841961 -410.16064453 153.34960938 C-402.92463315 151.19989747 -396.66658566 147.85793641 -390.12792969 144.19628906 C-386.31600503 142.08438495 -382.45577499 140.06394732 -378.59814453 138.03710938 C-377.79820068 137.61582764 -376.99825684 137.1945459 -376.17407227 136.76049805 C-369.67957494 133.35054181 -363.13922907 130.04017625 -356.56298828 126.79101562 C-354.39908243 125.71505358 -352.24323919 124.62244187 -350.10205078 123.50195312 C-349.25513672 123.05980469 -348.40822266 122.61765625 -347.53564453 122.16210938 C-346.84470703 121.7934375 -346.15376953 121.42476563 -345.44189453 121.04492188 C-342.74256746 119.91435956 -340.01279234 119.3189348 -337.17236328 118.64453125 C-333.50998163 117.60339716 -330.18804995 115.91028406 -326.78564453 114.22460938 C-321.89411154 111.85707134 -317.0203171 109.56012109 -311.97314453 107.53710938 C-305.16061148 104.75819071 -298.65182444 101.42140606 -292.10009766 98.08544922 C-288.08443562 96.04627552 -284.05276043 94.03882965 -280.01904297 92.03564453 C-276.76503369 90.41652649 -273.5271561 88.77665661 -270.31689453 87.07226562 C-261.29195537 82.33440734 -252.05304622 78.6287187 -242.45947266 75.18188477 C-236.76656133 73.12699964 -231.38786806 70.85746111 -226.03564453 68.03710938 C-219.57279664 64.89696859 -213.11480957 62.32633281 -206.27392578 60.13476562 C-201.96153476 58.67302633 -197.75806465 56.96865595 -193.54370117 55.25048828 C-189.79917222 53.72802454 -186.03943302 52.30599816 -182.22314453 50.97460938 C-177.77600136 49.39531188 -173.66792612 47.43113768 -169.52001953 45.18554688 C-164.06655621 42.66460628 -158.20794061 41.63831982 -152.35864258 40.4387207 C-142.91838281 38.46870022 -134.75599123 35.89641764 -126.16455078 31.54882812 C-121.53357863 29.31139214 -117.08553974 28.25945238 -111.97607422 27.88696289 C-106.08841388 27.45175884 -101.48687013 25.81035281 -96.16064453 23.34960938 C-87.36107556 19.46298787 -78.46604512 16.49633763 -69.26513672 13.72509766 C-64.64915924 12.30067535 -60.09198692 10.69635039 -55.52783203 9.11523438 C-52.18623449 8.08360024 -48.87903085 7.29346442 -45.46289062 6.56396484 C-42.90147807 6.00798735 -40.35601647 5.40201872 -37.80908203 4.78320312 C-36.92220703 4.56857422 -36.03533203 4.35394531 -35.12158203 4.1328125 C-33.30601616 3.69200148 -31.49091422 3.24927545 -29.67626953 2.8046875 C-19.63789732 0.38289362 -10.26899177 -0.19528986 0 0 Z " fill="#81976C" transform="translate(776.03564453125,299.962890625)"/>
<path d="M0 0 C2.07263645 0.08420515 4.14132153 0.12318367 6.21533203 0.15234375 C13.68260503 0.41011369 20.36396641 1.10867465 26.21142578 6.08984375 C37.26029933 19.18063911 39.30696418 32.66689635 39.49267578 49.2734375 C39.52030703 51.22905772 39.54794278 53.18467788 39.57579041 55.14029503 C39.60438439 57.19803559 39.63095151 59.25579363 39.65698242 61.31356812 C39.74644593 68.33812396 39.85453722 75.36241046 39.96142578 82.38671875 C39.9717836 83.07500952 39.98214142 83.76330029 39.99281311 84.47244835 C40.1629993 95.74286639 40.38004198 107.01046208 40.71142578 118.27734375 C40.746875 119.58437256 40.78232422 120.89140137 40.81884766 122.23803711 C40.87395508 123.98032593 40.87395508 123.98032593 40.93017578 125.7578125 C40.96046875 126.73000732 40.99076172 127.70220215 41.02197266 128.70385742 C41.12699492 131.23679144 41.12699492 131.23679144 42.21142578 134.08984375 C42.89879125 141.5583339 41.63889163 148.27863415 39.93798828 155.52734375 C39.02498259 160.00401684 38.71637706 164.39915652 38.52001953 168.95703125 C38.21142578 172.08984375 38.21142578 172.08984375 37.21533203 175.5390625 C35.53873955 181.88944877 35.81379436 188.50174042 35.71142578 195.02734375 C35.41785144 212.44320965 33.38383943 228.73862905 29.21142578 245.65234375 C28.85115442 247.14496622 28.49177727 248.63780482 28.13330078 250.13085938 C27.00305946 254.8230409 25.86460404 259.51323236 24.67860413 264.19168091 C23.44613923 269.05814188 22.46251717 273.89085296 21.64892578 278.83984375 C21.45169922 280.02489502 21.45169922 280.02489502 21.25048828 281.23388672 C20.55200019 285.55975045 20.00513059 289.83924152 19.71142578 294.21484375 C19.03604006 303.99442896 16.77465307 313.60275667 14.64892578 323.15234375 C13.62453184 327.79870198 12.91680626 332.36159502 12.39892578 337.08984375 C10.59407743 351.54367096 5.78815395 365.5700996 1.36767578 379.40625 C0.20907209 383.09734218 -0.86445927 386.80378046 -1.91357422 390.52734375 C-5.33140008 402.62754983 -5.33140008 402.62754983 -7.73388672 408.3359375 C-8.81384101 411.15581815 -9.63659765 414.00413927 -10.43774414 416.91381836 C-12.50458226 424.39928286 -15.08830586 431.17514638 -18.51513672 438.16796875 C-20.03935919 441.66526447 -20.64185923 444.96288188 -21.23779297 448.70703125 C-22.0587783 452.25881177 -23.78230158 455.19537758 -25.50341797 458.38671875 C-26.94618884 461.42136143 -27.82684168 464.41661161 -28.72607422 467.65234375 C-30.21946257 472.7802435 -32.09902827 476.58767783 -35.24951172 480.87109375 C-36.88697229 483.2316968 -38.04749365 485.62608674 -39.28857422 488.21484375 C-42.08920829 493.43924556 -45.62991007 497.67068095 -49.60107422 502.02734375 C-50.16955078 502.66623535 -50.73802734 503.30512695 -51.32373047 503.96337891 C-56.83994587 509.8196988 -63.8269228 513.6482895 -71.96411133 514.25097656 C-81.90682289 514.42850655 -91.31598077 514.54937866 -100.97607422 511.86328125 C-103.63607027 511.13178234 -106.18448444 510.71426155 -108.91357422 510.33984375 C-116.74852097 508.99177203 -124.08441409 505.78846223 -131.47265625 502.9465332 C-133.75905963 502.1007616 -136.05988339 501.34573745 -138.38232422 500.60546875 C-142.68598204 499.19170449 -146.64448433 497.3544512 -150.66357422 495.27734375 C-151.35265869 494.92551025 -152.04174316 494.57367676 -152.75170898 494.21118164 C-154.76758539 493.17752533 -156.77809836 492.1339526 -158.78857422 491.08984375 C-159.83142578 490.55875 -160.87427734 490.02765625 -161.94873047 489.48046875 C-167.29462739 486.68345939 -171.87075527 483.54785312 -176.54248047 479.7421875 C-179.60104662 477.49214666 -182.88525571 476.01353649 -186.31201172 474.40625 C-189.68889691 472.61128106 -192.49220688 470.31578655 -195.39013672 467.8359375 C-198.01867587 465.92232675 -200.68828864 464.57606568 -203.60742188 463.16333008 C-207.36522496 461.31387181 -211.00757907 459.25635583 -214.66357422 457.21484375 C-215.45151367 456.77503174 -216.23945312 456.33521973 -217.05126953 455.88208008 C-232.81582458 447.05308484 -232.81582458 447.05308484 -236.91357422 443.46484375 C-239.24392613 441.53977043 -240.88212459 440.46369258 -243.53857422 439.21484375 C-248.71288954 436.74995252 -253.17712071 433.46855567 -257.78857422 430.08984375 C-259.22898071 429.03724365 -259.22898071 429.03724365 -260.69848633 427.96337891 C-268.38081572 422.21050604 -275.3222773 416.02802852 -282.06591797 409.20361328 C-283.67333889 407.5799806 -285.29637311 405.97319225 -286.92138672 404.3671875 C-292.95207339 398.34798676 -298.13666505 392.26583244 -302.78857422 385.08984375 C-306.60953723 379.60845109 -306.60953723 379.60845109 -311.41357422 375.02734375 C-316.01237242 371.27569259 -317.4843589 368.084834 -318.36279297 362.32421875 C-318.49732041 360.91397739 -318.6182129 359.5023749 -318.72607422 358.08984375 C-318.78375977 357.4134082 -318.84144531 356.73697266 -318.90087891 356.04003906 C-319.15975498 350.95867151 -317.97227801 347.61938247 -315.78857422 343.08984375 C-315.29613351 341.80676305 -314.81988236 340.5173674 -314.35888672 339.22265625 C-310.05238887 327.25360294 -305.05488494 317.88055017 -296.78857422 308.08984375 C-296.15177734 307.31769531 -295.51498047 306.54554688 -294.85888672 305.75 C-290.26387032 300.29711573 -290.26387032 300.29711573 -287.71044922 299.18359375 C-285.0475724 297.6681354 -284.85255919 295.90898503 -283.78857422 293.08984375 C-281.98388672 290.9921875 -281.98388672 290.9921875 -279.91357422 289.02734375 C-279.23552734 288.37636719 -278.55748047 287.72539063 -277.85888672 287.0546875 C-276.50522941 285.76999009 -275.14605437 284.49107525 -273.78076172 283.21875 C-271.66343699 281.07305478 -271.66343699 281.07305478 -269.87060547 278.20703125 C-267.67239441 274.915901 -265.18447545 272.08006946 -262.47607422 269.21484375 C-261.50122813 268.1714016 -260.52727101 267.12712823 -259.55419922 266.08203125 C-259.08304688 265.57639648 -258.61189453 265.07076172 -258.12646484 264.54980469 C-255.70928149 261.91207541 -253.41517605 259.16878777 -251.12841797 256.41796875 C-249.78857422 255.08984375 -249.78857422 255.08984375 -247.78857422 255.08984375 C-247.52302734 254.5175 -247.25748047 253.94515625 -246.98388672 253.35546875 C-245.73180531 250.98224255 -244.29493902 248.96771089 -242.66357422 246.83984375 C-242.12474609 246.1334375 -241.58591797 245.42703125 -241.03076172 244.69921875 C-240.41587891 243.90257812 -240.41587891 243.90257812 -239.78857422 243.08984375 C-259.08154042 253.73368502 -259.08154042 253.73368502 -276.11669922 267.4765625 C-279.64662853 270.92908108 -283.56379436 273.63774769 -287.60107422 276.46484375 C-292.99456872 280.24435876 -298.10446498 284.13282944 -303.01733398 288.52294922 C-312.91932565 297.28256087 -325.01315304 304.48074157 -336.93310547 310.1484375 C-339.13170742 311.2639387 -341.19307491 312.54098054 -343.28857422 313.83984375 C-370.16369617 330.20583764 -370.16369617 330.20583764 -384.38623047 330.22265625 C-385.43488281 330.22394531 -386.48353516 330.22523438 -387.56396484 330.2265625 C-389.19108398 330.22076172 -389.19108398 330.22076172 -390.85107422 330.21484375 C-391.9396875 330.21871094 -393.02830078 330.22257812 -394.14990234 330.2265625 C-395.72094727 330.22462891 -395.72094727 330.22462891 -397.32373047 330.22265625 C-398.27642822 330.22152832 -399.22912598 330.22040039 -400.21069336 330.21923828 C-402.78857422 330.08984375 -402.78857422 330.08984375 -404.66235352 329.5925293 C-407.84101674 328.84102309 -411.02419103 328.93353546 -414.27294922 328.9140625 C-415.78207703 328.89081725 -417.29119158 328.86669819 -418.80029297 328.84179688 C-421.14949819 328.8071142 -423.49822963 328.77757836 -425.84765625 328.76391602 C-437.0824263 328.6860133 -447.01069499 327.24521975 -457.78857422 324.08984375 C-459.33986051 323.67409783 -460.8917827 323.2607029 -462.44482422 322.8515625 C-466.89565579 321.60768172 -471.34334045 320.35356141 -475.78857422 319.08984375 C-477.23804443 318.68113037 -477.23804443 318.68113037 -478.71679688 318.26416016 C-530.83661792 303.53625622 -530.83661792 303.53625622 -542.90576172 282.59765625 C-548.31227003 272.5249499 -549.50723703 264.53230317 -548.78857422 253.08984375 C-548.74990234 252.40100098 -548.71123047 251.7121582 -548.67138672 251.00244141 C-548.12382473 242.29580314 -547.25912146 234.52133336 -540.78857422 228.08984375 C-538.24212216 225.99675337 -535.63143344 224.10795395 -532.90576172 222.25390625 C-530.05655154 220.27588314 -527.37408308 218.19627376 -524.68017578 216.01757812 C-515.63775106 208.70965942 -506.17556897 202.64049242 -495.69873047 197.546875 C-485.93871637 192.6603176 -476.37328836 187.48224595 -467.60107422 180.96484375 C-461.92200755 176.74869033 -456.0732517 173.38098293 -449.78076172 170.16796875 C-446.90245005 168.69494195 -444.09320991 167.13413904 -441.29638672 165.51171875 C-433.57644299 161.04614116 -426.49764164 157.39948516 -417.83544922 155.05078125 C-412.77058026 153.4533995 -408.32371047 150.8304872 -403.73193359 148.19824219 C-399.83579117 145.9760705 -395.90386511 143.81791651 -391.97607422 141.65234375 C-391.12005615 141.17958008 -390.26403809 140.70681641 -389.38208008 140.21972656 C-382.19664658 136.2706259 -374.9123 132.565748 -367.54785156 128.96435547 C-365.88243545 128.13650083 -364.2351933 127.27237467 -362.58935547 126.40625 C-356.50702505 123.21799576 -350.61103484 121.04138379 -344.01513672 119.15234375 C-339.6435138 117.71277785 -335.72561888 115.64779699 -331.65966797 113.51171875 C-329.03331083 112.21104664 -326.50658849 111.24811652 -323.72607422 110.33984375 C-312.5454113 106.48275916 -302.12131091 100.01834449 -291.87329102 94.18261719 C-289.70249685 93.04472344 -287.51748124 92.14365438 -285.22607422 91.27734375 C-280.76753989 89.57624142 -276.58025078 87.47345147 -272.35107422 85.27734375 C-265.56960631 81.77457665 -258.65586874 79.12549603 -251.45947266 76.60546875 C-246.2370105 74.73769077 -241.6410213 72.57750042 -237.08935547 69.3515625 C-234.46415339 67.91193555 -231.86262837 67.31263453 -228.95874023 66.64624023 C-225.21607081 65.68667857 -221.68128372 64.21542769 -218.10107422 62.77734375 C-216.5177864 62.15222846 -214.93445273 61.52722928 -213.35107422 60.90234375 C-212.57892578 60.59554687 -211.80677734 60.28875 -211.01123047 59.97265625 C-197.04081838 54.42377553 -197.04081838 54.42377553 -192.03857422 53.08984375 C-189.12584217 52.1936185 -187.07796681 51.17727906 -184.47607422 49.65234375 C-180.45496174 47.31128511 -176.53984035 45.94404082 -172.05029297 44.765625 C-169.79762572 44.17228214 -169.79762572 44.17228214 -167.91210938 43.09912109 C-165.72911653 42.0615846 -163.93027318 41.63690723 -161.55029297 41.265625 C-152.35684503 39.70452505 -144.29310128 37.83302275 -135.96020508 33.59814453 C-129.57907541 30.37740163 -123.13568343 28.74506021 -116.09326172 27.68359375 C-109.40311426 26.66934399 -103.90941394 24.52298221 -97.74951172 21.7421875 C-92.4906365 19.45883525 -87.01725038 17.84211751 -81.53662109 16.18261719 C-76.53542995 14.66614065 -71.66865669 12.9616562 -66.78857422 11.08984375 C-61.66005443 9.2376496 -56.56667789 7.71109304 -51.22216797 6.6171875 C-49.1986548 6.17870551 -47.18852666 5.6789973 -45.18310547 5.1640625 C-30.22978215 1.40967616 -15.41474965 -0.64781465 0 0 Z M-45.78857422 31.08984375 C-47.30147123 31.42021641 -48.82338599 31.71152151 -50.35107422 31.96484375 C-54.15453682 32.67942474 -57.72611215 33.66407116 -61.38623047 34.91796875 C-65.48925093 36.31073427 -69.59595837 37.68484685 -73.71826172 39.01953125 C-86.80965738 43.26491181 -86.80965738 43.26491181 -99.53857422 48.46484375 C-105.56414623 51.17708419 -111.27233714 52.2478043 -117.78857422 53.08984375 C-122.81780978 53.92646517 -126.8628074 55.60046817 -131.41357422 57.90234375 C-138.32158608 61.21883656 -145.34995484 62.81218429 -152.83398438 64.3527832 C-161.34678146 66.10928298 -168.97713061 68.54100515 -176.78857422 72.40234375 C-184.29803069 76.02125447 -192.00981692 78.77802294 -199.89794922 81.44628906 C-204.22224575 82.91824744 -208.50542162 84.50303179 -212.78857422 86.08984375 C-213.91650391 86.50234375 -215.04443359 86.91484375 -216.20654297 87.33984375 C-217.94871094 87.98953125 -217.94871094 87.98953125 -219.72607422 88.65234375 C-220.78697266 89.04550781 -221.84787109 89.43867188 -222.94091797 89.84375 C-225.74781634 90.93615003 -225.74781634 90.93615003 -227.71044922 92.56640625 C-230.58935114 94.67687946 -233.76768553 95.72110213 -237.10107422 96.90234375 C-238.54550151 97.43115438 -239.9895029 97.9611296 -241.43310547 98.4921875 C-242.52679443 98.89219971 -242.52679443 98.89219971 -243.64257812 99.30029297 C-254.3844927 103.25243765 -264.59933733 107.8271309 -274.77246094 113.05761719 C-278.09843581 114.76047766 -281.44408337 116.42372676 -284.78857422 118.08984375 C-288.76377582 120.07018877 -292.73425507 122.05736182 -296.68310547 124.08984375 C-304.69368097 128.19118637 -312.79666464 131.86577408 -321.12133789 135.28759766 C-325.32106093 137.02043219 -329.39411912 138.83652979 -333.41357422 140.96484375 C-336.33912212 142.49799171 -338.78366329 143.37563998 -342.03857422 143.90234375 C-346.83160849 144.8145129 -350.49820879 147.07227154 -354.64648438 149.57128906 C-360.39355651 152.982435 -366.36450706 155.81915029 -372.41357422 158.65234375 C-379.5332099 161.99610328 -386.37457535 165.45428775 -393.10107422 169.53125 C-399.60921638 173.30559408 -406.42922446 176.57793334 -413.72607422 178.46484375 C-419.96457589 180.19720457 -425.25649191 183.62652162 -430.77148438 186.91455078 C-432.92652517 188.1702233 -435.1068135 189.36750219 -437.30029297 190.5546875 C-447.10035543 195.83139137 -447.10035543 195.83139137 -456.28857422 202.08984375 C-464.84171183 208.58970521 -474.58705616 213.48828771 -484.16357422 218.3046875 C-494.58553572 223.57760448 -503.64679988 229.83632764 -512.78857422 237.08984375 C-514.57943293 238.48671354 -516.37093938 239.88275403 -518.16357422 241.27734375 C-518.83130859 241.80714844 -519.49904297 242.33695313 -520.18701172 242.8828125 C-521.78857422 244.08984375 -521.78857422 244.08984375 -523.78857422 245.08984375 C-524.04538332 248.29658436 -524.26400981 251.5048583 -524.47607422 254.71484375 C-524.54890625 255.61847656 -524.62173828 256.52210938 -524.69677734 257.453125 C-525.03490198 262.9028986 -524.85398266 266.36654332 -521.78857422 271.08984375 C-521.20720703 272.11722656 -520.62583984 273.14460937 -520.02685547 274.203125 C-517.43789197 277.54211981 -514.64508269 279.34277565 -510.97607422 281.27734375 C-510.38503906 281.60669922 -509.79400391 281.93605469 -509.18505859 282.27539062 C-503.47824653 285.40573574 -497.68389714 288.00899048 -491.35107422 289.58984375 C-488.03394983 290.45419676 -484.84907791 291.38704388 -481.66357422 292.65234375 C-478.28043279 293.97558858 -474.9411339 294.76173426 -471.39013672 295.5 C-467.14739317 296.46194336 -462.98422265 297.69302693 -458.80419922 298.89453125 C-458.19294189 299.06782959 -457.58168457 299.24112793 -456.9519043 299.41967773 C-455.3274015 299.92292344 -453.72275862 300.49100558 -452.13110352 301.09008789 C-442.12305843 304.64770678 -432.5879229 304.7227919 -422.10107422 304.77734375 C-419.49836887 304.80646325 -416.89583547 304.84092318 -414.29325867 304.87983704 C-412.68739208 304.90223463 -411.08141798 304.91810847 -409.47541809 304.92668152 C-404.00786528 304.98019822 -404.00786528 304.98019822 -401.78857422 306.08984375 C-398.56578221 306.35589037 -395.333624 306.32143777 -392.10107422 306.33984375 C-391.21484375 306.36046875 -390.32861328 306.38109375 -389.41552734 306.40234375 C-383.68381007 306.43628434 -379.88213104 305.72316318 -374.78857422 303.08984375 C-373.81275391 302.61804688 -372.83693359 302.14625 -371.83154297 301.66015625 C-369.84061162 300.6524345 -367.84973005 299.64461437 -365.85888672 298.63671875 C-363.90352008 297.6515722 -361.94062203 296.68113549 -359.96826172 295.73046875 C-356.44949734 294.02885732 -353.27994988 292.48534123 -350.22607422 290.02734375 C-347.98104715 288.24283505 -346.33843754 287.40811375 -343.72607422 286.33984375 C-337.56171636 283.72869549 -332.26422989 279.8977507 -326.78857422 276.08984375 C-325.89525391 275.4865625 -325.00193359 274.88328125 -324.08154297 274.26171875 C-320.22921433 271.6343241 -316.55933743 268.97087345 -313.10107422 265.83984375 C-308.81236333 261.96784971 -304.16473045 258.65643105 -299.48681641 255.27832031 C-295.66062168 252.50200765 -291.96795124 249.63851049 -288.35107422 246.58984375 C-279.88434013 239.56157119 -270.76502576 233.02036808 -260.97607422 227.96484375 C-249.21121497 221.80146226 -239.4264214 211.56266158 -229.96044922 202.33203125 C-222.50256228 195.17979542 -214.45542613 189.6900444 -205.67480469 184.2668457 C-200.51501258 181.04715146 -195.62259514 177.63136251 -191.08544922 173.5625 C-186.45892142 169.4155513 -181.63446038 165.73694297 -176.57763672 162.12890625 C-173.90452148 160.17461191 -171.34582899 158.12997545 -168.78857422 156.02734375 C-164.49802497 152.54852003 -160.02362256 149.57633685 -155.31201172 146.69921875 C-153.12042003 145.30148535 -151.21481802 143.81429866 -149.22607422 142.15234375 C-145.69384175 139.59041129 -142.3826284 139.37079215 -138.09326172 139.60546875 C-134.40066717 140.38153947 -132.90389584 142.04906891 -130.78857422 145.08984375 C-128.77894221 149.49189482 -128.13776802 153.29014806 -128.78857422 158.08984375 C-133.28373948 167.09670061 -140.42075948 174.99311921 -149.12841797 179.92578125 C-151.06736488 181.08580245 -151.06736488 181.08580245 -152.16357422 183.90234375 C-154.31292252 188.11837312 -157.30844011 190.04762395 -161.03466797 192.87890625 C-163.87805594 195.16168298 -166.37392055 197.60060983 -168.91357422 200.21484375 C-171.75867123 203.13539576 -174.51325989 205.75006895 -177.85107422 208.08984375 C-182.08514447 211.09577597 -185.32286424 214.8110923 -188.71044922 218.72265625 C-190.78857422 221.08984375 -190.78857422 221.08984375 -192.66357422 222.81640625 C-196.59093379 227.01810343 -199.52704529 232.01973791 -202.65966797 236.828125 C-206.02292257 241.86901254 -209.60178592 246.12918588 -213.97265625 250.32568359 C-216.21159543 252.50080789 -218.17024617 254.82683113 -220.10107422 257.27734375 C-220.73658203 258.07527344 -221.37208984 258.87320313 -222.02685547 259.6953125 C-223.83805608 262.06597288 -223.83805608 262.06597288 -225.30029297 264.69921875 C-226.78494691 267.0840172 -228.10684333 268.41897705 -230.28857422 270.15234375 C-238.87772813 277.45155147 -245.74236495 285.80150736 -252.07348633 295.06616211 C-255.3902129 299.80254565 -259.18932555 303.53444436 -263.65966797 307.22265625 C-265.7369663 309.04458029 -267.29264535 310.77139451 -268.78857422 313.08984375 C-268.78857422 313.74984375 -268.78857422 314.40984375 -268.78857422 315.08984375 C-269.36607422 315.33734375 -269.94357422 315.58484375 -270.53857422 315.83984375 C-280.68800947 321.47841889 -288.48793035 335.4186943 -291.78857422 346.08984375 C-292.11341797 347.12496094 -292.43826172 348.16007812 -292.77294922 349.2265625 C-294.19666617 354.73105416 -294.19666617 354.73105416 -292.76513672 360.0234375 C-291.14554149 361.84268773 -291.14554149 361.84268773 -289.17138672 363.64453125 C-285.97509746 366.92465761 -283.59349691 370.61430746 -281.03857422 374.40234375 C-275.93159053 381.80931522 -270.47539036 388.03055959 -263.78857422 394.08984375 C-263.03318359 394.77691406 -262.27779297 395.46398437 -261.49951172 396.171875 C-258.02315328 399.2641414 -254.45653891 402.22704204 -250.78857422 405.08984375 C-250.17884766 405.59 -249.56912109 406.09015625 -248.94091797 406.60546875 C-243.53647222 410.96041233 -237.84444584 414.63266064 -231.90185547 418.1953125 C-227.88780065 420.63799329 -223.98473756 423.10137436 -220.35888672 426.09765625 C-217.31536191 428.45661924 -214.07326796 430.20945708 -210.66357422 431.96484375 C-209.32481287 432.66624752 -207.98627274 433.36807369 -206.64794922 434.0703125 C-205.99246094 434.41239746 -205.33697266 434.75448242 -204.66162109 435.10693359 C-201.18271018 436.9325456 -197.73985234 438.82350741 -194.29638672 440.71484375 C-192.60847085 441.64030541 -190.91562762 442.55683038 -189.21826172 443.46484375 C-188.41646484 443.89796875 -187.61466797 444.33109375 -186.78857422 444.77734375 C-186.08732422 445.15246094 -185.38607422 445.52757812 -184.66357422 445.9140625 C-182.73553847 447.12310158 -181.35695876 448.45175323 -179.78857422 450.08984375 C-176.14700552 452.72998106 -172.38680538 454.85716018 -168.41357422 456.96484375 C-164.23313129 459.21020986 -160.54470526 461.67494139 -156.80810547 464.58203125 C-148.03987844 471.12852183 -138.47456227 474.95115169 -128.14013672 478.25390625 C-125.60400525 479.15545465 -123.23075887 480.27130248 -120.78857422 481.40234375 C-107.01618371 487.19381053 -85.42547304 494.59341939 -70.58544922 489.3046875 C-64.23123179 485.00868398 -60.79908195 477.56325208 -58.02685547 470.66796875 C-56.78857422 468.08984375 -56.78857422 468.08984375 -54.83544922 465.75 C-52.29518614 462.44862756 -51.0881207 459.17991899 -49.72607422 455.27734375 C-49.2351888 453.91666667 -48.74430339 452.55598958 -48.25341797 451.1953125 C-48.01357178 450.51919922 -47.77372559 449.84308594 -47.52661133 449.14648438 C-46.78167354 447.07061407 -46.00775535 445.00759934 -45.22607422 442.9453125 C-44.01336657 439.72756338 -42.90732448 436.48785959 -41.85107422 433.21484375 C-40.64365805 429.54228624 -39.35529632 425.96274043 -37.85107422 422.40234375 C-35.66715189 417.11450031 -34.13740879 411.66408045 -32.62670898 406.15356445 C-31.41567105 401.83627664 -29.82081552 398.1046248 -27.78857422 394.08984375 C-27.25034062 392.20992638 -26.77057948 390.31226523 -26.35107422 388.40234375 C-25.39424007 384.33955582 -24.273202 380.49051979 -22.78857422 376.58984375 C-20.9326911 371.70929615 -19.65154183 366.80801244 -18.49951172 361.71875 C-17.78857422 359.08984375 -17.78857422 359.08984375 -16.82763672 357.23046875 C-15.28681787 354.05615022 -14.57885405 350.69742049 -13.78857422 347.27734375 C-13.61269775 346.52324219 -13.43682129 345.76914062 -13.25561523 344.9921875 C-11.90354079 339.00362183 -11.01827215 333.01793101 -10.28466797 326.921875 C-9.73575076 322.68181375 -9.03899903 318.48554493 -8.28857422 314.27734375 C-8.15902344 313.54813721 -8.02947266 312.81893066 -7.89599609 312.06762695 C-7.24414556 308.45225546 -6.52757798 304.86202197 -5.72607422 301.27734375 C-4.49570501 295.38987454 -4.07452299 289.3809741 -3.57348633 283.39526367 C-3.10182529 278.09205397 -2.14352476 273.23647041 -0.78857422 268.08984375 C-0.4840044 265.77788193 -0.29956326 263.49259148 -0.13232422 261.16796875 C0.25485525 258.8272929 1.13820417 257.19548006 2.21142578 255.08984375 C2.57542252 253.60150151 2.88480355 252.09911367 3.14892578 250.58984375 C3.84459028 246.7776023 4.76620246 243.12551502 5.83642578 239.40234375 C7.38498457 233.4751015 7.30932016 228.01427018 6.92626953 221.92578125 C7.19250604 218.34435319 7.7248113 216.69642709 9.17626953 213.53515625 C11.98186997 207.01536912 11.80762427 200.59581015 11.83642578 193.58984375 C11.91483878 185.96025869 12.04341967 178.73015568 13.75244141 171.27539062 C14.42795176 168.05881155 14.53132398 164.86843944 14.64892578 161.58984375 C14.94760776 156.09741406 15.80452619 151.48961083 17.57470703 146.30859375 C18.86733968 141.80420514 18.69503245 137.54066377 17.21142578 133.08984375 C17.06549638 131.12064286 16.97414924 129.14722502 16.91259766 127.17358398 C16.87324097 125.95437759 16.83388428 124.7351712 16.79333496 123.47901917 C16.7553159 122.13966707 16.71760508 120.8003062 16.68017578 119.4609375 C16.63829847 118.06757894 16.59634563 116.67422266 16.55432129 115.28086853 C16.06346214 98.49318558 15.86565213 81.70007458 15.65917969 64.90698242 C15.62467425 62.11889437 15.58778264 59.33085568 15.54846191 56.54283142 C15.51231949 53.96407575 15.4797824 51.38526601 15.45153809 48.80641174 C15.8233519 35.97223282 15.8233519 35.97223282 10.21142578 25.08984375 C6.96061788 24.3184656 4.51262815 24.12548426 1.21142578 24.08984375 C0.06029297 24.01765625 -1.09083984 23.94546875 -2.27685547 23.87109375 C-16.67865374 23.18572326 -32.44232225 25.59025533 -45.78857422 31.08984375 Z " fill="#000100" transform="translate(776.78857421875,275.91015625)"/>
</svg>
