<?xml version="1.0" encoding="UTF-8"?>
<svg version="1.1" xmlns="http://www.w3.org/2000/svg" width="1056" height="1080">
<path d="M0 0 C2.74615679 -0.00180141 5.49229935 -0.00811004 8.23844957 -0.01418173 C14.17410447 -0.02493675 20.10967727 -0.02473795 26.04533577 -0.01704025 C34.87232296 -0.0056244 43.69924176 -0.01152926 52.52622859 -0.02066517 C68.2973754 -0.03641237 84.0684856 -0.03511324 99.83963583 -0.02642844 C113.6416754 -0.01886579 127.44370159 -0.0169191 141.2457428 -0.02049637 C142.62188698 -0.0208401 142.62188698 -0.0208401 144.02583206 -0.02119078 C147.75047837 -0.02212488 151.47512467 -0.02308008 155.19977096 -0.02407007 C190.10163063 -0.03323603 225.00346707 -0.02494422 259.90532316 -0.00877938 C290.87712079 0.00545621 321.8488814 0.00418227 352.82067871 -0.01016235 C387.6608911 -0.02624491 422.50108299 -0.03258585 457.34129858 -0.02332556 C461.05894819 -0.02236349 464.77659781 -0.02142496 468.49424744 -0.02049637 C469.86720145 -0.02014052 469.86720145 -0.02014052 471.26789192 -0.01977748 C485.05734883 -0.01637277 498.84679087 -0.0203415 512.63624573 -0.02793503 C528.32389777 -0.03653106 544.01150767 -0.03432949 559.6991545 -0.0180928 C568.4664847 -0.00931663 577.23372353 -0.00866135 586.00105127 -0.02003132 C591.87117381 -0.02680102 597.7412237 -0.02249573 603.61133555 -0.00951701 C606.94657532 -0.00244057 610.28148825 -0.00149944 613.6167441 -0.01073496 C632.38916731 -0.05870136 650.65462911 1.06935264 668.93249512 5.63095093 C669.79068848 5.84292114 670.64888184 6.05489136 671.53308105 6.27328491 C715.99903897 17.63382465 756.71222468 43.49555938 785.36999512 79.38095093 C786.02870605 80.1724353 786.68741699 80.96391968 787.36608887 81.77938843 C820.6775662 122.12850181 833.89325204 171.619494 833.75094604 223.01095581 C833.75274746 225.7571126 833.75905609 228.50325516 833.76512778 231.24940538 C833.7758828 237.18506028 833.775684 243.12063308 833.7679863 249.05629158 C833.75657044 257.88327877 833.7624753 266.71019757 833.77161122 275.5371844 C833.78735842 291.30833121 833.78605928 307.07944141 833.77737448 322.85059164 C833.76981183 336.65263121 833.76786514 350.4546574 833.77144241 364.25669861 C833.77167157 365.17412807 833.77190072 366.09155752 833.77213682 367.03678787 C833.77307092 370.76143418 833.77402613 374.48608048 833.77501611 378.21072677 C833.78418208 413.11258644 833.77589026 448.01442288 833.75972542 482.91627897 C833.74548984 513.8880766 833.74676377 544.85983721 833.7611084 575.83163452 C833.77719096 610.67184691 833.78353189 645.5120388 833.77427161 680.35225439 C833.77330953 684.069904 833.77237101 687.78755362 833.77144241 691.50520325 C833.77108657 692.87815727 833.77108657 692.87815727 833.77072353 694.27884773 C833.76731881 708.06830465 833.77128754 721.85774668 833.77888107 735.64720154 C833.78747711 751.33485358 833.78527553 767.02246348 833.76903884 782.71011031 C833.76026267 791.47744051 833.75960739 800.24467934 833.77097736 809.01200708 C833.77774706 814.88212962 833.77344177 820.75217951 833.76046306 826.62229136 C833.75338662 829.95753113 833.75244548 833.29244406 833.76168101 836.62769991 C833.80964741 855.40012312 832.6815934 873.66558492 828.11999512 891.94345093 C827.9080249 892.80164429 827.69605469 893.65983765 827.47766113 894.54403687 C816.11712139 939.00999478 790.25538667 979.72318049 754.36999512 1008.38095093 C753.57851074 1009.03966187 752.78702637 1009.6983728 751.97155762 1010.37704468 C711.62244423 1043.68852201 662.13145205 1056.90420785 610.73999023 1056.76190186 C607.99383345 1056.76370327 605.24769088 1056.7700119 602.50154066 1056.77608359 C596.56588577 1056.78683861 590.63031297 1056.78663981 584.69465446 1056.77894211 C575.86766727 1056.76752625 567.04074847 1056.77343111 558.21376164 1056.78256703 C542.44261484 1056.79831423 526.67150463 1056.7970151 510.9003544 1056.78833029 C497.09831484 1056.78076764 483.29628865 1056.77882095 469.49424744 1056.78239822 C468.11810325 1056.78274196 468.11810325 1056.78274196 466.71415817 1056.78309263 C462.98951187 1056.78402673 459.26486557 1056.78498194 455.54021928 1056.78597193 C420.6383596 1056.79513789 385.73652316 1056.78684607 350.83466708 1056.77068123 C319.86286945 1056.75644565 288.89110883 1056.75771958 257.91931152 1056.77206421 C223.07909913 1056.78814677 188.23890724 1056.7944877 153.39869165 1056.78522742 C149.68104204 1056.78426534 145.96339242 1056.78332682 142.2457428 1056.78239822 C140.87278878 1056.78204238 140.87278878 1056.78204238 139.47209832 1056.78167934 C125.6826414 1056.77827462 111.89319936 1056.78224335 98.10374451 1056.78983688 C82.41609246 1056.79843292 66.72848256 1056.79623134 51.04083574 1056.77999465 C42.27350553 1056.77121849 33.5062667 1056.7705632 24.73893896 1056.78193317 C18.86881642 1056.78870287 12.99876653 1056.78439759 7.12865468 1056.77141887 C3.79341492 1056.76434243 0.45850199 1056.7634013 -2.87675387 1056.77263682 C-21.64917708 1056.82060322 -39.91463888 1055.69254921 -58.19250488 1051.13095093 C-59.05069824 1050.91898071 -59.9088916 1050.7070105 -60.79309082 1050.48861694 C-105.25904873 1039.1280772 -145.97223445 1013.26634248 -174.63000488 977.38095093 C-175.61807129 976.19372437 -175.61807129 976.19372437 -176.62609863 974.98251343 C-209.93757596 934.63340004 -223.1532618 885.14240786 -223.01095581 833.75094604 C-223.01275722 831.00478926 -223.01906585 828.25864669 -223.02513754 825.51249647 C-223.03589257 819.57684158 -223.03569376 813.64126878 -223.02799606 807.70561028 C-223.01658021 798.87862308 -223.02248507 790.05170428 -223.03162098 781.22471745 C-223.04736818 765.45357065 -223.04606905 749.68246044 -223.03738425 733.91131021 C-223.0298216 720.10927065 -223.02787491 706.30724446 -223.03145218 692.50520325 C-223.03168133 691.58777379 -223.03191049 690.67034433 -223.03214659 689.72511398 C-223.03308069 686.00046768 -223.0340359 682.27582138 -223.03502588 678.55117509 C-223.04419184 643.64931541 -223.03590003 608.74747897 -223.01973519 573.84562289 C-223.0054996 542.87382526 -223.00677354 511.90206464 -223.02111816 480.93026733 C-223.03720072 446.09005494 -223.04354166 411.24986306 -223.03428137 376.40964746 C-223.0333193 372.69199785 -223.03238077 368.97434823 -223.03145218 365.25669861 C-223.03121495 364.34139593 -223.03097771 363.42609325 -223.03073329 362.48305413 C-223.02732858 348.69359721 -223.03129731 334.90415517 -223.03889084 321.11470032 C-223.04748687 305.42704827 -223.0452853 289.73943837 -223.02904861 274.05179155 C-223.02027244 265.28446134 -223.01961716 256.51722251 -223.03098713 247.74989477 C-223.03775683 241.87977224 -223.03345154 236.00972234 -223.02047282 230.13961049 C-223.01339638 226.80437073 -223.01245525 223.4694578 -223.02169077 220.13420194 C-223.06965717 201.36177873 -221.94160317 183.09631693 -217.38000488 164.81845093 C-217.16803467 163.96025757 -216.95606445 163.10206421 -216.7376709 162.21786499 C-205.37713116 117.75190708 -179.51539643 77.03872136 -143.63000488 48.38095093 C-142.83852051 47.72223999 -142.04703613 47.06352905 -141.23156738 46.38485718 C-100.882454 13.07337985 -51.39146181 -0.14230599 0 0 Z " fill="#566548" transform="translate(222.6300048828125,23.619049072265625)"/>
<path d="M0 0 C1.28821152 -0.00953201 2.57642303 -0.01906403 3.90367126 -0.02888489 C5.31151354 -0.02862346 6.71935583 -0.0276864 8.12719727 -0.02612305 C9.57064436 -0.03001018 11.01409032 -0.03434488 12.45753479 -0.03910828 C15.48295805 -0.04657008 18.50826461 -0.0462796 21.53369141 -0.04101562 C25.40870387 -0.03522171 29.28323824 -0.05214979 33.15817165 -0.0753603 C36.13933602 -0.09010021 39.12038532 -0.090969 42.10157967 -0.08785057 C43.53011077 -0.08836368 44.95864833 -0.09359958 46.38714409 -0.10366249 C48.38566307 -0.11601273 50.38427861 -0.10729602 52.3828125 -0.09765625 C53.51959946 -0.09828568 54.65638641 -0.0989151 55.82762146 -0.0995636 C59.07146821 0.3149577 60.47668965 0.95662005 62.75610352 3.2746582 C63.00610352 5.9621582 63.00610352 5.9621582 62.75610352 8.2746582 C63.41610352 8.2746582 64.07610352 8.2746582 64.75610352 8.2746582 C64.37434424 13.72268119 62.72828755 15.81547258 58.75610352 19.4621582 C57.74445002 20.4216663 56.73670223 21.38530718 55.73266602 22.3527832 C55.22896484 22.83811523 54.72526367 23.32344727 54.20629883 23.82348633 C47.84216394 30.19190683 42.64693049 37.73561326 37.29125977 44.94262695 C34.26574701 48.95897974 31.10953454 52.86862216 27.94360352 56.7746582 C27.11650879 57.79885864 27.11650879 57.79885864 26.27270508 58.84375 C23.56867877 62.16266561 20.80285375 65.26214112 17.75610352 68.2746582 C17.09610352 69.2646582 16.43610352 70.2546582 15.75610352 71.2746582 C15.09610352 71.2746582 14.43610352 71.2746582 13.75610352 71.2746582 C13.48540039 71.85344727 13.21469727 72.43223633 12.93579102 73.02856445 C8.41154605 81.64260702 0.79964786 88.66752813 -5.79663086 95.71850586 C-8.57931739 98.71055106 -11.2972359 101.76056034 -14.02124023 104.8059082 C-15.60613985 106.5662888 -17.20395002 108.31508151 -18.81030273 110.0559082 C-23.12992965 114.74247809 -27.2806755 119.41664315 -31.01733398 124.58325195 C-32.04274936 125.99728017 -33.13593718 127.36183281 -34.24389648 128.7121582 C-35.96110981 130.91233778 -37.4327641 133.1136165 -38.93139648 135.4621582 C-42.50503508 140.89481081 -46.83851726 145.51313233 -51.24389648 150.2746582 C-52.41608556 151.60313916 -53.5831519 152.93616618 -54.74389648 154.2746582 C-56.57903863 156.38823571 -58.43003614 158.47686244 -60.32592773 160.53637695 C-67.98363953 168.86464144 -74.75083557 177.75315597 -81.30639648 186.9621582 C-84.53334113 191.44115737 -88.06216598 195.47100264 -91.80639648 199.52075195 C-95.20179646 203.35690097 -98.3237497 207.38812718 -101.43847656 211.45361328 C-103.86388098 214.60123136 -106.25553833 217.64282868 -109.24389648 220.2746582 C-109.90389648 220.2746582 -110.56389648 220.2746582 -111.24389648 220.2746582 C-111.46561523 220.81477539 -111.68733398 221.35489258 -111.91577148 221.91137695 C-113.6771735 225.04563642 -116.03847667 227.49450934 -118.49389648 230.0871582 C-119.49471121 231.16061794 -120.49471791 232.23483162 -121.49389648 233.30981445 C-121.97213867 233.82302246 -122.45038086 234.33623047 -122.94311523 234.86499023 C-125.46242776 237.59519116 -127.8463149 240.43808281 -130.24389648 243.2746582 C-134.28804547 248.01019566 -138.34798557 252.44695971 -143.05639648 256.53637695 C-144.47869746 258.24638858 -144.47869746 258.24638858 -144.14624023 260.61450195 C-143.06916309 263.78978133 -141.59968799 266.31358754 -139.80639648 269.1496582 C-139.45802734 269.70339111 -139.1096582 270.25712402 -138.75073242 270.82763672 C-134.73733252 277.1622194 -130.55890053 283.39120355 -126.36499023 289.60717773 C-125.31125341 291.17447358 -124.26934615 292.74970435 -123.22827148 294.32543945 C-121.13116534 297.44220154 -118.94814294 300.4827981 -116.74389648 303.5246582 C-112.72321989 309.09922681 -108.89571283 314.78265455 -105.11889648 320.5246582 C-101.30142023 326.32149922 -97.3433278 331.84072456 -92.90795898 337.1887207 C-90.87262038 339.74006064 -89.19564435 342.41584696 -87.52124023 345.2121582 C-86.01989345 347.63635118 -84.3928022 349.94846003 -82.74389648 352.2746582 C-80.64012013 355.2444287 -78.62618831 358.22270824 -76.74389648 361.3371582 C-74.98148639 364.21901444 -73.05017212 366.83162412 -70.93139648 369.4621582 C-66.93497811 374.509359 -63.66938888 379.92419475 -60.35473633 385.43432617 C-53.06206824 397.51774722 -53.06206824 397.51774722 -44.99389648 409.0871582 C-41.75942964 413.4192654 -39.18287314 417.88039068 -36.66577148 422.6574707 C-33.36874753 428.72616865 -29.28361198 434.23320388 -25.18139648 439.7746582 C-22.85694508 442.94396671 -20.71444292 446.05529176 -18.86889648 449.5246582 C-13.64963812 459.33053756 -6.95447327 468.4114319 -0.37280273 477.33325195 C2.23544483 480.9369408 4.74679311 484.60170274 7.25610352 488.2746582 C12.66942931 496.1863707 18.15023077 504.02770376 24.13110352 511.5246582 C30.36962462 519.47627434 35.927066 528.04297953 41.00610352 536.7746582 C43.11623117 540.3725444 45.45510223 543.39615415 48.24438477 546.4855957 C50.54365335 549.20669392 52.43341462 552.1708735 54.36157227 555.16137695 C55.29955664 556.58280425 56.28444729 557.97424908 57.31079102 559.33325195 C58.99837917 561.60009333 60.33814606 564.01713314 61.72094727 566.4777832 C63.74921695 569.99855321 65.96738984 573.32581692 68.56469727 576.45043945 C71.26160014 579.92612711 73.52606655 583.58729639 75.81860352 587.3371582 C76.68277172 588.74576522 77.54860958 590.15334953 78.41625977 591.55981445 C78.81893066 592.21377197 79.22160156 592.86772949 79.63647461 593.54150391 C80.79996479 595.40750644 80.79996479 595.40750644 82.54907227 597.5090332 C84.69424497 600.64695573 83.99858084 603.576879 83.75610352 607.2746582 C81.71099894 609.31976278 77.40161833 608.44004096 74.58992004 608.44874573 C73.72350236 608.45524468 72.85708468 608.46174363 71.96441191 608.46843952 C69.03797017 608.48894846 66.11154247 608.5020877 63.18505859 608.51513672 C61.09614871 608.52794099 59.00724083 608.5410763 56.91833496 608.55451965 C37.83569187 608.67050501 18.75252091 608.7270562 -0.33040905 608.77128696 C-14.44499319 608.80454683 -28.55893654 608.86412762 -42.67324561 608.95879799 C-52.58749408 609.02305798 -62.5015676 609.05681312 -72.4160164 609.0680365 C-78.34212772 609.07560903 -84.26746588 609.09689196 -90.19334984 609.15106392 C-95.76924294 609.20143298 -101.34395181 609.21412621 -106.92003632 609.19781303 C-108.96712958 609.19841772 -111.01427145 609.21274246 -113.06115913 609.24176025 C-115.85647876 609.2793175 -118.64742501 609.2675362 -121.4427948 609.24342346 C-122.25340762 609.26604407 -123.06402044 609.28866469 -123.89919728 609.31197077 C-127.44611063 609.23406748 -129.43897158 609.06575773 -132.03234351 606.51692951 C-133.5485567 604.49103881 -134.88770405 602.40901173 -136.24389648 600.2746582 C-137.90402471 598.60147865 -139.57074733 596.93481707 -141.24389648 595.2746582 C-143.40633777 592.68853432 -145.4540784 590.02058763 -147.49389648 587.3371582 C-148.06382324 586.59079102 -148.63375 585.84442383 -149.22094727 585.07543945 C-153.14427814 579.87821375 -156.75927298 574.55620812 -160.20507812 569.03393555 C-162.77725412 564.92730085 -165.588003 561.13518065 -168.61889648 557.3605957 C-172.07350502 552.92607417 -175.06069035 548.15146793 -178.05639648 543.3996582 C-180.93755056 539.2837238 -184.16985632 535.49755724 -187.41577148 531.6652832 C-189.24389648 529.2746582 -189.24389648 529.2746582 -189.24389648 527.2746582 C-190.23389648 526.9446582 -191.22389648 526.6146582 -192.24389648 526.2746582 C-193.75170898 524.1574707 -193.75170898 524.1574707 -195.36889648 521.3996582 C-197.91980568 517.22544316 -200.6289975 513.49323307 -203.80639648 509.7746582 C-207.48573345 505.40544555 -210.12014315 501.02240295 -212.72045898 495.95825195 C-214.83801108 492.22810249 -217.50231817 489.09032532 -220.23999023 485.80200195 C-222.94256358 482.39349327 -225.17370905 478.75723338 -227.46264648 475.0637207 C-229.89975568 471.24772077 -232.57078919 467.62575432 -235.25561523 463.98168945 C-237.21949101 461.30788609 -239.14719726 458.61273078 -241.05639648 455.8996582 C-241.5990918 455.12879883 -242.14178711 454.35793945 -242.70092773 453.5637207 C-243.74732314 452.01134676 -244.74136295 450.42262892 -245.68530273 448.8059082 C-247.38596659 446.0439278 -249.29345701 443.64167334 -251.36889648 441.1496582 C-252.16295898 440.18930664 -252.95702148 439.22895508 -253.77514648 438.23950195 C-255.37830838 436.31418569 -256.98242057 434.38966018 -258.58764648 432.46606445 C-262.89715899 427.26365637 -266.92560316 422.01556854 -270.63842773 416.3684082 C-272.3029586 414.19763315 -273.9878632 412.80151804 -276.24389648 411.2746582 C-277.42145508 412.57790039 -277.42145508 412.57790039 -278.62280273 413.9074707 C-288.20607269 424.44174053 -288.20607269 424.44174053 -293.73217773 428.8840332 C-296.137051 431.09626804 -297.8892688 433.75185171 -299.77905273 436.40356445 C-301.90307613 439.11665033 -304.60282647 441.07376652 -307.24389648 443.2746582 C-308.23058363 444.56597827 -309.18745052 445.88044222 -310.11889648 447.2121582 C-312.7521291 450.89316924 -315.61316674 453.1940943 -319.29467773 455.7746582 C-321.89204211 457.77343159 -323.83218379 460.09818277 -325.88842773 462.6340332 C-327.24389648 464.2746582 -327.24389648 464.2746582 -329.61889648 466.5871582 C-332.7439954 469.78666424 -335.44268778 473.22894192 -338.20874023 476.73950195 C-339.97574447 478.94062624 -341.79413442 481.05221382 -343.68139648 483.1496582 C-346.56205557 486.38385272 -349.1237946 489.77985289 -351.68139648 493.2746582 C-354.95902473 497.71567668 -358.35636842 501.62950665 -362.41967773 505.3605957 C-364.73021225 507.78492528 -366.40181038 510.48012985 -368.24389648 513.2746582 C-369.77958235 515.19227631 -371.3433358 517.087684 -372.93139648 518.9621582 C-373.81729826 520.0125305 -374.70270418 521.06332117 -375.58764648 522.11450195 C-376.03108398 522.64027832 -376.47452148 523.16605469 -376.93139648 523.70776367 C-378.95696664 526.12593875 -380.94264473 528.57617787 -382.93139648 531.0246582 C-385.43865593 534.10075487 -387.97438058 537.12856677 -390.61889648 540.0871582 C-392.75505395 542.48358313 -394.76589206 544.93404831 -396.70092773 547.4934082 C-401.63316929 554.00055312 -406.58065494 559.72561814 -412.74902344 565.08154297 C-418.77898993 570.43356685 -423.40463691 576.86441551 -428.24389648 583.2746582 C-431.88486752 587.95473783 -435.5761245 591.47417357 -440.41577148 594.91918945 C-442.4253614 596.33986167 -442.4253614 596.33986167 -444.61889648 598.6496582 C-445.15514648 599.1859082 -445.69139648 599.7221582 -446.24389648 600.2746582 C-446.90389648 600.2746582 -447.56389648 600.2746582 -448.24389648 600.2746582 C-448.53264648 601.2234082 -448.82139648 602.1721582 -449.11889648 603.1496582 C-450.24389648 606.2746582 -450.24389648 606.2746582 -452.24389648 608.2746582 C-455.10391235 608.51516724 -455.10391235 608.51516724 -458.80493164 608.50170898 C-459.47822006 608.50200104 -460.15150848 608.50229309 -460.84519958 608.50259399 C-463.07458302 608.50119868 -465.30363381 608.48562837 -467.53295898 608.4699707 C-469.07709572 608.46624128 -470.62123481 608.46339398 -472.16537476 608.46139526 C-476.23265091 608.4537532 -480.29978459 608.43409988 -484.36700439 608.4119873 C-488.51605298 608.39154116 -492.66512456 608.38239619 -496.81420898 608.37231445 C-504.95750359 608.35085445 -513.10068232 608.31671169 -521.24389648 608.2746582 C-523.65480146 603.01737064 -525.37995916 599.03321891 -523.24389648 593.2746582 C-520.29006083 588.63416492 -516.70143728 585.4267686 -511.99389648 582.6496582 C-506.91562193 579.50060891 -503.82468941 575.24244367 -500.28027344 570.54125977 C-496.66967407 565.7560819 -492.93464574 561.06017515 -488.24389648 557.2746582 C-487.58389648 557.2746582 -486.92389648 557.2746582 -486.24389648 557.2746582 C-486.05827148 556.5734082 -485.87264648 555.8721582 -485.68139648 555.1496582 C-484.26885452 552.32457427 -483.43361589 551.43282983 -481.05639648 549.5246582 C-476.68791016 545.97582601 -473.56438448 541.79052187 -470.24389648 537.2746582 C-445.9081567 504.20926426 -445.9081567 504.20926426 -433.61889648 494.2121582 C-430.83803378 491.94746491 -428.74776 489.48898136 -426.55639648 486.6496582 C-423.39039082 482.55716638 -420.00322231 478.93700477 -416.30639648 475.3371582 C-410.8318302 469.98525927 -405.95294232 464.31869567 -401.24389648 458.2746582 C-400.6522168 457.51540039 -400.06053711 456.75614258 -399.45092773 455.97387695 C-398.32074812 454.51783319 -397.1918232 453.06081461 -396.06420898 451.6027832 C-393.94183731 448.8883336 -391.78794637 446.2019673 -389.61889648 443.5246582 C-388.90475586 442.64293945 -388.19061523 441.7612207 -387.45483398 440.8527832 C-385.16668678 438.18462569 -382.7457453 435.74284986 -380.24389648 433.2746582 C-373.84161042 426.68735984 -367.62373184 420.01213826 -362.11889648 412.6496582 C-355.92415419 404.38791139 -349.3742417 396.4995109 -341.11889648 390.2121582 C-332.73124952 383.79494259 -326.88553846 375.08680972 -321.24389648 366.2746582 C-320.12187442 364.5851767 -318.99692864 362.89763283 -317.86889648 361.2121582 C-317.36616211 360.45805664 -316.86342773 359.70395508 -316.34545898 358.92700195 C-315.98194336 358.38172852 -315.61842773 357.83645508 -315.24389648 357.2746582 C-315.93612305 356.61336914 -315.93612305 356.61336914 -316.64233398 355.9387207 C-322.27122377 350.13184231 -325.9689196 343.78925092 -329.65356445 336.65991211 C-332.04524595 332.10800217 -334.44341283 328.82015733 -338.24389648 325.2746582 C-344.01956222 317.92988097 -349.54326116 310.13694855 -354.08374023 301.9621582 C-356.2820558 298.08375328 -358.87256142 294.57728689 -361.55639648 291.0246582 C-366.67517778 284.15120789 -371.43951237 277.12528585 -375.73217773 269.70043945 C-377.15022674 267.42496546 -378.62757402 265.56236522 -380.43139648 263.5871582 C-384.55994069 258.96318869 -388.40859428 254.14283387 -392.24389648 249.2746582 C-392.84331055 248.52055664 -393.44272461 247.76645508 -394.06030273 246.98950195 C-397.67934624 242.39890314 -401.09212115 237.7028518 -404.41186523 232.8918457 C-407.01307768 229.17582792 -409.72904721 225.54649683 -412.44702148 221.9152832 C-414.24389648 219.2746582 -414.24389648 219.2746582 -415.68530273 216.3684082 C-417.78659338 212.19742527 -420.46470518 208.55756056 -423.19116211 204.77856445 C-426.24389648 200.47766775 -426.24389648 200.47766775 -426.24389648 198.2746582 C-427.23389648 197.9446582 -428.22389648 197.6146582 -429.24389648 197.2746582 C-430.19322845 195.91846967 -431.13214053 194.55346773 -432.00952148 193.1496582 C-433.97549725 190.16336591 -436.23547858 187.41249157 -438.46264648 184.6184082 C-441.78019408 180.253214 -444.63904385 175.65713071 -447.38818359 170.9230957 C-450.9250377 164.85054602 -454.64807505 159.32067564 -459.15014648 153.9074707 C-465.51424615 145.90485284 -470.82242874 137.18907938 -475.68139648 128.2121582 C-480.05418635 120.19084606 -485.39385214 113.26475386 -491.24389648 106.2746582 C-492.1243896 105.21239419 -493.00460376 104.14989889 -493.88452148 103.0871582 C-495.55973189 101.07279477 -497.23803441 99.06099814 -498.91967773 97.05200195 C-505.30057533 89.42709743 -511.20398614 81.59781209 -516.88745117 73.44384766 C-519.44286859 69.78613304 -522.02848953 66.21940707 -524.86889648 62.7746582 C-533.0646312 52.24019025 -539.54558461 42.84181025 -538.79077148 29.15356445 C-538.24389648 26.2746582 -538.24389648 26.2746582 -536.24389648 24.2746582 C-533.2822935 24.07225713 -530.41364339 23.99669345 -527.45046997 24.00723267 C-526.52870055 24.00270155 -525.60693113 23.99817044 -524.6572293 23.99350202 C-521.5495123 23.98077952 -518.44196878 23.98248343 -515.33422852 23.98413086 C-513.1138486 23.9781505 -510.89347077 23.9713461 -508.6730957 23.96377563 C-502.62767276 23.94605814 -496.58230638 23.94141783 -490.53685999 23.94014406 C-485.49688485 23.93824884 -480.45692301 23.93089565 -475.41695297 23.92379987 C-464.2093472 23.90842858 -453.00176824 23.90246392 -441.79415514 23.90381058 C-440.78483619 23.90393044 -440.78483619 23.90393044 -439.75512695 23.90405273 C-439.08142826 23.9041345 -438.40772957 23.90421626 -437.71361576 23.9043005 C-426.79442271 23.90511346 -415.87536759 23.88597501 -404.95621444 23.857776 C-393.75092189 23.82906585 -382.54569459 23.81560119 -371.34035766 23.81696355 C-365.04683064 23.81747448 -358.75345962 23.81171935 -352.45996475 23.79060745 C-346.54203358 23.77129859 -340.62440839 23.77105018 -334.70646667 23.78564072 C-332.53118826 23.78773908 -330.35589106 23.78296723 -328.18064499 23.7709198 C-325.2171626 23.7555666 -322.25474838 23.76470972 -319.29129028 23.78018188 C-318.42495157 23.76989476 -317.55861286 23.75960763 -316.66602147 23.74900877 C-310.86093334 23.816256 -310.86093334 23.816256 -307.67843437 26.18056297 C-306.24389648 28.2746582 -306.24389648 28.2746582 -306.24389648 30.2746582 C-305.25389648 30.6046582 -304.26389648 30.9346582 -303.24389648 31.2746582 C-301.77046633 33.17529592 -300.38766075 35.14687125 -299.05639648 37.1496582 C-298.25416443 38.34184137 -297.45075837 39.5332353 -296.64624023 40.72387695 C-296.2438916 41.32248535 -295.84154297 41.92109375 -295.42700195 42.5378418 C-293.7131757 45.05376421 -291.9199084 47.50814781 -290.11889648 49.9621582 C-287.05890641 54.14474819 -284.05061211 58.35719231 -281.09545898 62.61450195 C-279.74700547 64.55183707 -278.38589272 66.48037928 -277.01733398 68.40356445 C-273.51704186 73.34723051 -270.17049576 78.22785287 -267.43139648 83.6496582 C-264.51265797 89.24254821 -260.69866608 93.8712979 -256.70654297 98.71630859 C-253.04199635 103.18873284 -249.89289632 107.78831625 -246.88452148 112.73168945 C-245.15917811 115.40597169 -243.26508821 117.81759879 -241.24389648 120.2746582 C-237.75338378 124.5266148 -234.78879584 128.94996762 -231.89233398 133.62231445 C-230.38875091 136.04158675 -228.83540341 138.41265984 -227.24389648 140.7746582 C-225.02642238 144.07727921 -222.87234631 147.41394795 -220.74389648 150.7746582 C-218.0788291 154.98111114 -215.36118652 159.14554757 -212.58374023 163.27856445 C-211.41577467 165.01859478 -210.26575269 166.77064283 -209.11889648 168.5246582 C-207.27514717 171.22882387 -205.28927336 173.7197188 -203.24389648 176.2746582 C-201.30869957 178.78160155 -199.39857215 181.30697179 -197.49389648 183.8371582 C-196.70426514 184.88528687 -196.70426514 184.88528687 -195.89868164 185.95458984 C-191.96822719 191.21218737 -188.29860148 196.57920291 -184.76733398 202.11450195 C-183.42315187 204.38219431 -183.42315187 204.38219431 -181.24389648 205.2746582 C-181.00799805 204.6971582 -180.77209961 204.1196582 -180.52905273 203.5246582 C-178.95964504 200.77700218 -177.11888434 199.28873267 -174.68139648 197.2746582 C-168.93846821 192.21365131 -164.6099835 186.52256257 -160.24389648 180.2746582 C-159.76629883 179.59209961 -159.28870117 178.90954102 -158.79663086 178.20629883 C-158.28938477 177.48120117 -157.78213867 176.75610352 -157.25952148 176.0090332 C-156.21301793 174.51398147 -155.16614048 173.01919138 -154.11889648 171.5246582 C-153.60464111 170.79021484 -153.09038574 170.05577148 -152.56054688 169.29907227 C-148.3902149 163.38578467 -143.98745417 157.96953987 -138.82202148 152.89575195 C-136.35880216 150.39147897 -134.13801101 147.81819666 -131.93139648 145.0871582 C-130.76737305 143.65436523 -130.76737305 143.65436523 -129.57983398 142.19262695 C-128.07232852 140.30950558 -126.57659423 138.41687149 -125.09545898 136.51293945 C-121.43173017 131.81747091 -117.83846922 128.08717601 -113.24389648 124.2746582 C-111.3938829 122.03234263 -109.64642536 119.72828511 -107.89624023 117.4074707 C-105.87266348 114.79547802 -103.638195 112.5492418 -101.24389648 110.2746582 C-97.05117987 106.19334227 -93.07580245 102.00667054 -89.25952148 97.5715332 C-87.27342223 95.30830382 -85.23715709 93.09725669 -83.18725586 90.8918457 C-78.23852722 85.5614154 -73.60421036 80.0989422 -69.24389648 74.2746582 C-68.04011793 72.6878592 -66.83176965 71.1045166 -65.61889648 69.5246582 C-64.82612305 68.48051758 -64.82612305 68.48051758 -64.01733398 67.4152832 C-62.24389648 65.2746582 -62.24389648 65.2746582 -59.86889648 62.90356445 C-57.02041096 60.05084011 -54.44642123 57.05691962 -51.86889648 53.9621582 C-50.89277304 52.80033085 -49.91621197 51.63887103 -48.93920898 50.4777832 C-48.23973145 49.64537109 -48.23973145 49.64537109 -47.52612305 48.79614258 C-42.56267067 42.90653192 -37.39113463 37.21549348 -32.15014648 31.57324219 C-29.37520501 28.57088746 -26.77712632 25.48201157 -24.24389648 22.2746582 C-23.12789722 20.975207 -22.00324489 19.68312284 -20.86889648 18.3996582 C-20.26948242 17.71516602 -19.67006836 17.03067383 -19.05249023 16.32543945 C-17.88624735 15.00302582 -16.71229434 13.68735287 -15.52905273 12.38012695 C-12.60565276 9.09934312 -10.78902407 6.43461709 -9.24389648 2.2746582 C-5.70316204 -0.08583142 -4.19732931 0.01702367 0 0 Z " fill="#38432E" transform="translate(754.243896484375,231.725341796875)"/>
<path d="M0 0 C1.28821152 -0.00953201 2.57642303 -0.01906403 3.90367126 -0.02888489 C5.31151354 -0.02862346 6.71935583 -0.0276864 8.12719727 -0.02612305 C9.57064436 -0.03001018 11.01409032 -0.03434488 12.45753479 -0.03910828 C15.48295805 -0.04657008 18.50826461 -0.0462796 21.53369141 -0.04101562 C25.40870387 -0.03522171 29.28323824 -0.05214979 33.15817165 -0.0753603 C36.13933602 -0.09010021 39.12038532 -0.090969 42.10157967 -0.08785057 C43.53011077 -0.08836368 44.95864833 -0.09359958 46.38714409 -0.10366249 C48.38566307 -0.11601273 50.38427861 -0.10729602 52.3828125 -0.09765625 C53.51959946 -0.09828568 54.65638641 -0.0989151 55.82762146 -0.0995636 C59.07146821 0.3149577 60.47668965 0.95662005 62.75610352 3.2746582 C63.00610352 5.9621582 63.00610352 5.9621582 62.75610352 8.2746582 C63.41610352 8.2746582 64.07610352 8.2746582 64.75610352 8.2746582 C64.37434424 13.72268119 62.72828755 15.81547258 58.75610352 19.4621582 C57.74445002 20.4216663 56.73670223 21.38530718 55.73266602 22.3527832 C55.22896484 22.83811523 54.72526367 23.32344727 54.20629883 23.82348633 C47.84216394 30.19190683 42.64693049 37.73561326 37.29125977 44.94262695 C34.26574701 48.95897974 31.10953454 52.86862216 27.94360352 56.7746582 C27.11650879 57.79885864 27.11650879 57.79885864 26.27270508 58.84375 C23.56867877 62.16266561 20.80285375 65.26214112 17.75610352 68.2746582 C17.09610352 69.2646582 16.43610352 70.2546582 15.75610352 71.2746582 C15.09610352 71.2746582 14.43610352 71.2746582 13.75610352 71.2746582 C13.48540039 71.85344727 13.21469727 72.43223633 12.93579102 73.02856445 C8.41154605 81.64260702 0.79964786 88.66752813 -5.79663086 95.71850586 C-8.57931739 98.71055106 -11.2972359 101.76056034 -14.02124023 104.8059082 C-15.60613985 106.5662888 -17.20395002 108.31508151 -18.81030273 110.0559082 C-23.12992965 114.74247809 -27.2806755 119.41664315 -31.01733398 124.58325195 C-32.04274936 125.99728017 -33.13593718 127.36183281 -34.24389648 128.7121582 C-35.96110981 130.91233778 -37.4327641 133.1136165 -38.93139648 135.4621582 C-42.50503508 140.89481081 -46.83851726 145.51313233 -51.24389648 150.2746582 C-52.41608556 151.60313916 -53.5831519 152.93616618 -54.74389648 154.2746582 C-56.57903863 156.38823571 -58.43003614 158.47686244 -60.32592773 160.53637695 C-67.98363953 168.86464144 -74.75083557 177.75315597 -81.30639648 186.9621582 C-84.53334113 191.44115737 -88.06216598 195.47100264 -91.80639648 199.52075195 C-95.20179646 203.35690097 -98.3237497 207.38812718 -101.43847656 211.45361328 C-103.86388098 214.60123136 -106.25553833 217.64282868 -109.24389648 220.2746582 C-109.90389648 220.2746582 -110.56389648 220.2746582 -111.24389648 220.2746582 C-111.46561523 220.81477539 -111.68733398 221.35489258 -111.91577148 221.91137695 C-113.6771735 225.04563642 -116.03847667 227.49450934 -118.49389648 230.0871582 C-119.49471121 231.16061794 -120.49471791 232.23483162 -121.49389648 233.30981445 C-121.97213867 233.82302246 -122.45038086 234.33623047 -122.94311523 234.86499023 C-125.46242776 237.59519116 -127.8463149 240.43808281 -130.24389648 243.2746582 C-134.28804547 248.01019566 -138.34798557 252.44695971 -143.05639648 256.53637695 C-144.47869746 258.24638858 -144.47869746 258.24638858 -144.14624023 260.61450195 C-143.06916309 263.78978133 -141.59968799 266.31358754 -139.80639648 269.1496582 C-139.45802734 269.70339111 -139.1096582 270.25712402 -138.75073242 270.82763672 C-134.73733252 277.1622194 -130.55890053 283.39120355 -126.36499023 289.60717773 C-125.31125341 291.17447358 -124.26934615 292.74970435 -123.22827148 294.32543945 C-121.13116534 297.44220154 -118.94814294 300.4827981 -116.74389648 303.5246582 C-112.72321989 309.09922681 -108.89571283 314.78265455 -105.11889648 320.5246582 C-101.30142023 326.32149922 -97.3433278 331.84072456 -92.90795898 337.1887207 C-90.87262038 339.74006064 -89.19564435 342.41584696 -87.52124023 345.2121582 C-86.01989345 347.63635118 -84.3928022 349.94846003 -82.74389648 352.2746582 C-80.64012013 355.2444287 -78.62618831 358.22270824 -76.74389648 361.3371582 C-74.98148639 364.21901444 -73.05017212 366.83162412 -70.93139648 369.4621582 C-66.93497811 374.509359 -63.66938888 379.92419475 -60.35473633 385.43432617 C-53.06206824 397.51774722 -53.06206824 397.51774722 -44.99389648 409.0871582 C-41.75942964 413.4192654 -39.18287314 417.88039068 -36.66577148 422.6574707 C-33.36874753 428.72616865 -29.28361198 434.23320388 -25.18139648 439.7746582 C-22.85694508 442.94396671 -20.71444292 446.05529176 -18.86889648 449.5246582 C-13.64963812 459.33053756 -6.95447327 468.4114319 -0.37280273 477.33325195 C2.23544483 480.9369408 4.74679311 484.60170274 7.25610352 488.2746582 C12.66942931 496.1863707 18.15023077 504.02770376 24.13110352 511.5246582 C30.36962462 519.47627434 35.927066 528.04297953 41.00610352 536.7746582 C43.11623117 540.3725444 45.45510223 543.39615415 48.24438477 546.4855957 C50.54365335 549.20669392 52.43341462 552.1708735 54.36157227 555.16137695 C55.29955664 556.58280425 56.28444729 557.97424908 57.31079102 559.33325195 C58.99837917 561.60009333 60.33814606 564.01713314 61.72094727 566.4777832 C63.74921695 569.99855321 65.96738984 573.32581692 68.56469727 576.45043945 C71.26160014 579.92612711 73.52606655 583.58729639 75.81860352 587.3371582 C76.68277172 588.74576522 77.54860958 590.15334953 78.41625977 591.55981445 C78.81893066 592.21377197 79.22160156 592.86772949 79.63647461 593.54150391 C80.79996479 595.40750644 80.79996479 595.40750644 82.54907227 597.5090332 C84.69424497 600.64695573 83.99858084 603.576879 83.75610352 607.2746582 C81.71099894 609.31976278 77.40161833 608.44004096 74.58992004 608.44874573 C73.72350236 608.45524468 72.85708468 608.46174363 71.96441191 608.46843952 C69.03797017 608.48894846 66.11154247 608.5020877 63.18505859 608.51513672 C61.09614871 608.52794099 59.00724083 608.5410763 56.91833496 608.55451965 C37.83569187 608.67050501 18.75252091 608.7270562 -0.33040905 608.77128696 C-14.44499319 608.80454683 -28.55893654 608.86412762 -42.67324561 608.95879799 C-52.58749408 609.02305798 -62.5015676 609.05681312 -72.4160164 609.0680365 C-78.34212772 609.07560903 -84.26746588 609.09689196 -90.19334984 609.15106392 C-95.76924294 609.20143298 -101.34395181 609.21412621 -106.92003632 609.19781303 C-108.96712958 609.19841772 -111.01427145 609.21274246 -113.06115913 609.24176025 C-115.85647876 609.2793175 -118.64742501 609.2675362 -121.4427948 609.24342346 C-122.25340762 609.26604407 -123.06402044 609.28866469 -123.89919728 609.31197077 C-127.44611063 609.23406748 -129.43897158 609.06575773 -132.03234351 606.51692951 C-133.5485567 604.49103881 -134.88770405 602.40901173 -136.24389648 600.2746582 C-137.90402471 598.60147865 -139.57074733 596.93481707 -141.24389648 595.2746582 C-143.40633777 592.68853432 -145.4540784 590.02058763 -147.49389648 587.3371582 C-148.06382324 586.59079102 -148.63375 585.84442383 -149.22094727 585.07543945 C-153.14427814 579.87821375 -156.75927298 574.55620812 -160.20507812 569.03393555 C-162.77725412 564.92730085 -165.588003 561.13518065 -168.61889648 557.3605957 C-172.07350502 552.92607417 -175.06069035 548.15146793 -178.05639648 543.3996582 C-180.93755056 539.2837238 -184.16985632 535.49755724 -187.41577148 531.6652832 C-189.24389648 529.2746582 -189.24389648 529.2746582 -189.24389648 527.2746582 C-190.23389648 526.9446582 -191.22389648 526.6146582 -192.24389648 526.2746582 C-193.75170898 524.1574707 -193.75170898 524.1574707 -195.36889648 521.3996582 C-197.91980568 517.22544316 -200.6289975 513.49323307 -203.80639648 509.7746582 C-207.48573345 505.40544555 -210.12014315 501.02240295 -212.72045898 495.95825195 C-214.83801108 492.22810249 -217.50231817 489.09032532 -220.23999023 485.80200195 C-222.94256358 482.39349327 -225.17370905 478.75723338 -227.46264648 475.0637207 C-229.89975568 471.24772077 -232.57078919 467.62575432 -235.25561523 463.98168945 C-237.21949101 461.30788609 -239.14719726 458.61273078 -241.05639648 455.8996582 C-241.5990918 455.12879883 -242.14178711 454.35793945 -242.70092773 453.5637207 C-243.74732314 452.01134676 -244.74136295 450.42262892 -245.68530273 448.8059082 C-247.38596659 446.0439278 -249.29345701 443.64167334 -251.36889648 441.1496582 C-252.16295898 440.18930664 -252.95702148 439.22895508 -253.77514648 438.23950195 C-255.37830838 436.31418569 -256.98242057 434.38966018 -258.58764648 432.46606445 C-262.89715899 427.26365637 -266.92560316 422.01556854 -270.63842773 416.3684082 C-272.3029586 414.19763315 -273.9878632 412.80151804 -276.24389648 411.2746582 C-277.42145508 412.57790039 -277.42145508 412.57790039 -278.62280273 413.9074707 C-288.20607269 424.44174053 -288.20607269 424.44174053 -293.73217773 428.8840332 C-296.137051 431.09626804 -297.8892688 433.75185171 -299.77905273 436.40356445 C-301.90307613 439.11665033 -304.60282647 441.07376652 -307.24389648 443.2746582 C-308.23058363 444.56597827 -309.18745052 445.88044222 -310.11889648 447.2121582 C-312.7521291 450.89316924 -315.61316674 453.1940943 -319.29467773 455.7746582 C-321.89204211 457.77343159 -323.83218379 460.09818277 -325.88842773 462.6340332 C-327.24389648 464.2746582 -327.24389648 464.2746582 -329.61889648 466.5871582 C-332.7439954 469.78666424 -335.44268778 473.22894192 -338.20874023 476.73950195 C-339.97574447 478.94062624 -341.79413442 481.05221382 -343.68139648 483.1496582 C-346.56205557 486.38385272 -349.1237946 489.77985289 -351.68139648 493.2746582 C-354.95902473 497.71567668 -358.35636842 501.62950665 -362.41967773 505.3605957 C-364.73021225 507.78492528 -366.40181038 510.48012985 -368.24389648 513.2746582 C-369.77958235 515.19227631 -371.3433358 517.087684 -372.93139648 518.9621582 C-373.81729826 520.0125305 -374.70270418 521.06332117 -375.58764648 522.11450195 C-376.03108398 522.64027832 -376.47452148 523.16605469 -376.93139648 523.70776367 C-378.95696664 526.12593875 -380.94264473 528.57617787 -382.93139648 531.0246582 C-385.43865593 534.10075487 -387.97438058 537.12856677 -390.61889648 540.0871582 C-392.75505395 542.48358313 -394.76589206 544.93404831 -396.70092773 547.4934082 C-401.63316929 554.00055312 -406.58065494 559.72561814 -412.74902344 565.08154297 C-418.77898993 570.43356685 -423.40463691 576.86441551 -428.24389648 583.2746582 C-431.88486752 587.95473783 -435.5761245 591.47417357 -440.41577148 594.91918945 C-442.4253614 596.33986167 -442.4253614 596.33986167 -444.61889648 598.6496582 C-445.15514648 599.1859082 -445.69139648 599.7221582 -446.24389648 600.2746582 C-446.90389648 600.2746582 -447.56389648 600.2746582 -448.24389648 600.2746582 C-448.53264648 601.2234082 -448.82139648 602.1721582 -449.11889648 603.1496582 C-450.24389648 606.2746582 -450.24389648 606.2746582 -452.24389648 608.2746582 C-455.10391235 608.51516724 -455.10391235 608.51516724 -458.80493164 608.50170898 C-459.47822006 608.50200104 -460.15150848 608.50229309 -460.84519958 608.50259399 C-463.07458302 608.50119868 -465.30363381 608.48562837 -467.53295898 608.4699707 C-469.07709572 608.46624128 -470.62123481 608.46339398 -472.16537476 608.46139526 C-476.23265091 608.4537532 -480.29978459 608.43409988 -484.36700439 608.4119873 C-488.51605298 608.39154116 -492.66512456 608.38239619 -496.81420898 608.37231445 C-504.95750359 608.35085445 -513.10068232 608.31671169 -521.24389648 608.2746582 C-523.65480146 603.01737064 -525.37995916 599.03321891 -523.24389648 593.2746582 C-520.29006083 588.63416492 -516.70143728 585.4267686 -511.99389648 582.6496582 C-506.91562193 579.50060891 -503.82468941 575.24244367 -500.28027344 570.54125977 C-496.66967407 565.7560819 -492.93464574 561.06017515 -488.24389648 557.2746582 C-487.58389648 557.2746582 -486.92389648 557.2746582 -486.24389648 557.2746582 C-486.05827148 556.5734082 -485.87264648 555.8721582 -485.68139648 555.1496582 C-484.26885452 552.32457427 -483.43361589 551.43282983 -481.05639648 549.5246582 C-476.68791016 545.97582601 -473.56438448 541.79052187 -470.24389648 537.2746582 C-445.9081567 504.20926426 -445.9081567 504.20926426 -433.61889648 494.2121582 C-430.83803378 491.94746491 -428.74776 489.48898136 -426.55639648 486.6496582 C-423.39039082 482.55716638 -420.00322231 478.93700477 -416.30639648 475.3371582 C-410.8318302 469.98525927 -405.95294232 464.31869567 -401.24389648 458.2746582 C-400.6522168 457.51540039 -400.06053711 456.75614258 -399.45092773 455.97387695 C-398.32074812 454.51783319 -397.1918232 453.06081461 -396.06420898 451.6027832 C-393.94183731 448.8883336 -391.78794637 446.2019673 -389.61889648 443.5246582 C-388.90475586 442.64293945 -388.19061523 441.7612207 -387.45483398 440.8527832 C-385.16668678 438.18462569 -382.7457453 435.74284986 -380.24389648 433.2746582 C-373.84161042 426.68735984 -367.62373184 420.01213826 -362.11889648 412.6496582 C-355.92415419 404.38791139 -349.3742417 396.4995109 -341.11889648 390.2121582 C-332.73124952 383.79494259 -326.88553846 375.08680972 -321.24389648 366.2746582 C-320.12187442 364.5851767 -318.99692864 362.89763283 -317.86889648 361.2121582 C-317.36616211 360.45805664 -316.86342773 359.70395508 -316.34545898 358.92700195 C-315.98194336 358.38172852 -315.61842773 357.83645508 -315.24389648 357.2746582 C-315.93612305 356.61336914 -315.93612305 356.61336914 -316.64233398 355.9387207 C-322.27122377 350.13184231 -325.9689196 343.78925092 -329.65356445 336.65991211 C-332.04524595 332.10800217 -334.44341283 328.82015733 -338.24389648 325.2746582 C-344.01956222 317.92988097 -349.54326116 310.13694855 -354.08374023 301.9621582 C-356.2820558 298.08375328 -358.87256142 294.57728689 -361.55639648 291.0246582 C-366.67517778 284.15120789 -371.43951237 277.12528585 -375.73217773 269.70043945 C-377.15022674 267.42496546 -378.62757402 265.56236522 -380.43139648 263.5871582 C-384.55994069 258.96318869 -388.40859428 254.14283387 -392.24389648 249.2746582 C-392.84331055 248.52055664 -393.44272461 247.76645508 -394.06030273 246.98950195 C-397.67934624 242.39890314 -401.09212115 237.7028518 -404.41186523 232.8918457 C-407.01307768 229.17582792 -409.72904721 225.54649683 -412.44702148 221.9152832 C-414.24389648 219.2746582 -414.24389648 219.2746582 -415.68530273 216.3684082 C-417.78659338 212.19742527 -420.46470518 208.55756056 -423.19116211 204.77856445 C-426.24389648 200.47766775 -426.24389648 200.47766775 -426.24389648 198.2746582 C-427.23389648 197.9446582 -428.22389648 197.6146582 -429.24389648 197.2746582 C-430.19322845 195.91846967 -431.13214053 194.55346773 -432.00952148 193.1496582 C-433.97549725 190.16336591 -436.23547858 187.41249157 -438.46264648 184.6184082 C-441.78019408 180.253214 -444.63904385 175.65713071 -447.38818359 170.9230957 C-450.9250377 164.85054602 -454.64807505 159.32067564 -459.15014648 153.9074707 C-465.51424615 145.90485284 -470.82242874 137.18907938 -475.68139648 128.2121582 C-480.05418635 120.19084606 -485.39385214 113.26475386 -491.24389648 106.2746582 C-492.1243896 105.21239419 -493.00460376 104.14989889 -493.88452148 103.0871582 C-495.55973189 101.07279477 -497.23803441 99.06099814 -498.91967773 97.05200195 C-505.30057533 89.42709743 -511.20398614 81.59781209 -516.88745117 73.44384766 C-519.44286859 69.78613304 -522.02848953 66.21940707 -524.86889648 62.7746582 C-533.0646312 52.24019025 -539.54558461 42.84181025 -538.79077148 29.15356445 C-538.24389648 26.2746582 -538.24389648 26.2746582 -536.24389648 24.2746582 C-533.2822935 24.07225713 -530.41364339 23.99669345 -527.45046997 24.00723267 C-526.52870055 24.00270155 -525.60693113 23.99817044 -524.6572293 23.99350202 C-521.5495123 23.98077952 -518.44196878 23.98248343 -515.33422852 23.98413086 C-513.1138486 23.9781505 -510.89347077 23.9713461 -508.6730957 23.96377563 C-502.62767276 23.94605814 -496.58230638 23.94141783 -490.53685999 23.94014406 C-485.49688485 23.93824884 -480.45692301 23.93089565 -475.41695297 23.92379987 C-464.2093472 23.90842858 -453.00176824 23.90246392 -441.79415514 23.90381058 C-440.78483619 23.90393044 -440.78483619 23.90393044 -439.75512695 23.90405273 C-439.08142826 23.9041345 -438.40772957 23.90421626 -437.71361576 23.9043005 C-426.79442271 23.90511346 -415.87536759 23.88597501 -404.95621444 23.857776 C-393.75092189 23.82906585 -382.54569459 23.81560119 -371.34035766 23.81696355 C-365.04683064 23.81747448 -358.75345962 23.81171935 -352.45996475 23.79060745 C-346.54203358 23.77129859 -340.62440839 23.77105018 -334.70646667 23.78564072 C-332.53118826 23.78773908 -330.35589106 23.78296723 -328.18064499 23.7709198 C-325.2171626 23.7555666 -322.25474838 23.76470972 -319.29129028 23.78018188 C-318.42495157 23.76989476 -317.55861286 23.75960763 -316.66602147 23.74900877 C-310.86093334 23.816256 -310.86093334 23.816256 -307.67843437 26.18056297 C-306.24389648 28.2746582 -306.24389648 28.2746582 -306.24389648 30.2746582 C-305.25389648 30.6046582 -304.26389648 30.9346582 -303.24389648 31.2746582 C-301.77046633 33.17529592 -300.38766075 35.14687125 -299.05639648 37.1496582 C-298.25416443 38.34184137 -297.45075837 39.5332353 -296.64624023 40.72387695 C-296.2438916 41.32248535 -295.84154297 41.92109375 -295.42700195 42.5378418 C-293.7131757 45.05376421 -291.9199084 47.50814781 -290.11889648 49.9621582 C-287.05890641 54.14474819 -284.05061211 58.35719231 -281.09545898 62.61450195 C-279.74700547 64.55183707 -278.38589272 66.48037928 -277.01733398 68.40356445 C-273.51704186 73.34723051 -270.17049576 78.22785287 -267.43139648 83.6496582 C-264.51265797 89.24254821 -260.69866608 93.8712979 -256.70654297 98.71630859 C-253.04199635 103.18873284 -249.89289632 107.78831625 -246.88452148 112.73168945 C-245.15917811 115.40597169 -243.26508821 117.81759879 -241.24389648 120.2746582 C-237.75338378 124.5266148 -234.78879584 128.94996762 -231.89233398 133.62231445 C-230.38875091 136.04158675 -228.83540341 138.41265984 -227.24389648 140.7746582 C-225.02642238 144.07727921 -222.87234631 147.41394795 -220.74389648 150.7746582 C-218.0788291 154.98111114 -215.36118652 159.14554757 -212.58374023 163.27856445 C-211.41577467 165.01859478 -210.26575269 166.77064283 -209.11889648 168.5246582 C-207.27514717 171.22882387 -205.28927336 173.7197188 -203.24389648 176.2746582 C-201.30869957 178.78160155 -199.39857215 181.30697179 -197.49389648 183.8371582 C-196.70426514 184.88528687 -196.70426514 184.88528687 -195.89868164 185.95458984 C-191.96822719 191.21218737 -188.29860148 196.57920291 -184.76733398 202.11450195 C-183.42315187 204.38219431 -183.42315187 204.38219431 -181.24389648 205.2746582 C-181.00799805 204.6971582 -180.77209961 204.1196582 -180.52905273 203.5246582 C-178.95964504 200.77700218 -177.11888434 199.28873267 -174.68139648 197.2746582 C-168.93846821 192.21365131 -164.6099835 186.52256257 -160.24389648 180.2746582 C-159.76629883 179.59209961 -159.28870117 178.90954102 -158.79663086 178.20629883 C-158.28938477 177.48120117 -157.78213867 176.75610352 -157.25952148 176.0090332 C-156.21301793 174.51398147 -155.16614048 173.01919138 -154.11889648 171.5246582 C-153.60464111 170.79021484 -153.09038574 170.05577148 -152.56054688 169.29907227 C-148.3902149 163.38578467 -143.98745417 157.96953987 -138.82202148 152.89575195 C-136.35880216 150.39147897 -134.13801101 147.81819666 -131.93139648 145.0871582 C-130.76737305 143.65436523 -130.76737305 143.65436523 -129.57983398 142.19262695 C-128.07232852 140.30950558 -126.57659423 138.41687149 -125.09545898 136.51293945 C-121.43173017 131.81747091 -117.83846922 128.08717601 -113.24389648 124.2746582 C-111.3938829 122.03234263 -109.64642536 119.72828511 -107.89624023 117.4074707 C-105.87266348 114.79547802 -103.638195 112.5492418 -101.24389648 110.2746582 C-97.05117987 106.19334227 -93.07580245 102.00667054 -89.25952148 97.5715332 C-87.27342223 95.30830382 -85.23715709 93.09725669 -83.18725586 90.8918457 C-78.23852722 85.5614154 -73.60421036 80.0989422 -69.24389648 74.2746582 C-68.04011793 72.6878592 -66.83176965 71.1045166 -65.61889648 69.5246582 C-64.82612305 68.48051758 -64.82612305 68.48051758 -64.01733398 67.4152832 C-62.24389648 65.2746582 -62.24389648 65.2746582 -59.86889648 62.90356445 C-57.02041096 60.05084011 -54.44642123 57.05691962 -51.86889648 53.9621582 C-50.89277304 52.80033085 -49.91621197 51.63887103 -48.93920898 50.4777832 C-48.23973145 49.64537109 -48.23973145 49.64537109 -47.52612305 48.79614258 C-42.56267067 42.90653192 -37.39113463 37.21549348 -32.15014648 31.57324219 C-29.37520501 28.57088746 -26.77712632 25.48201157 -24.24389648 22.2746582 C-23.12789722 20.975207 -22.00324489 19.68312284 -20.86889648 18.3996582 C-20.26948242 17.71516602 -19.67006836 17.03067383 -19.05249023 16.32543945 C-17.88624735 15.00302582 -16.71229434 13.68735287 -15.52905273 12.38012695 C-12.60565276 9.09934312 -10.78902407 6.43461709 -9.24389648 2.2746582 C-5.70316204 -0.08583142 -4.19732931 0.01702367 0 0 Z M-6.05249023 17.5559082 C-7.16406723 19.4347005 -8.23245814 21.34011526 -9.24389648 23.2746582 C-10.41237913 24.70401766 -11.61437718 26.10768359 -12.86889648 27.4621582 C-14.58475241 29.39941489 -16.29752841 31.33694819 -17.98608398 33.2980957 C-20.78143389 36.54070159 -23.60501297 39.67093766 -26.68139648 42.6496582 C-30.21339143 46.11844071 -33.22342354 49.91355252 -36.27905273 53.80200195 C-39.80653223 58.24115607 -43.58295707 62.45123558 -47.40014648 66.6418457 C-53.26131918 73.08512117 -58.78596413 79.718851 -64.05249023 86.6574707 C-67.29801137 90.92218667 -70.63712277 94.7965164 -74.48608398 98.5246582 C-78.55854036 102.57901478 -82.22621034 107.02263446 -85.86889648 111.4621582 C-88.68239939 114.79393796 -91.7156508 117.8162122 -94.86889648 120.82543945 C-98.80014145 124.64260811 -102.15872973 128.62333057 -105.37280273 133.0637207 C-107.24389648 135.2746582 -107.24389648 135.2746582 -110.04858398 137.52075195 C-113.99282866 140.70608689 -116.81293381 144.65388312 -119.80639648 148.7121582 C-120.91063906 150.19093919 -122.01608835 151.66881995 -123.12280273 153.14575195 C-123.64946533 153.84869385 -124.17612793 154.55163574 -124.71875 155.27587891 C-128.26890223 159.92852759 -132.10503901 164.13580072 -136.24389648 168.2746582 C-140.16918831 172.56509346 -143.58130426 177.08946156 -146.93139648 181.8371582 C-154.49836102 192.51883657 -161.90796095 202.56609385 -171.87280273 211.14575195 C-173.8888931 212.95591547 -175.4543394 214.67207787 -177.05639648 216.8371582 C-179.24389648 219.2746582 -179.24389648 219.2746582 -182.30639648 220.3996582 C-185.24389648 220.2746582 -185.24389648 220.2746582 -187.08374023 218.7512207 C-189.90753821 215.51381036 -192.31022943 212.06037069 -194.74389648 208.5246582 C-201.21027178 199.24266932 -207.96003296 190.19027915 -214.82739258 181.20214844 C-217.47345464 177.71785491 -219.96591436 174.28002402 -222.11889648 170.4621582 C-224.28007699 166.76614454 -226.61967271 163.33009756 -229.18139648 159.8996582 C-232.71420388 155.14214425 -235.6665308 150.20288557 -238.59155273 145.0559082 C-240.46053334 141.91001177 -242.54888818 139.05939328 -244.79467773 136.17700195 C-246.28695515 134.21813645 -247.64467949 132.20938723 -248.99389648 130.1496582 C-254.41843719 121.93535371 -260.07070131 113.88347819 -266.30981445 106.26733398 C-271.72123254 99.63839498 -276.00686759 92.73031374 -280.17358398 85.26147461 C-283.66533688 79.07439953 -287.58404613 73.55015724 -292.05249023 68.03637695 C-294.29363845 65.21197091 -296.2636837 62.28589087 -298.24389648 59.2746582 C-299.16944053 58.03646389 -300.10579908 56.80622404 -301.05639648 55.5871582 C-304.17174105 51.49383206 -306.86018655 47.1821628 -309.53295898 42.7902832 C-311.35248392 40.11499997 -312.67334377 38.26090668 -315.24389648 36.2746582 C-318.20036146 35.89045673 -320.78077792 35.75110652 -323.73529053 35.79364014 C-324.60033777 35.79022244 -325.46538502 35.78680474 -326.35664582 35.78328347 C-329.26047863 35.77668541 -332.16339077 35.79871241 -335.06713867 35.82055664 C-337.14651976 35.8216847 -339.22590244 35.82105207 -341.30528259 35.81878662 C-346.95583098 35.81763694 -352.6060411 35.84118762 -358.25651073 35.86908245 C-364.15953554 35.89405363 -370.06256773 35.89643473 -375.96563721 35.90118408 C-387.14639983 35.91362644 -398.32700637 35.9464652 -409.5077002 35.98658204 C-422.23546109 36.03126047 -434.96322935 36.05327692 -447.6910491 36.07336378 C-473.87541816 36.11519665 -500.05964858 36.18557327 -526.24389648 36.2746582 C-524.88787716 39.74288298 -523.41383129 42.89242797 -521.49389648 46.0871582 C-521.02467773 46.87735352 -520.55545898 47.66754883 -520.07202148 48.48168945 C-518.11988832 51.46411512 -516.0163636 54.28332159 -513.86303711 57.12207031 C-511.69475534 60.00472115 -509.59973757 62.93726053 -507.50048828 65.87036133 C-502.27273953 73.17340822 -496.94813749 80.33409028 -491.24389648 87.2746582 C-489.92949811 88.91897585 -488.61704638 90.56485117 -487.30639648 92.2121582 C-485.25399906 94.78968075 -483.18629361 97.34265017 -481.05639648 99.85668945 C-473.10212898 109.28857262 -466.83228185 119.57279796 -460.55639648 130.1496582 C-457.4017027 135.45959175 -454.04651588 140.41384382 -450.24389648 145.2746582 C-444.49532745 152.80450618 -439.11348469 160.18566561 -434.74389648 168.61450195 C-430.98124638 175.28732674 -425.94554657 181.18012002 -421.13842773 187.12231445 C-420.60685059 187.78070313 -420.07527344 188.4390918 -419.52758789 189.11743164 C-418.49248482 190.39476593 -417.45209521 191.66784128 -416.40551758 192.93579102 C-413.20318127 196.86840969 -410.6634305 200.815431 -408.24389648 205.2746582 C-404.6072301 211.62883353 -400.66567236 217.61650377 -396.30249023 223.49731445 C-394.96344052 225.30388816 -393.64202133 227.12371001 -392.34155273 228.95825195 C-388.21791907 234.76844336 -383.82033715 240.233588 -379.18359375 245.63378906 C-376.13988319 249.18540715 -373.25786764 252.80032722 -370.50952148 256.58325195 C-369.29237086 258.20987609 -367.95670848 259.74573021 -366.61889648 261.2746582 C-364.43583905 264.03220443 -363.08320567 266.65918774 -361.59155273 269.81762695 C-357.79165431 276.7455577 -352.64133014 283.02625834 -347.95483398 289.3762207 C-346.92229492 290.78000977 -346.92229492 290.78000977 -345.86889648 292.2121582 C-345.26303711 293.02555664 -344.65717773 293.83895508 -344.03295898 294.67700195 C-342.29876955 297.19498442 -340.77517822 299.7825443 -339.27954102 302.44775391 C-337.55835472 305.48397197 -335.72599302 308.44518644 -333.86889648 311.3996582 C-333.50795898 311.99391602 -333.14702148 312.58817383 -332.77514648 313.20043945 C-330.47395107 316.84533989 -328.19205804 319.10316952 -324.76098633 321.77807617 C-320.88010805 325.60649327 -318.81000378 331.15473304 -316.38842773 335.9699707 C-313.57497964 341.37114613 -311.09511039 344.61769306 -306.24389648 348.2746582 C-303.51084822 351.91396529 -302.29971917 355.23263479 -302.05639648 359.7746582 C-303.45555734 363.89850074 -305.40816289 366.06854473 -308.36499023 369.19262695 C-310.17242487 371.19545993 -311.56333075 373.18076037 -312.99389648 375.4621582 C-319.78907609 385.9737363 -328.60747308 395.49590804 -338.11889648 403.5871582 C-345.08557165 409.6105698 -350.86249371 416.67467549 -356.42358398 423.98168945 C-359.18386041 427.45869001 -362.18079715 430.70874775 -365.17358398 433.9855957 C-366.83242443 435.81970986 -368.43182827 437.67141417 -369.99389648 439.5871582 C-372.24389648 442.2746582 -372.24389648 442.2746582 -374.55639648 444.5246582 C-377.60646726 447.64566086 -380.2396297 450.97829798 -382.94311523 454.3996582 C-391.03487511 464.51092352 -399.57915044 474.25293077 -408.44702148 483.6887207 C-409.58799662 484.90453805 -410.72861743 486.120688 -411.86889648 487.3371582 C-412.7139978 488.23821289 -412.7139978 488.23821289 -413.57617188 489.1574707 C-416.58525694 492.39413363 -419.41110426 495.66492423 -422.05639648 499.2121582 C-424.77647738 502.85236523 -427.80683913 505.63179531 -431.27905273 508.54418945 C-434.61984451 511.48647724 -437.40855766 514.85311008 -440.24389648 518.2746582 C-440.97866211 519.15637695 -441.71342773 520.0380957 -442.47045898 520.9465332 C-446.36053668 525.65625937 -450.15779852 530.41103128 -453.79077148 535.3215332 C-456.54426512 539.02246551 -459.39757029 542.64499434 -462.24389648 546.2746582 C-462.91936523 547.14993164 -463.59483398 548.02520508 -464.29077148 548.92700195 C-464.97655273 549.80485352 -465.66233398 550.68270508 -466.36889648 551.5871582 C-467.30088867 552.78791992 -467.30088867 552.78791992 -468.25170898 554.01293945 C-470.38648276 556.43653557 -472.69681669 558.29825856 -475.24389648 560.2746582 C-477.66502966 562.92612903 -477.66502966 562.92612903 -478.24389648 566.2746582 C-479.11401367 566.65750977 -479.11401367 566.65750977 -480.00170898 567.0480957 C-486.92387561 570.83478616 -494.01558654 579.13240448 -497.15795898 586.3840332 C-498.53404519 588.77980919 -499.74776619 589.15927025 -502.24389648 590.2746582 C-503.83194175 591.40630727 -505.39393672 592.57518547 -506.93139648 593.7746582 C-507.71901367 594.3830957 -508.50663086 594.9915332 -509.31811523 595.6184082 C-511.33712644 597.13901884 -511.33712644 597.13901884 -512.24389648 599.2746582 C-505.07264233 599.45220977 -497.90195499 599.57475798 -490.72900391 599.65917969 C-488.28933533 599.69437267 -485.84981427 599.7421349 -483.41064453 599.80273438 C-479.90286894 599.8876978 -476.39704479 599.92735958 -472.88842773 599.95825195 C-471.79867142 599.99438095 -470.7089151 600.03050995 -469.58613586 600.06773376 C-464.10595396 600.22641422 -464.10595396 600.22641422 -459.47901917 597.73768616 C-458.21691836 595.96894091 -457.23245578 594.20488943 -456.24389648 592.2746582 C-454.35717773 590.34106445 -454.35717773 590.34106445 -452.55639648 588.8371582 C-451.8719043 588.25579102 -451.18741211 587.67442383 -450.48217773 587.07543945 C-448.9403596 585.83498892 -447.37328305 584.62550446 -445.78686523 583.44262695 C-440.21701997 579.24171447 -436.38410456 575.02208599 -432.44311523 569.2824707 C-426.85572386 561.64074537 -420.16410821 554.67467861 -412.81811523 548.71606445 C-409.48291733 545.66224801 -406.92540496 541.89620111 -404.24389648 538.2746582 C-400.51353623 533.3037981 -396.66010873 528.58373859 -392.43139648 524.0246582 C-386.28036129 517.34933386 -380.80194323 510.20668282 -375.49389648 502.84887695 C-372.8561442 499.20136012 -370.39460095 496.5159827 -366.80249023 493.7355957 C-364.0693423 491.17369764 -362.1800677 487.98763701 -360.09936523 484.8918457 C-357.69140419 481.49535329 -354.95256583 478.49497845 -352.15014648 475.4230957 C-349.2913974 472.20114489 -346.78786858 468.74612013 -344.24389648 465.2746582 C-340.56063272 460.30882938 -337.18518552 456.04564194 -332.24389648 452.2746582 C-331.05604215 450.79786633 -329.8686238 449.32069885 -328.68920898 447.8371582 C-327.04418317 446.05875191 -325.29007944 444.78748202 -323.30639648 443.3996582 C-319.60437568 440.75337317 -317.2705772 437.8614401 -314.68139648 434.15356445 C-313.28563652 432.32921515 -311.92486558 431.05379918 -310.11889648 429.6496582 C-307.15369844 427.44607576 -307.15369844 427.44607576 -305.45483398 424.4855957 C-302.98334922 420.89626625 -300.25683264 418.36498087 -296.99389648 415.5246582 C-289.37249442 408.68515752 -283.00447452 401.39909944 -278.24389648 392.2746582 C-275.42987725 393.5829303 -273.11304127 395.02165397 -270.74389648 397.0246582 C-270.17670898 397.49387695 -269.60952148 397.9630957 -269.02514648 398.4465332 C-266.70061419 400.8322374 -265.06327502 403.48405748 -263.24389648 406.2746582 C-261.38414626 408.8642991 -259.47248456 411.41401548 -257.55639648 413.9621582 C-257.02892822 414.66477783 -256.50145996 415.36739746 -255.95800781 416.09130859 C-251.53661298 421.94923837 -246.92610878 427.62308165 -242.24389648 433.2746582 C-236.29613268 440.46153947 -231.23513782 448.19612454 -226.09936523 455.9699707 C-223.44998961 459.97727004 -220.73103031 463.92834605 -217.95483398 467.84887695 C-215.44508486 471.40721989 -212.98680391 475.0010833 -210.51977539 478.58911133 C-208.4011155 481.6545616 -206.21927168 484.64642973 -203.93139648 487.5871582 C-202.03358548 490.06053484 -200.60938598 492.44421463 -199.30639648 495.2746582 C-197.4861309 499.13242271 -195.06681173 501.92618512 -192.18530273 505.04418945 C-189.14672965 508.53518589 -186.57338599 512.34635903 -183.94311523 516.1496582 C-183.38237305 516.8509082 -182.82163086 517.5521582 -182.24389648 518.2746582 C-181.58389648 518.2746582 -180.92389648 518.2746582 -180.24389648 518.2746582 C-180.01186523 519.15766602 -179.77983398 520.04067383 -179.54077148 520.95043945 C-178.07134666 524.71694707 -176.33728189 526.61446464 -173.49389648 529.4621582 C-169.24953486 533.94400922 -166.426888 538.24042364 -163.66577148 543.72387695 C-161.84821665 546.98449044 -159.55676143 549.46657288 -157.02905273 552.1887207 C-154.29928158 555.37843141 -152.19901969 558.91414659 -149.99389648 562.4777832 C-145.67683853 569.3773669 -140.84605253 575.8631334 -135.80249023 582.2434082 C-134.49591001 583.94621952 -133.2934724 585.72824798 -132.11889648 587.5246582 C-130.10224022 590.48242073 -127.80326795 592.78263862 -125.24389648 595.2746582 C-124.58389648 596.2646582 -123.92389648 597.2546582 -123.24389648 598.2746582 C-120.66746501 598.56919798 -118.33094907 598.66598231 -115.75228882 598.63542175 C-114.57978779 598.63926666 -114.57978779 598.63926666 -113.38359988 598.64318925 C-110.75007452 598.64815214 -108.11711559 598.63159339 -105.48364258 598.61523438 C-103.60159824 598.61438864 -101.71955291 598.61486219 -99.83750916 598.61656189 C-94.71580408 598.61742537 -89.59430825 598.59974266 -84.47265196 598.57884002 C-79.12481455 598.56013184 -73.77697275 598.55832741 -68.42910767 598.55476379 C-58.29661958 598.54542606 -48.16422818 598.52078894 -38.03178275 598.49071532 C-26.49871668 598.45722502 -14.96564608 598.44069883 -3.43254352 598.42562902 C20.29705917 598.39424086 44.02657594 598.34144685 67.75610352 598.2746582 C66.9860651 596.85484069 66.21178674 595.43732231 65.43579102 594.02075195 C65.00508301 593.23112061 64.574375 592.44148926 64.13061523 591.62792969 C62.41882464 588.69721041 60.44108881 586.0621004 58.36938477 583.38012695 C53.92904719 577.58511011 50.02035129 571.80315375 46.75610352 565.2746582 C45.29568831 563.21338645 43.77095705 561.21284658 42.22875977 559.2121582 C40.27973656 556.64792609 38.5424455 553.95417118 36.75610352 551.2746582 C35.86276908 550.12687557 34.96665631 548.98125286 34.06860352 547.8371582 C31.1714213 544.03506265 28.78687634 540.01953139 26.38110352 535.8996582 C23.18922094 530.45873636 19.76801189 525.51394825 15.72094727 520.6574707 C10.71466353 514.58623198 6.26671922 508.09297656 1.94360352 501.5246582 C-0.55514226 497.73312504 -3.13500863 494.04054751 -5.86108398 490.40893555 C-13.90139167 479.69546344 -21.07625079 468.42294691 -28.35180664 457.18432617 C-31.777366 451.91647889 -35.27344682 446.69750088 -38.80639648 441.5012207 C-46.12365536 430.71293554 -46.12365536 430.71293554 -49.05639648 425.0246582 C-52.3016778 418.83834069 -56.30930308 413.20601553 -60.28076172 407.47290039 C-65.77285932 399.54344424 -71.00704439 391.47674193 -76.10327148 383.28637695 C-79.33506405 378.11693884 -82.73925684 373.29376534 -86.54858398 368.53637695 C-88.90672032 365.39038401 -90.8495021 362.05093879 -92.78686523 358.6340332 C-94.41481843 355.99788378 -96.30613336 353.69032822 -98.24389648 351.2746582 C-99.3501048 349.56003532 -100.43310961 347.83024732 -101.49389648 346.0871582 C-103.88076437 342.27734985 -106.38749891 338.74551339 -109.24389648 335.2746582 C-112.75414083 331.00544211 -115.69323535 326.54554417 -118.60327148 321.8527832 C-120.02731756 319.61499651 -121.50892624 317.50500391 -123.11889648 315.3996582 C-130.21328858 306.12094011 -136.54989644 296.36701331 -142.70214844 286.44775391 C-145.12157717 282.56165106 -147.57937848 278.74696157 -150.26733398 275.0402832 C-157.97060225 264.36765006 -157.97060225 264.36765006 -157.61889648 259.2121582 C-155.9600373 251.55949648 -149.29104474 246.2098439 -143.90014648 241.0559082 C-141.26043303 238.29197294 -139.35070915 235.45159794 -137.24389648 232.2746582 C-135.6220727 230.56432397 -133.95423071 228.89648199 -132.24389648 227.2746582 C-125.5488721 221.10287918 -125.5488721 221.10287918 -119.99389648 213.9621582 C-118.25362462 211.28959784 -116.41625212 209.74870738 -113.93139648 207.7980957 C-111.05277091 205.1993365 -108.82571337 202.07746043 -106.45483398 199.02075195 C-103.4061906 195.23418605 -100.08601871 191.72842926 -96.73608398 188.20825195 C-94.14777004 185.16150623 -92.02252554 182.00074014 -89.84155273 178.65869141 C-87.17726695 174.68302657 -84.24768996 170.9225385 -81.30639648 167.1496582 C-80.72438477 166.39040039 -80.14237305 165.63114258 -79.54272461 164.84887695 C-76.20680533 160.55614362 -72.72360631 156.63612487 -68.82666016 152.84741211 C-66.6692439 150.70363985 -64.76868387 148.39757272 -62.86889648 146.0246582 C-62.10963867 145.08106445 -61.35038086 144.1374707 -60.56811523 143.1652832 C-59.80112305 142.21137695 -59.03413086 141.2574707 -58.24389648 140.2746582 C-56.72355137 138.44091998 -55.20272329 136.60758207 -53.68139648 134.7746582 C-50.74190481 131.1881727 -47.9466666 127.54248031 -45.24389648 123.7746582 C-37.18555808 112.57547136 -28.00524447 102.5199597 -18.56811523 92.49438477 C-11.29986864 84.77082847 -4.38431241 76.97525212 2.0769043 68.55297852 C3.04240927 67.29699965 4.01023275 66.04280009 4.98022461 64.7902832 C5.93024738 63.56289309 6.87491959 62.33133585 7.81323242 61.0949707 C10.50462028 57.61583546 13.24572317 54.97217174 16.75610352 52.2746582 C17.67664463 50.89384654 18.59292867 49.50953793 19.46704102 48.09887695 C21.16520316 45.69572023 23.13091776 43.61954919 25.13110352 41.4621582 C27.90490017 38.43660691 30.38748081 35.50021576 32.56860352 32.0246582 C35.81070642 26.88901942 39.793786 22.43274365 43.79443359 17.88305664 C46.49940234 15.39639047 46.49940234 15.39639047 47.75610352 12.2746582 C41.08597245 11.99440351 34.41737037 11.80258709 27.74267578 11.67041016 C25.47549728 11.6152866 23.20870643 11.54036063 20.94287109 11.44482422 C5.88779934 10.12084778 5.88779934 10.12084778 -6.05249023 17.5559082 Z " fill="#010101" transform="translate(754.243896484375,231.725341796875)"/>
<path d="M0 0 C27.39 0 54.78 0 83 0 C83.495 1.485 83.495 1.485 84 3 C84.5775 3.28875 85.155 3.5775 85.75 3.875 C91.08206524 6.54103262 94.38456218 11.70354817 97.6875 16.5 C101.88395731 22.49266217 106.26297132 28.30320769 110.7734375 34.0625 C114.17876996 38.55514914 117.17123192 43.14693279 119.8125 48.125 C127.54291026 62.39356819 136.37553634 75.16496764 146.390625 87.8984375 C150.04175585 92.66617632 153.39524899 97.65432457 156.78515625 102.609375 C159.84695091 107.05065956 162.97992147 111.26291751 166.546875 115.30859375 C168.58695692 117.68320523 170.43801246 120.17863171 172.29296875 122.69921875 C173.5886487 124.44556999 174.90808301 126.17432724 176.23828125 127.89453125 C179.98994814 132.77599635 183.42788751 137.39755201 185.98046875 143.00390625 C188.49446311 147.92594118 192.00329523 152.38581717 195.3515625 156.76953125 C197.89785214 160.14541848 199.83608135 163.5687315 201.6875 167.375 C208.30119919 180.92378018 216.45975658 193.59974065 225 206 C225.40718262 206.59941406 225.81436523 207.19882812 226.23388672 207.81640625 C231.05675507 214.90244527 236.10870663 221.38372086 242.02172852 227.59130859 C245.99958745 231.83237168 249.1566616 236.39975885 252.2734375 241.29296875 C253.7723716 243.64310751 255.34111264 245.8868922 257 248.125 C259 251 259 251 259 253 C259.59554688 253.24492188 260.19109375 253.48984375 260.8046875 253.7421875 C270.85844456 259.50252517 278.5758225 278.37516339 284.25 288.4375 C287.91171638 294.90750484 291.82835847 301.02119967 296.20703125 307.02734375 C301.51093015 314.3058267 306.37380151 321.73373625 311.02514648 329.44677734 C315.79535934 337.35218611 320.66588837 345.15057995 326.4375 352.375 C332.16880165 359.5751936 336.88236091 367.54154175 341.6875 375.375 C344.76217054 380.3262798 348.30352977 384.92357377 351.98828125 389.43359375 C353.87778848 391.84409132 355.51234789 394.2736868 357.125 396.875 C363.70280125 407.33201737 370.65205775 417.53269184 377.70703125 427.671875 C381.51529287 433.17324902 385.19602485 438.7607056 388.89257812 444.33740234 C389.87333748 445.80983867 390.86552483 447.27464896 391.859375 448.73828125 C392.38015625 449.50527344 392.9009375 450.27226563 393.4375 451.0625 C393.86933594 451.69285156 394.30117188 452.32320312 394.74609375 452.97265625 C396.34770128 455.56217123 397.6503768 458.27224534 399 461 C390.72464951 461.13905414 382.44978742 461.24564595 374.17355728 461.31087303 C370.33045424 461.34218015 366.48815068 461.38463799 362.64550781 461.45263672 C358.93664456 461.51785696 355.22854986 461.55371071 351.51915741 461.56926346 C350.10446826 461.58034555 348.68982096 461.60198775 347.27545929 461.63438034 C336.14994311 461.87903702 336.14994311 461.87903702 333.279953 459.68516541 C332.20092773 458.0715332 332.20092773 458.0715332 331 455 C329.44011814 453.27327092 329.44011814 453.27327092 327.8125 451.8125 C323.09811313 447.2391418 319.10081462 442.11894791 315 437 C313.94039062 435.72382812 313.94039062 435.72382812 312.859375 434.421875 C308.92736049 429.6494299 305.64165173 424.84080973 302.55078125 419.4921875 C300.35182163 415.95834308 297.75887729 412.81927732 295.1171875 409.609375 C292.93389977 406.9185333 290.86973016 404.1631874 288.8125 401.375 C285.09754059 396.3981133 281.27420471 391.52137277 277.375 386.6875 C276.8488208 386.02991699 276.3226416 385.37233398 275.78051758 384.69482422 C273.10715523 381.40229302 270.36519548 378.31826105 267.32421875 375.359375 C264.54840607 372.63841877 262.42974304 369.92284979 260.4375 366.5625 C257.53308993 361.8169014 254.40820029 357.39238647 251 353 C239.3125 337.9375 239.3125 337.9375 237 331 C236.34 331 235.68 331 235 331 C233.42562939 328.7385753 231.98232274 326.48178525 230.5625 324.125 C229.90314453 323.05318481 229.90314453 323.05318481 229.23046875 321.9597168 C226.87309431 318.11941066 224.55404556 314.25687521 222.24609375 310.38671875 C217.314962 302.15413201 212.20577165 294.41738552 206.2265625 286.91015625 C203.59195829 283.46668233 201.38410095 279.89185631 199.25390625 276.12109375 C197.97149217 273.95177647 196.51596468 272.01047722 195 270 C193.0625 266.5625 193.0625 266.5625 192.16015625 264.87890625 C190.97695871 262.87582253 190.97695871 262.87582253 189.18359375 260.7421875 C186.58002426 257.47258861 184.2959253 254.05161072 182 250.5625 C181.57460938 249.91990234 181.14921875 249.27730469 180.7109375 248.61523438 C178.76273822 245.67201921 176.82154868 242.72535745 174.8984375 239.765625 C173.2595804 237.37815417 171.58961888 235.30430767 169.625 233.1875 C165.26458957 228.30309175 161.63452785 222.99663439 158.5 217.25 C157.02813095 214.78533588 157.02813095 214.78533588 154.203125 212.82421875 C150.63098783 209.90146348 148.54951746 206.51839684 146.25 202.5625 C142.927782 197.01737897 139.42930962 191.7415818 135.5625 186.5625 C131.83749783 181.54641787 129.72672889 176.99276496 128 171 C127.01 170.67 126.02 170.34 125 170 C123.4921875 168.35546875 123.4921875 168.35546875 121.875 166.1875 C121.26398438 165.37539063 120.65296875 164.56328125 120.0234375 163.7265625 C119.35570312 162.82679688 118.68796875 161.92703125 118 161 C117.27039063 160.03835938 116.54078125 159.07671875 115.7890625 158.0859375 C109.01801944 149.14261441 102.58026506 140.08314904 96.67578125 130.54296875 C95.01759452 127.93864078 95.01759452 127.93864078 92.94140625 125.4453125 C91.19237247 123.24230416 89.90861947 121.17735762 88.625 118.6875 C86.5571827 114.85539822 84.1935987 111.51512929 81.5234375 108.0859375 C79.90052318 105.86379328 78.55156097 103.57649077 77.1875 101.1875 C72.35410893 92.95049062 65.86871909 85.9035592 59.55859375 78.77734375 C58.11042857 77.12592732 56.70556475 75.44792999 55.3125 73.75 C53.13579505 71.07476182 53.13579505 71.07476182 51.0703125 69.09765625 C49.05534278 67.05607372 47.31013644 64.95983098 45.5625 62.6875 C44.95792969 61.90246094 44.35335937 61.11742187 43.73046875 60.30859375 C42.23574558 58.31450483 40.79514571 56.2973394 39.375 54.25 C37.8803594 52.11965187 36.51605283 50.52878829 34.625 48.6875 C29.47133292 43.41112656 25.66855969 37.08097304 21.75610352 30.85766602 C17.88533334 24.71439532 13.76980618 19.04278212 9.08203125 13.4765625 C7.16062073 11.1910573 5.30924035 8.87489783 3.5 6.5 C3.0359375 5.8915625 2.571875 5.283125 2.09375 4.65625 C1 3 1 3 0 0 Z " fill="#566548" transform="translate(329,321)"/>
<path d="M0 0 C0.95187698 -0.01679306 1.90375397 -0.03358612 2.88447571 -0.05088806 C6.02845983 -0.0983461 9.17110976 -0.10814844 12.31542969 -0.11352539 C14.50633285 -0.1295971 16.69723064 -0.14641814 18.88812256 -0.16395569 C23.48136831 -0.19389081 28.07414405 -0.20315781 32.66748047 -0.20019531 C38.54063348 -0.19968774 44.41075628 -0.26788596 50.28319168 -0.35405636 C54.80962832 -0.40978694 59.33533889 -0.41978756 63.86208344 -0.41714668 C66.02621641 -0.42303021 68.19037017 -0.44505412 70.35416412 -0.48380852 C87.27899686 -0.75851301 87.27899686 -0.75851301 92.77165222 2.93466187 C95.02834001 5.4260235 96.7579404 7.85524279 98.48730469 10.72631836 C99.40125 11.62350586 100.31519531 12.52069336 101.25683594 13.44506836 C103.90531314 16.15384364 106.03395249 19.11709939 108.17480469 22.22631836 C111.5126495 26.99772069 114.94784349 31.65153903 118.54980469 36.22631836 C125.02141398 44.51501017 131.03885466 53.27665948 135.53808594 62.80444336 C139.41882014 70.66173237 144.29450205 78.65683345 150.61230469 84.78881836 C152.698395 86.94444502 153.9478632 89.27714211 155.37402344 91.89819336 C156.49710729 93.74241526 157.71779032 95.19934814 159.17480469 96.78881836 C162.18629061 100.15012335 164.54179734 103.8470951 166.92480469 107.66381836 C169.92986904 112.45973524 173.04616464 116.78842245 176.88964844 120.96459961 C179.6713758 124.03198113 182.04498727 127.38725373 184.48730469 130.72631836 C185.39156552 131.93646749 186.2965827 133.14605164 187.20214844 134.35522461 C188.19329701 135.68706006 189.18417992 137.01909326 190.17480469 138.35131836 C190.65079102 138.98497314 191.12677734 139.61862793 191.6171875 140.27148438 C194.34059899 143.95482624 196.48386068 147.59035691 198.48730469 151.72631836 C199.66593988 153.55826944 200.8759381 155.37032362 202.11230469 157.16381836 C207.68047985 165.42463297 212.94894379 173.89064302 217.61230469 182.69897461 C222.91002902 192.66460748 228.86797107 202.06537296 235.17480469 211.41381836 C235.58245056 212.02309174 235.99009644 212.63236511 236.41009521 213.26010132 C240.93804051 220.00942956 245.52104677 226.15626121 251.48730469 231.72631836 C257.58029444 238.77212132 264.69200032 247.47735609 268.49902344 255.98803711 C269.34442231 257.88264306 269.34442231 257.88264306 271.31152344 258.50756836 C274.8205102 260.47310493 276.29810167 263.82311325 278.29980469 267.22631836 C279.18685566 268.69514075 280.07617741 270.16259418 280.96777344 271.62866211 C281.39880371 272.33877441 281.82983398 273.04888672 282.27392578 273.78051758 C283.78145599 276.19802577 285.4238283 278.49481941 287.11230469 280.78881836 C289.97948685 284.78263445 292.28123455 288.93983471 294.54980469 293.28881836 C298.17144907 300.23058896 302.20956248 306.57518514 306.79980469 312.92553711 C311.59566369 319.56495809 316.1276062 326.24544851 320.37402344 333.25756836 C326.79100992 343.83899801 333.58796125 354.01249544 341.12890625 363.82470703 C345.3926525 369.44059416 349.03302068 375.31731525 352.54980469 381.42163086 C353.86890093 383.67154098 355.26949765 385.87516427 356.73730469 388.03100586 C358.48730469 390.72631836 358.48730469 390.72631836 358.48730469 392.72631836 C359.04804687 392.91323242 359.60878906 393.10014648 360.18652344 393.29272461 C363.52254762 395.37136786 365.23575644 398.41164485 367.29980469 401.66381836 C367.96326904 402.68306396 367.96326904 402.68306396 368.64013672 403.72290039 C371.08594948 407.49163914 373.47535134 411.29509545 375.86230469 415.10131836 C379.39090276 420.70359491 383.23681623 426.06574151 387.07568359 431.45703125 C390.4814961 436.25613069 393.72648217 441.12223574 396.84667969 446.11303711 C401.54419355 453.59550562 406.43464885 460.878807 411.94433594 467.78881836 C412.45351563 468.42819336 412.96269531 469.06756836 413.48730469 469.72631836 C414.02742188 470.37729492 414.56753906 471.02827148 415.12402344 471.69897461 C416.63001486 473.93854352 417.11838004 475.50294937 417.48730469 478.16381836 C417.61105469 478.9050293 417.73480469 479.64624023 417.86230469 480.40991211 C417.2662912 484.09153711 415.33255661 485.42223928 412.48730469 487.72631836 C409.71153039 488.22230311 407.54755664 488.41277468 404.77880859 488.37329102 C403.63878136 488.38643341 403.63878136 488.38643341 402.47572327 488.39984131 C399.97118488 488.42179058 397.46842256 488.4072971 394.96386719 488.39038086 C393.21657982 488.39375102 391.46929474 488.3986053 389.72201538 488.40487671 C386.06184547 488.41224252 382.4022863 488.40155494 378.7421875 488.37817383 C374.06233731 488.34972798 369.38392352 488.36606451 364.70412636 488.39603615 C361.09568576 488.4141534 357.4875824 488.40833022 353.87913132 488.39539719 C352.15444136 488.39207318 350.42972029 488.39611476 348.70506668 488.40779495 C346.28742373 488.42057275 343.87206383 488.40103208 341.45458984 488.37329102 C340.74890366 488.38341217 340.04321747 488.39353333 339.31614685 488.40396118 C333.86796372 488.28881673 330.32422168 486.43731445 326.48730469 482.72631836 C325.45297565 480.74385438 324.45492077 478.7421852 323.48730469 476.72631836 C321.90563595 474.99172585 320.21922753 473.40271319 318.51855469 471.78491211 C315.31120064 468.53438214 312.53472985 464.94852552 309.69824219 461.37475586 C307.51291793 458.66562042 307.51291793 458.66562042 304.90136719 456.20288086 C302.56853937 453.8096562 301.0929845 451.6374659 299.48730469 448.72631836 C294.36723856 440.25172615 288.60145622 432.49000674 282.48730469 424.72631836 C281.25720725 423.14370803 280.02792881 421.56046049 278.79980469 419.97631836 C278.24679687 419.26862305 277.69378906 418.56092773 277.12402344 417.83178711 C276.0137913 416.40358873 274.91248377 414.9684163 273.81933594 413.52709961 C269.33450712 407.64653459 264.46372234 402.19283775 259.48730469 396.72631836 C256.29996844 393.15953732 253.69523967 389.52600603 251.17480469 385.47631836 C248.88672924 381.80555645 246.50773277 378.42129966 243.73730469 375.10131836 C239.53889311 370.00441403 236.02939995 364.54739385 232.51953125 358.96606445 C230.31563387 355.47778195 228.05817415 352.1075522 225.54199219 348.83569336 C222.08537869 344.30131866 219.17969479 339.47895077 216.23730469 334.60131836 C212.06082218 327.75997287 207.7657559 321.10086021 203.02661133 314.63769531 C199.66906526 310.04471537 196.58743769 305.30663818 193.54248047 300.50219727 C191.63672906 297.49958577 189.70008271 294.54308238 187.61230469 291.66381836 C185.48730469 288.72631836 185.48730469 288.72631836 184.05761719 286.33569336 C182.54417567 283.82082039 180.93203499 281.43440676 179.23730469 279.03881836 C178.62757813 278.17385742 178.01785156 277.30889648 177.38964844 276.41772461 C176.761875 275.52956055 176.13410156 274.64139648 175.48730469 273.72631836 C174.25697115 271.97713853 173.02777109 270.22716078 171.79980469 268.47631836 C171.21585938 267.64487305 170.63191406 266.81342773 170.03027344 265.95678711 C168.85528397 264.25825803 167.72352718 262.52973359 166.61230469 260.78881836 C164.57476561 257.85236498 162.39576782 255.16158566 160.11230469 252.41381836 C156.80330059 248.42895558 153.83877716 244.42745567 151.16699219 239.99194336 C149.61254718 237.8952501 148.0291191 236.29512778 146.14355469 234.50366211 C142.31735164 230.75163748 139.76043146 226.66696879 137.11230469 222.03881836 C133.18556108 215.37885364 129.05347823 209.18826017 124.26464844 203.10913086 C121.43531185 199.31595433 120.48730469 197.54866751 120.48730469 192.72631836 C119.49730469 192.39631836 118.50730469 192.06631836 117.48730469 191.72631836 C116.02246094 190.05444336 116.02246094 190.05444336 114.54980469 187.97631836 C112.28470406 184.81121775 109.92679686 181.75957372 107.48730469 178.72631836 C102.20643507 171.95105351 97.3129112 165.0611294 92.72729492 157.80541992 C90.00236182 153.49755546 87.13223962 149.32438812 84.17871094 145.17163086 C81.71778211 141.61379842 79.43937962 137.9472127 77.16308594 134.26928711 C75.51007512 131.66659004 75.51007512 131.66659004 73.42871094 129.20678711 C71.54974587 126.80609733 70.39026818 124.60451487 69.11230469 121.85131836 C65.85296867 115.66026 61.37334483 110.98210564 56.51318359 106.02954102 C53.82117836 103.27858139 51.50482875 100.75279845 49.37011719 97.52709961 C47.37622717 94.5610848 45.26823114 92.92973612 42.48730469 90.72631836 C40.85449219 88.35131836 40.85449219 88.35131836 39.36230469 85.72631836 C36.67413002 81.32004945 33.67132745 77.56809705 30.11230469 73.85131836 C23.05663526 66.43719292 17.6074133 58.22526921 12.29980469 49.47631836 C8.5489926 43.46971127 4.02430063 38.13647271 -0.53881836 32.73901367 C-3.809078 28.86187843 -6.7473085 24.97541728 -9.51269531 20.72631836 C-10.23457031 19.98381836 -10.95644531 19.24131836 -11.70019531 18.47631836 C-14.26755657 14.58101163 -15.27460099 10.37031485 -14.51269531 5.72631836 C-10.30122238 0.03236409 -6.58327413 -0.01669328 0 0 Z M1.48730469 13.72631836 C3.89378155 18.53927208 6.11781112 21.84718215 9.61230469 25.72631836 C13.89761082 30.63551984 17.55427337 35.66580036 20.99267578 41.19287109 C24.09357927 46.16491453 27.3711447 50.99254321 30.73730469 55.78881836 C31.23286865 56.50328125 31.72843262 57.21774414 32.23901367 57.95385742 C35.04542681 61.9324024 38.00493105 65.30494171 41.48730469 68.72631836 C43.66606341 71.3815206 45.69026114 74.15280033 47.73730469 76.90991211 C50.42162054 80.47501911 53.30087078 83.58674378 56.48730469 86.72631836 C57.5985264 88.10005346 58.68355741 89.4955171 59.73730469 90.91381836 C62.337362 94.32780665 65.07425406 97.51296768 67.98730469 100.66381836 C73.88089636 107.12872759 78.61471571 114.2166433 83.17089844 121.65991211 C84.72132281 124.09366431 86.37865827 126.43644029 88.04980469 128.78881836 C90.00024409 131.54460048 91.86427276 134.2658524 93.48730469 137.22631836 C95.58203343 141.0413988 98.11357663 144.51267896 100.63574219 148.05444336 C102.48968305 150.72975042 104.2125734 153.45860203 105.92480469 156.22631836 C108.77713654 160.75201823 111.89562899 164.89762182 115.29589844 169.02319336 C116.95710377 171.07230938 118.56416019 173.13390123 120.14746094 175.24194336 C120.59822998 175.84022949 121.04899902 176.43851563 121.51342773 177.05493164 C122.40119124 178.23722374 123.28430697 179.42302249 124.16235352 180.61254883 C125.2242424 182.02006548 126.35068378 183.37842963 127.48730469 184.72631836 C128.14730469 184.72631836 128.80730469 184.72631836 129.48730469 184.72631836 C129.63208252 185.26796631 129.77686035 185.80961426 129.92602539 186.36767578 C131.82251768 192.76825146 134.79718072 197.64817812 138.67480469 203.03881836 C139.84883957 204.70488089 141.02201809 206.3715472 142.19433594 208.03881836 C143.04439209 209.23958008 143.04439209 209.23958008 143.91162109 210.46459961 C145.98273297 213.43745062 147.91744837 216.48206972 149.86230469 219.53881836 C152.50092458 223.5495206 155.12515495 226.3325275 158.90136719 229.24584961 C161.39720174 231.57570502 162.69958441 234.41918998 164.24511719 237.42944336 C166.96169742 242.45255398 170.63446701 246.79484984 174.42480469 251.03881836 C177.63068316 254.71222078 180.12068451 258.74546578 182.69042969 262.87866211 C186.09339553 268.27162319 189.69810098 273.53951383 193.73730469 278.47631836 C195.76105445 281.07828234 197.01269268 283.77709433 198.48730469 286.72631836 C201.44549886 291.51483335 204.73038412 296.07857947 208.02197266 300.64135742 C217.16601008 313.32490952 225.29836454 326.58455393 233.39331055 339.95556641 C234.38952386 341.56804915 235.43592588 343.14925015 236.48730469 344.72631836 C237.14730469 344.72631836 237.80730469 344.72631836 238.48730469 344.72631836 C238.87208984 345.52875977 238.87208984 345.52875977 239.26464844 346.34741211 C243.7339638 355.04330047 249.08606174 362.67302035 255.40136719 370.10913086 C257.37462577 372.58494219 258.93491863 375.03569171 260.48730469 377.78881836 C263.16295614 382.45650702 266.41153384 386.17783576 270.06933594 390.10522461 C277.65891814 398.33238076 284.51496073 407.19799493 291.26708984 416.11499023 C292.47643208 417.71196078 293.69083191 419.30509721 294.90527344 420.89819336 C298.76070847 425.98710928 302.46641667 431.11794758 305.97167969 436.45288086 C311.54361689 444.81078666 317.67839875 452.35408568 324.48730469 459.72631836 C334.73842576 471.22856051 334.73842576 471.22856051 336.48730469 474.72631836 C357.60730469 474.72631836 378.72730469 474.72631836 400.48730469 474.72631836 C397.91300107 469.56789836 397.91300107 469.56789836 394.92480469 464.78881836 C394.40402344 464.02182617 393.88324219 463.25483398 393.34667969 462.46459961 C392.73308594 461.5609668 392.11949219 460.65733398 391.48730469 459.72631836 C390.72034416 458.57486306 389.95481452 457.42245388 389.19042969 456.26928711 C385.17726283 450.21590251 381.13559139 444.18810385 376.98730469 438.22631836 C373.77703736 433.60873313 370.6096453 428.96632016 367.48730469 424.28881836 C367.07125977 423.66555664 366.65521484 423.04229492 366.2265625 422.40014648 C364.138608 419.25765309 362.08015875 416.09989978 360.06542969 412.90991211 C356.61541187 407.44744356 353.23827861 402.15180615 348.88183594 397.35131836 C344.79717612 392.59160271 341.66030437 387.05130741 338.48730469 381.66381836 C336.29321282 377.96939632 333.92919319 374.56863413 331.31152344 371.16772461 C323.77301395 361.07871299 317.00175167 350.49538275 310.48730469 339.72631836 C306.9160923 333.88984485 303.21044051 328.28721756 299.04980469 322.85131836 C293.04616785 314.94805362 288.02929397 306.54390753 283.23242188 297.87524414 C279.77736443 291.63234392 276.19210993 285.54316486 272.23730469 279.60131836 C271.83721191 278.99819824 271.43711914 278.39507813 271.02490234 277.77368164 C268.39549757 273.88460346 265.6413653 270.20848595 262.48730469 266.72631836 C261.82730469 266.72631836 261.16730469 266.72631836 260.48730469 266.72631836 C260.13345703 265.6937793 260.13345703 265.6937793 259.77246094 264.64038086 C258.22839032 261.13923593 256.1679031 258.17628026 253.92480469 255.10131836 C253.48225342 254.48885254 253.03970215 253.87638672 252.58374023 253.24536133 C247.97978103 246.93225098 243.15848799 240.76789985 237.90234375 234.98144531 C233.27806562 229.85215072 229.3933861 224.43631179 225.61230469 218.66381836 C225.00370605 217.74205811 224.39510742 216.82029785 223.76806641 215.87060547 C218.78712227 208.28175773 214.02356282 200.58815145 209.48730469 192.72631836 C209.12910645 192.10611816 208.7709082 191.48591797 208.40185547 190.84692383 C205.74624857 186.23828278 203.1066789 181.62025246 200.50927734 176.97851562 C198.32111306 173.09407105 195.98238216 169.36257579 193.48730469 165.66381836 C192.82730469 164.6828418 192.16730469 163.70186523 191.48730469 162.69116211 C190.10893248 160.647833 188.72999235 158.60488693 187.35058594 156.56225586 C185.48730469 153.72631836 185.48730469 153.72631836 183.67480469 150.41381836 C181.60925093 146.74706014 179.09785384 143.54066119 176.47949219 140.25366211 C174.23780296 137.40979361 172.08174548 134.50992034 169.92480469 131.60131836 C167.50114708 128.34927017 165.07406608 125.17929702 162.36230469 122.16381836 C159.992283 119.47649868 158.12241294 116.64817937 156.23730469 113.60131836 C153.28606373 108.85226904 150.03953326 104.45683728 146.60375977 100.04931641 C137.24079475 88.00522607 128.62907429 75.87189519 121.40136719 62.4230957 C117.63434057 55.43035131 113.35564485 49.0792923 108.45166016 42.84082031 C104.78682305 38.17230356 101.34023308 33.37138726 97.97460938 28.4831543 C95.01014123 24.24428842 91.94427508 19.95480356 87.23730469 17.60131836 C85.48730469 16.72631836 85.48730469 16.72631836 84.48730469 13.72631836 C57.09730469 13.72631836 29.70730469 13.72631836 1.48730469 13.72631836 Z " fill="#010201" transform="translate(327.5126953125,307.273681640625)"/>
</svg>
